Atma-SemiBold.ufo
<glyph name="numbersign" format="1">
  <advance width="615"/>
  <unicode hex="0023"/>
  <outline>
    <contour>
      <point x="229" y="246" type="qcurve"/>
      <point x="264" y="244"/>
      <point x="329" y="241"/>
      <point x="358" y="241" type="qcurve"/>
      <point x="362" y="255"/>
      <point x="372" y="289"/>
      <point x="389" y="352" type="qcurve"/>
      <point x="367" y="353"/>
      <point x="315" y="355"/>
      <point x="260" y="359" type="qcurve"/>
      <point x="253" y="329"/>
      <point x="238" y="273"/>
    </contour>
    <contour>
      <point x="596" y="249" type="qcurve"/>
      <point x="602" y="225"/>
      <point x="598" y="170"/>
      <point x="588" y="149" type="qcurve"/>
      <point x="550" y="147"/>
      <point x="469" y="145"/>
      <point x="423" y="145" type="qcurve"/>
      <point x="406" y="99"/>
      <point x="369" y="7"/>
      <point x="347" y="-40" type="qcurve"/>
      <point x="324" y="-37"/>
      <point x="288" y="-24"/>
      <point x="266" y="-10" type="qcurve"/>
      <point x="281" y="23"/>
      <point x="312" y="101"/>
      <point x="329" y="148" type="qcurve"/>
      <point x="305" y="149"/>
      <point x="249" y="153"/>
      <point x="200" y="158" type="qcurve"/>
      <point x="181" y="107"/>
      <point x="141" y="11"/>
      <point x="120" y="-35" type="qcurve"/>
      <point x="97" y="-32"/>
      <point x="60" y="-18"/>
      <point x="40" y="-5" type="qcurve"/>
      <point x="57" y="33"/>
      <point x="91" y="121"/>
      <point x="108" y="170" type="qcurve"/>
      <point x="88" y="173"/>
      <point x="43" y="181"/>
      <point x="11" y="187" type="qcurve"/>
      <point x="8" y="207"/>
      <point x="12" y="245"/>
      <point x="20" y="270" type="qcurve"/>
      <point x="50" y="265"/>
      <point x="107" y="257"/>
      <point x="135" y="254" type="qcurve"/>
      <point x="147" y="294"/>
      <point x="161" y="347"/>
      <point x="166" y="370" type="qcurve"/>
      <point x="126" y="375"/>
      <point x="57" y="386"/>
      <point x="25" y="392" type="qcurve"/>
      <point x="22" y="414"/>
      <point x="26" y="453"/>
      <point x="34" y="475" type="qcurve"/>
      <point x="67" y="469"/>
      <point x="144" y="459"/>
      <point x="185" y="455" type="qcurve"/>
      <point x="195" y="504"/>
      <point x="207" y="588"/>
      <point x="210" y="624" type="qcurve"/>
      <point x="236" y="622"/>
      <point x="288" y="603"/>
      <point x="305" y="589" type="qcurve"/>
      <point x="300" y="552"/>
      <point x="288" y="482"/>
      <point x="281" y="449" type="qcurve"/>
      <point x="330" y="447"/>
      <point x="386" y="445"/>
      <point x="409" y="445" type="qcurve"/>
      <point x="418" y="485"/>
      <point x="431" y="572"/>
      <point x="435" y="619" type="qcurve"/>
      <point x="463" y="617"/>
      <point x="514" y="599"/>
      <point x="530" y="584" type="qcurve"/>
      <point x="525" y="548"/>
      <point x="513" y="479"/>
      <point x="506" y="447" type="qcurve"/>
      <point x="527" y="448"/>
      <point x="575" y="451"/>
      <point x="610" y="454" type="qcurve"/>
      <point x="616" y="431"/>
      <point x="612" y="375"/>
      <point x="602" y="354" type="qcurve"/>
      <point x="573" y="353"/>
      <point x="514" y="351"/>
      <point x="485" y="351" type="qcurve"/>
      <point x="478" y="322"/>
      <point x="463" y="267"/>
      <point x="455" y="241" type="qcurve"/>
      <point x="501" y="242"/>
      <point x="569" y="246"/>
    </contour>
  </outline>
</glyph>
<glyph name="ampersand" format="1">
  <advance width="809"/>
  <unicode hex="0026"/>
  <outline>
    <contour>
      <point x="790" y="39" type="qcurve"/>
      <point x="778" y="5"/>
      <point x="735" y="-49"/>
      <point x="706" y="-69" type="qcurve"/>
      <point x="672" y="-56"/>
      <point x="603" y="-25"/>
      <point x="568" y="-7" type="qcurve"/>
      <point x="524" y="-37"/>
      <point x="413" y="-67"/>
      <point x="349" y="-67" type="qcurve" smooth="yes"/>
      <point x="210" y="-67"/>
      <point x="40" y="72"/>
      <point x="40" y="183" type="qcurve" smooth="yes"/>
      <point x="40" y="263"/>
      <point x="140" y="381"/>
      <point x="229" y="404" type="qcurve"/>
      <point x="225" y="428"/>
      <point x="221" y="474"/>
      <point x="221" y="496" type="qcurve" smooth="yes"/>
      <point x="221" y="600"/>
      <point x="332" y="722"/>
      <point x="430" y="722" type="qcurve" smooth="yes"/>
      <point x="501" y="722"/>
      <point x="589" y="646"/>
      <point x="589" y="586" type="qcurve" smooth="yes"/>
      <point x="589" y="513"/>
      <point x="479" y="414"/>
      <point x="377" y="394" type="qcurve"/>
      <point x="399" y="325"/>
      <point x="492" y="207"/>
      <point x="563" y="156" type="qcurve"/>
      <point x="577" y="184"/>
      <point x="591" y="246"/>
      <point x="591" y="279" type="qcurve" smooth="yes"/>
      <point x="591" y="304"/>
      <point x="585" y="351"/>
      <point x="578" y="383" type="qcurve"/>
      <point x="615" y="393"/>
      <point x="691" y="386"/>
      <point x="725" y="370" type="qcurve"/>
      <point x="726" y="344"/>
      <point x="723" y="294"/>
      <point x="720" y="267" type="qcurve" smooth="yes"/>
      <point x="714" y="218"/>
      <point x="687" y="132"/>
      <point x="665" y="95" type="qcurve"/>
      <point x="694" y="80"/>
      <point x="757" y="51"/>
    </contour>
    <contour>
      <point x="411" y="644" type="qcurve" smooth="yes"/>
      <point x="385" y="644"/>
      <point x="356" y="583"/>
      <point x="356" y="528" type="qcurve" smooth="yes"/>
      <point x="356" y="506"/>
      <point x="359" y="466"/>
      <point x="363" y="448" type="qcurve"/>
      <point x="408" y="465"/>
      <point x="456" y="531"/>
      <point x="456" y="575" type="qcurve" smooth="yes"/>
      <point x="456" y="608"/>
      <point x="433" y="644"/>
    </contour>
    <contour>
      <point x="188" y="220" type="qcurve" smooth="yes"/>
      <point x="188" y="138"/>
      <point x="295" y="36"/>
      <point x="381" y="36" type="qcurve" smooth="yes"/>
      <point x="404" y="36"/>
      <point x="447" y="46"/>
      <point x="467" y="56" type="qcurve"/>
      <point x="385" y="115"/>
      <point x="273" y="259"/>
      <point x="246" y="340" type="qcurve"/>
      <point x="217" y="319"/>
      <point x="188" y="259"/>
    </contour>
  </outline>
</glyph>
<glyph name="parenleft" format="1">
  <advance width="362"/>
  <unicode hex="0028"/>
  <outline>
    <contour>
      <point x="374" y="741" type="qcurve"/>
      <point x="259" y="661"/>
      <point x="137" y="438"/>
      <point x="137" y="307" type="qcurve" smooth="yes"/>
      <point x="137" y="187"/>
      <point x="243" y="-11"/>
      <point x="360" y="-109" type="qcurve"/>
      <point x="343" y="-131"/>
      <point x="303" y="-159"/>
      <point x="271" y="-174" type="qcurve"/>
      <point x="150" y="-77"/>
      <point x="22" y="168"/>
      <point x="22" y="301" type="qcurve" smooth="yes"/>
      <point x="22" y="452"/>
      <point x="154" y="708"/>
      <point x="285" y="810" type="qcurve"/>
      <point x="309" y="800"/>
      <point x="353" y="766"/>
    </contour>
  </outline>
</glyph>
<glyph name="comma" format="1">
  <advance width="224"/>
  <unicode hex="002C"/>
  <outline>
    <contour>
      <point x="63" y="118" type="qcurve"/>
      <point x="100" y="121"/>
      <point x="173" y="115"/>
      <point x="203" y="107" type="qcurve"/>
      <point x="198" y="21"/>
      <point x="159" y="-146"/>
      <point x="123" y="-231" type="qcurve"/>
      <point x="92" y="-229"/>
      <point x="42" y="-220"/>
      <point x="21" y="-214" type="qcurve"/>
      <point x="43" y="-126"/>
      <point x="63" y="35"/>
    </contour>
  </outline>
</glyph>
<glyph name="slash" format="1">
  <advance width="464"/>
  <unicode hex="002F"/>
  <outline>
    <contour>
      <point x="381" y="754" type="qcurve"/>
      <point x="406" y="751"/>
      <point x="466" y="718"/>
      <point x="488" y="695" type="qcurve"/>
      <point x="401" y="491"/>
      <point x="157" y="-6"/>
      <point x="46" y="-206" type="qcurve"/>
      <point x="23" y="-199"/>
      <point x="-28" y="-173"/>
      <point x="-44" y="-161" type="qcurve"/>
      <point x="42" y="-6"/>
      <point x="310" y="572"/>
    </contour>
  </outline>
</glyph>
<glyph name="two" format="1">
  <advance width="486"/>
  <unicode hex="0032"/>
  <outline>
    <contour>
      <point x="442" y="85" type="qcurve"/>
      <point x="441" y="49"/>
      <point x="429" y="-14"/>
      <point x="418" y="-41" type="qcurve"/>
      <point x="302" y="-37"/>
      <point x="71" y="-5"/>
      <point x="-4" y="17" type="qcurve"/>
      <point x="-4" y="45"/>
      <point x="1" y="85"/>
      <point x="6" y="103" type="qcurve"/>
      <point x="155" y="207"/>
      <point x="304" y="390"/>
      <point x="304" y="470" type="qcurve" smooth="yes"/>
      <point x="304" y="510"/>
      <point x="272" y="554"/>
      <point x="243" y="554" type="qcurve" smooth="yes"/>
      <point x="210" y="554"/>
      <point x="167" y="485"/>
      <point x="153" y="410" type="qcurve"/>
      <point x="112" y="410"/>
      <point x="44" y="423"/>
      <point x="16" y="437" type="qcurve"/>
      <point x="40" y="539"/>
      <point x="158" y="641"/>
      <point x="251" y="641" type="qcurve" smooth="yes"/>
      <point x="342" y="641"/>
      <point x="457" y="540"/>
      <point x="457" y="460" type="qcurve" smooth="yes"/>
      <point x="457" y="368"/>
      <point x="323" y="197"/>
      <point x="167" y="90" type="qcurve"/>
      <point x="278" y="84"/>
      <point x="389" y="82"/>
    </contour>
  </outline>
</glyph>
<glyph name="four" format="1">
  <advance width="591"/>
  <unicode hex="0034"/>
  <outline>
    <contour>
      <point x="436" y="117" type="qcurve"/>
      <point x="432" y="85"/>
      <point x="426" y="11"/>
      <point x="423" y="-33" type="qcurve"/>
      <point x="408" y="-39"/>
      <point x="368" y="-45"/>
      <point x="345" y="-45" type="qcurve" smooth="yes"/>
      <point x="330" y="-44"/>
      <point x="311" y="-41"/>
      <point x="300" y="-38" type="qcurve"/>
      <point x="299" y="-16"/>
      <point x="297" y="31"/>
      <point x="297" y="56" type="qcurve" smooth="yes"/>
      <point x="297" y="86"/>
      <point x="297" y="116"/>
      <point x="298" y="129" type="qcurve"/>
      <point x="219" y="137"/>
      <point x="75" y="154"/>
      <point x="28" y="161" type="qcurve"/>
      <point x="23" y="173"/>
      <point x="14" y="202"/>
      <point x="8" y="230" type="qcurve"/>
      <point x="97" y="367"/>
      <point x="204" y="597"/>
      <point x="253" y="757" type="qcurve"/>
      <point x="284" y="756"/>
      <point x="354" y="740"/>
      <point x="398" y="723" type="qcurve"/>
      <point x="349" y="589"/>
      <point x="246" y="372"/>
      <point x="182" y="269" type="qcurve"/>
      <point x="209" y="263"/>
      <point x="269" y="253"/>
      <point x="306" y="247" type="qcurve"/>
      <point x="310" y="294"/>
      <point x="321" y="371"/>
      <point x="327" y="400" type="qcurve"/>
      <point x="348" y="410"/>
      <point x="393" y="419"/>
      <point x="420" y="419" type="qcurve" smooth="yes"/>
      <point x="438" y="419"/>
      <point x="474" y="414"/>
      <point x="489" y="410" type="qcurve"/>
      <point x="480" y="382"/>
      <point x="460" y="292"/>
      <point x="450" y="229" type="qcurve"/>
      <point x="480" y="226"/>
      <point x="545" y="221"/>
      <point x="581" y="219" type="qcurve"/>
      <point x="581" y="190"/>
      <point x="566" y="129"/>
      <point x="554" y="109" type="qcurve"/>
      <point x="533" y="110"/>
      <point x="475" y="114"/>
    </contour>
  </outline>
</glyph>
<glyph name="five" format="1">
  <advance width="522"/>
  <unicode hex="0035"/>
  <outline>
    <contour>
      <point x="465" y="207" type="qcurve" smooth="yes"/>
      <point x="465" y="101"/>
      <point x="336" y="-37"/>
      <point x="235" y="-37" type="qcurve" smooth="yes"/>
      <point x="132" y="-37"/>
      <point x="11" y="87"/>
      <point x="5" y="201" type="qcurve"/>
      <point x="39" y="201"/>
      <point x="113" y="192"/>
      <point x="150" y="184" type="qcurve"/>
      <point x="150" y="118"/>
      <point x="193" y="49"/>
      <point x="233" y="49" type="qcurve" smooth="yes"/>
      <point x="271" y="49"/>
      <point x="311" y="109"/>
      <point x="311" y="168" type="qcurve" smooth="yes"/>
      <point x="311" y="233"/>
      <point x="245" y="312"/>
      <point x="188" y="312" type="qcurve" smooth="yes"/>
      <point x="172" y="312"/>
      <point x="138" y="305"/>
      <point x="119" y="298" type="qcurve"/>
      <point x="106" y="306"/>
      <point x="73" y="338"/>
      <point x="66" y="349" type="qcurve"/>
      <point x="64" y="368"/>
      <point x="63" y="402"/>
      <point x="63" y="420" type="qcurve" smooth="yes"/>
      <point x="63" y="477"/>
      <point x="75" y="607"/>
      <point x="87" y="680" type="qcurve"/>
      <point x="193" y="657"/>
      <point x="372" y="638"/>
      <point x="492" y="637" type="qcurve"/>
      <point x="491" y="601"/>
      <point x="479" y="535"/>
      <point x="468" y="509" type="qcurve"/>
      <point x="393" y="513"/>
      <point x="274" y="526"/>
      <point x="206" y="538" type="qcurve"/>
      <point x="202" y="498"/>
      <point x="198" y="433"/>
      <point x="199" y="406" type="qcurve"/>
      <point x="213" y="410"/>
      <point x="251" y="415"/>
      <point x="268" y="415" type="qcurve" smooth="yes"/>
      <point x="357" y="415"/>
      <point x="465" y="301"/>
    </contour>
  </outline>
</glyph>
<glyph name="six" format="1">
  <advance width="558"/>
  <unicode hex="0036"/>
  <outline>
    <contour>
      <point x="342" y="391" type="qcurve" smooth="yes"/>
      <point x="426" y="391"/>
      <point x="531" y="287"/>
      <point x="531" y="203" type="qcurve" smooth="yes"/>
      <point x="531" y="98"/>
      <point x="394" y="-50"/>
      <point x="280" y="-50" type="qcurve" smooth="yes"/>
      <point x="162" y="-50"/>
      <point x="34" y="132"/>
      <point x="34" y="293" type="qcurve" smooth="yes"/>
      <point x="34" y="472"/>
      <point x="196" y="691"/>
      <point x="329" y="691" type="qcurve" smooth="yes"/>
      <point x="412" y="691"/>
      <point x="515" y="603"/>
      <point x="530" y="519" type="qcurve"/>
      <point x="500" y="500"/>
      <point x="439" y="481"/>
      <point x="400" y="478" type="qcurve"/>
      <point x="393" y="535"/>
      <point x="356" y="588"/>
      <point x="323" y="588" type="qcurve" smooth="yes"/>
      <point x="263" y="588"/>
      <point x="189" y="441"/>
      <point x="187" y="315" type="qcurve"/>
      <point x="217" y="352"/>
      <point x="296" y="391"/>
    </contour>
    <contour>
      <point x="195" y="200" type="qcurve"/>
      <point x="206" y="129"/>
      <point x="259" y="49"/>
      <point x="296" y="49" type="qcurve" smooth="yes"/>
      <point x="331" y="49"/>
      <point x="376" y="116"/>
      <point x="376" y="164" type="qcurve" smooth="yes"/>
      <point x="376" y="222"/>
      <point x="327" y="292"/>
      <point x="287" y="292" type="qcurve" smooth="yes"/>
      <point x="257" y="292"/>
      <point x="208" y="243"/>
    </contour>
  </outline>
</glyph>
<glyph name="nine" format="1">
  <advance width="564"/>
  <unicode hex="0039"/>
  <outline>
    <contour>
      <point x="192" y="476" type="qcurve" smooth="yes"/>
      <point x="192" y="418"/>
      <point x="243" y="350"/>
      <point x="286" y="350" type="qcurve" smooth="yes"/>
      <point x="320" y="350"/>
      <point x="367" y="400"/>
      <point x="379" y="448" type="qcurve"/>
      <point x="373" y="529"/>
      <point x="325" y="611"/>
      <point x="284" y="611" type="qcurve" smooth="yes"/>
      <point x="244" y="611"/>
      <point x="192" y="535"/>
    </contour>
    <contour>
      <point x="534" y="400" type="qcurve" smooth="yes"/>
      <point x="534" y="212"/>
      <point x="351" y="-30"/>
      <point x="209" y="-30" type="qcurve" smooth="yes"/>
      <point x="155" y="-30"/>
      <point x="65" y="5"/>
      <point x="29" y="40" type="qcurve"/>
      <point x="46" y="75"/>
      <point x="83" y="126"/>
      <point x="106" y="146" type="qcurve"/>
      <point x="123" y="117"/>
      <point x="189" y="81"/>
      <point x="226" y="81" type="qcurve"/>
      <point x="285" y="81"/>
      <point x="365" y="201"/>
      <point x="377" y="308" type="qcurve"/>
      <point x="350" y="279"/>
      <point x="283" y="250"/>
      <point x="242" y="250" type="qcurve" smooth="yes"/>
      <point x="150" y="250"/>
      <point x="37" y="364"/>
      <point x="37" y="456" type="qcurve" smooth="yes"/>
      <point x="37" y="566"/>
      <point x="175" y="711"/>
      <point x="286" y="711" type="qcurve" smooth="yes"/>
      <point x="401" y="711"/>
      <point x="534" y="543"/>
    </contour>
  </outline>
</glyph>
<glyph name="less" format="1">
  <advance width="444"/>
  <unicode hex="003C"/>
  <outline>
    <contour>
      <point x="414" y="205" type="qcurve"/>
      <point x="410" y="181"/>
      <point x="397" y="143"/>
      <point x="386" y="121" type="qcurve"/>
      <point x="296" y="154"/>
      <point x="93" y="264"/>
      <point x="29" y="314" type="qcurve"/>
      <point x="30" y="368" type="line"/>
      <point x="95" y="418"/>
      <point x="297" y="527"/>
      <point x="387" y="562" type="qcurve"/>
      <point x="398" y="539"/>
      <point x="410" y="502"/>
      <point x="415" y="477" type="qcurve"/>
      <point x="340" y="445"/>
      <point x="211" y="377"/>
      <point x="154" y="340" type="qcurve"/>
      <point x="207" y="306"/>
      <point x="335" y="239"/>
    </contour>
  </outline>
</glyph>
<glyph name="question" format="1">
  <advance width="483"/>
  <unicode hex="003F"/>
  <outline>
    <contour>
      <point x="276" y="235" type="qcurve"/>
      <point x="258" y="230"/>
      <point x="200" y="225"/>
      <point x="168" y="225" type="qcurve"/>
      <point x="159" y="281"/>
      <point x="149" y="367"/>
      <point x="148" y="401" type="qcurve"/>
      <point x="222" y="415"/>
      <point x="301" y="503"/>
      <point x="301" y="571" type="qcurve" smooth="yes"/>
      <point x="301" y="622"/>
      <point x="266" y="680"/>
      <point x="233" y="680" type="qcurve" smooth="yes"/>
      <point x="196" y="680"/>
      <point x="151" y="594"/>
      <point x="151" y="521" type="qcurve"/>
      <point x="109" y="521"/>
      <point x="42" y="533"/>
      <point x="15" y="546" type="qcurve"/>
      <point x="21" y="653"/>
      <point x="135" y="763"/>
      <point x="239" y="763" type="qcurve" smooth="yes"/>
      <point x="332" y="763"/>
      <point x="456" y="654"/>
      <point x="456" y="571" type="qcurve" smooth="yes"/>
      <point x="456" y="499"/>
      <point x="363" y="395"/>
      <point x="279" y="374" type="qcurve"/>
      <point x="278" y="349"/>
      <point x="277" y="285"/>
    </contour>
    <contour>
      <point x="293" y="123" type="qcurve"/>
      <point x="298" y="69"/>
      <point x="302" y="18"/>
      <point x="305" y="-7" type="qcurve"/>
      <point x="290" y="-10"/>
      <point x="262" y="-14"/>
      <point x="236" y="-15" type="qcurve" smooth="yes"/>
      <point x="215" y="-15"/>
      <point x="177" y="-8"/>
      <point x="163" y="-2" type="qcurve"/>
      <point x="160" y="30"/>
      <point x="159" y="91"/>
      <point x="161" y="125" type="qcurve"/>
      <point x="181" y="125"/>
      <point x="220" y="125"/>
    </contour>
  </outline>
</glyph>
<glyph name="B" format="1">
  <advance width="614"/>
  <unicode hex="0042"/>
  <outline>
    <contour>
      <point x="586" y="263" type="qcurve" smooth="yes"/>
      <point x="586" y="144"/>
      <point x="403" y="-20"/>
      <point x="270" y="-20" type="qcurve" smooth="yes"/>
      <point x="227" y="-20"/>
      <point x="137" y="6"/>
      <point x="97" y="30" type="qcurve"/>
      <point x="86" y="173"/>
      <point x="76" y="412"/>
      <point x="76" y="538" type="qcurve" smooth="yes"/>
      <point x="76" y="598"/>
      <point x="76" y="662"/>
      <point x="77" y="691" type="qcurve"/>
      <point x="127" y="715"/>
      <point x="238" y="741"/>
      <point x="293" y="741" type="qcurve"/>
      <point x="410" y="741"/>
      <point x="536" y="656"/>
      <point x="536" y="577" type="qcurve" smooth="yes"/>
      <point x="536" y="527"/>
      <point x="488" y="447"/>
      <point x="441" y="419" type="qcurve"/>
      <point x="510" y="403"/>
      <point x="586" y="321"/>
    </contour>
    <contour>
      <point x="388" y="557" type="qcurve" smooth="yes"/>
      <point x="388" y="603"/>
      <point x="330" y="652"/>
      <point x="275" y="652" type="qcurve" smooth="yes"/>
      <point x="267" y="652"/>
      <point x="246" y="649"/>
      <point x="234" y="647" type="qcurve"/>
      <point x="230" y="599"/>
      <point x="224" y="490"/>
      <point x="222" y="417" type="qcurve"/>
      <point x="306" y="428"/>
      <point x="388" y="497"/>
    </contour>
    <contour>
      <point x="223" y="89" type="qcurve"/>
      <point x="238" y="81"/>
      <point x="269" y="73"/>
      <point x="284" y="73" type="qcurve" smooth="yes"/>
      <point x="345" y="73"/>
      <point x="434" y="170"/>
      <point x="434" y="232" type="qcurve" smooth="yes"/>
      <point x="434" y="283"/>
      <point x="375" y="335"/>
      <point x="316" y="335" type="qcurve" smooth="yes"/>
      <point x="295" y="335"/>
      <point x="245" y="325"/>
      <point x="220" y="317" type="qcurve"/>
      <point x="220" y="297"/>
      <point x="220" y="256"/>
      <point x="220" y="236" type="qcurve" smooth="yes"/>
      <point x="220" y="196"/>
      <point x="221" y="124"/>
    </contour>
  </outline>
</glyph>
<glyph name="C" format="1">
  <advance width="588"/>
  <unicode hex="0043"/>
  <outline>
    <contour>
      <point x="431" y="229" type="qcurve"/>
      <point x="463" y="232"/>
      <point x="529" y="220"/>
      <point x="548" y="208" type="qcurve"/>
      <point x="540" y="91"/>
      <point x="406" y="-35"/>
      <point x="288" y="-35" type="qcurve" smooth="yes"/>
      <point x="170" y="-35"/>
      <point x="39" y="124"/>
      <point x="39" y="269" type="qcurve" smooth="yes"/>
      <point x="39" y="451"/>
      <point x="220" y="693"/>
      <point x="360" y="693" type="qcurve" smooth="yes"/>
      <point x="451" y="693"/>
      <point x="551" y="579"/>
      <point x="556" y="471" type="qcurve"/>
      <point x="518" y="453"/>
      <point x="458" y="441"/>
      <point x="414" y="442" type="qcurve"/>
      <point x="416" y="521"/>
      <point x="377" y="598"/>
      <point x="335" y="598" type="qcurve" smooth="yes"/>
      <point x="280" y="598"/>
      <point x="203" y="430"/>
      <point x="203" y="305" type="qcurve" smooth="yes"/>
      <point x="203" y="188"/>
      <point x="266" y="63"/>
      <point x="325" y="63" type="qcurve" smooth="yes"/>
      <point x="381" y="63"/>
      <point x="437" y="152"/>
    </contour>
  </outline>
</glyph>
<glyph name="D" format="1">
  <advance width="609"/>
  <unicode hex="0044"/>
  <outline>
    <contour>
      <point x="581" y="442" type="qcurve" smooth="yes"/>
      <point x="581" y="297"/>
      <point x="368" y="39"/>
      <point x="206" y="-10" type="qcurve"/>
      <point x="181" y="-10"/>
      <point x="104" y="-4"/>
      <point x="78" y="0" type="qcurve"/>
      <point x="65" y="147"/>
      <point x="53" y="394"/>
      <point x="53" y="508" type="qcurve" smooth="yes"/>
      <point x="53" y="547"/>
      <point x="55" y="628"/>
      <point x="56" y="665" type="qcurve"/>
      <point x="112" y="692"/>
      <point x="217" y="717"/>
      <point x="276" y="717" type="qcurve" smooth="yes"/>
      <point x="425" y="717"/>
      <point x="581" y="576"/>
    </contour>
    <contour>
      <point x="215" y="617" type="qcurve"/>
      <point x="207" y="518"/>
      <point x="200" y="329"/>
      <point x="200" y="206" type="qcurve" smooth="yes"/>
      <point x="200" y="185"/>
      <point x="201" y="139"/>
      <point x="202" y="100" type="qcurve"/>
      <point x="311" y="147"/>
      <point x="426" y="323"/>
      <point x="426" y="442" type="qcurve" smooth="yes"/>
      <point x="426" y="527"/>
      <point x="339" y="623"/>
      <point x="260" y="623" type="qcurve" smooth="yes"/>
      <point x="249" y="623"/>
      <point x="226" y="620"/>
    </contour>
  </outline>
</glyph>
<glyph name="J" format="1">
  <advance width="503"/>
  <unicode hex="004A"/>
  <outline>
    <contour>
      <point x="411" y="113" type="qcurve" smooth="yes"/>
      <point x="390" y="15"/>
      <point x="290" y="-88"/>
      <point x="217" y="-88" type="qcurve" smooth="yes"/>
      <point x="141" y="-88"/>
      <point x="31" y="39"/>
      <point x="19" y="139" type="qcurve"/>
      <point x="43" y="158"/>
      <point x="100" y="182"/>
      <point x="135" y="187" type="qcurve"/>
      <point x="149" y="86"/>
      <point x="183" y="12"/>
      <point x="214" y="12" type="qcurve" smooth="yes"/>
      <point x="251" y="12"/>
      <point x="286" y="114"/>
      <point x="286" y="222" type="qcurve" smooth="yes"/>
      <point x="286" y="326"/>
      <point x="270" y="579"/>
      <point x="255" y="698" type="qcurve"/>
      <point x="273" y="709"/>
      <point x="327" y="723"/>
      <point x="356" y="724" type="qcurve" smooth="yes"/>
      <point x="376" y="725"/>
      <point x="412" y="721"/>
      <point x="430" y="717" type="qcurve"/>
      <point x="435" y="662"/>
      <point x="441" y="539"/>
      <point x="441" y="478" type="qcurve" smooth="yes"/>
      <point x="441" y="352"/>
      <point x="427" y="189"/>
    </contour>
  </outline>
</glyph>
<glyph name="M" format="1">
  <advance width="797"/>
  <unicode hex="004D"/>
  <outline>
    <contour>
      <point x="744" y="-26" type="qcurve"/>
      <point x="702" y="-41"/>
      <point x="632" y="-53"/>
      <point x="589" y="-53" type="qcurve"/>
      <point x="598" y="71"/>
      <point x="609" y="374"/>
      <point x="611" y="537" type="qcurve"/>
      <point x="563" y="456"/>
      <point x="485" y="287"/>
      <point x="452" y="195" type="qcurve"/>
      <point x="434" y="189"/>
      <point x="383" y="187"/>
      <point x="359" y="191" type="qcurve"/>
      <point x="324" y="282"/>
      <point x="244" y="443"/>
      <point x="198" y="517" type="qcurve"/>
      <point x="198" y="507"/>
      <point x="198" y="486"/>
      <point x="198" y="476" type="qcurve" smooth="yes"/>
      <point x="198" y="356"/>
      <point x="224" y="112"/>
      <point x="247" y="11" type="qcurve"/>
      <point x="226" y="5"/>
      <point x="145" y="-4"/>
      <point x="108" y="-4" type="qcurve"/>
      <point x="87" y="138"/>
      <point x="62" y="540"/>
      <point x="64" y="704" type="qcurve"/>
      <point x="98" y="726"/>
      <point x="174" y="756"/>
      <point x="209" y="762" type="qcurve"/>
      <point x="279" y="666"/>
      <point x="385" y="476"/>
      <point x="420" y="385" type="qcurve"/>
      <point x="459" y="485"/>
      <point x="556" y="673"/>
      <point x="614" y="761" type="qcurve"/>
      <point x="648" y="756"/>
      <point x="710" y="738"/>
      <point x="736" y="725" type="qcurve"/>
      <point x="742" y="595"/>
      <point x="746" y="221"/>
    </contour>
  </outline>
</glyph>
<glyph name="Q" format="1">
  <advance width="635"/>
  <unicode hex="0051"/>
  <outline>
    <contour>
      <point x="618" y="-28" type="qcurve"/>
      <point x="609" y="-52"/>
      <point x="567" y="-97"/>
      <point x="533" y="-119" type="qcurve"/>
      <point x="506" y="-79"/>
      <point x="459" y="-16"/>
      <point x="437" y="11" type="qcurve"/>
      <point x="402" y="-14"/>
      <point x="319" y="-40"/>
      <point x="272" y="-40" type="qcurve" smooth="yes"/>
      <point x="161" y="-40"/>
      <point x="34" y="130"/>
      <point x="34" y="274" type="qcurve" smooth="yes"/>
      <point x="34" y="448"/>
      <point x="213" y="673"/>
      <point x="349" y="673" type="qcurve" smooth="yes"/>
      <point x="468" y="673"/>
      <point x="594" y="519"/>
      <point x="594" y="373" type="qcurve" smooth="yes"/>
      <point x="594" y="295"/>
      <point x="550" y="142"/>
      <point x="511" y="86" type="qcurve"/>
      <point x="537" y="63"/>
      <point x="590" y="6"/>
    </contour>
    <contour>
      <point x="189" y="296" type="qcurve" smooth="yes"/>
      <point x="189" y="190"/>
      <point x="248" y="60"/>
      <point x="300" y="60" type="qcurve" smooth="yes"/>
      <point x="320" y="60"/>
      <point x="353" y="74"/>
      <point x="367" y="88" type="qcurve"/>
      <point x="351" y="104"/>
      <point x="316" y="137"/>
      <point x="296" y="154" type="qcurve"/>
      <point x="306" y="173"/>
      <point x="331" y="199"/>
      <point x="346" y="207" type="qcurve"/>
      <point x="363" y="197"/>
      <point x="396" y="176"/>
      <point x="412" y="165" type="qcurve"/>
      <point x="424" y="200"/>
      <point x="437" y="286"/>
      <point x="437" y="333" type="qcurve" smooth="yes"/>
      <point x="437" y="456"/>
      <point x="385" y="571"/>
      <point x="329" y="571" type="qcurve" smooth="yes"/>
      <point x="265" y="571"/>
      <point x="189" y="421"/>
    </contour>
  </outline>
</glyph>
<glyph name="R" format="1">
  <advance width="606"/>
  <unicode hex="0052"/>
  <outline>
    <contour>
      <point x="601" y="28" type="qcurve"/>
      <point x="577" y="5"/>
      <point x="507" y="-33"/>
      <point x="466" y="-44" type="qcurve"/>
      <point x="407" y="93"/>
      <point x="334" y="233"/>
      <point x="292" y="293" type="qcurve"/>
      <point x="267" y="284"/>
      <point x="242" y="276"/>
      <point x="231" y="273" type="qcurve"/>
      <point x="228" y="194"/>
      <point x="220" y="56"/>
      <point x="214" y="-6" type="qcurve"/>
      <point x="184" y="-7"/>
      <point x="112" y="-2"/>
      <point x="85" y="2" type="qcurve"/>
      <point x="88" y="56"/>
      <point x="90" y="128"/>
      <point x="90" y="164" type="qcurve" smooth="yes"/>
      <point x="90" y="298"/>
      <point x="76" y="540"/>
      <point x="59" y="692" type="qcurve"/>
      <point x="105" y="728"/>
      <point x="231" y="770"/>
      <point x="292" y="770" type="qcurve" smooth="yes"/>
      <point x="410" y="770"/>
      <point x="541" y="661"/>
      <point x="541" y="566" type="qcurve" smooth="yes"/>
      <point x="541" y="500"/>
      <point x="472" y="390"/>
      <point x="405" y="347" type="qcurve"/>
      <point x="456" y="289"/>
      <point x="551" y="134"/>
    </contour>
    <contour>
      <point x="223" y="672" type="qcurve"/>
      <point x="228" y="569"/>
      <point x="232" y="448"/>
      <point x="232" y="394" type="qcurve" smooth="yes"/>
      <point x="232" y="387"/>
      <point x="232" y="374"/>
      <point x="232" y="367" type="qcurve"/>
      <point x="311" y="389"/>
      <point x="387" y="478"/>
      <point x="387" y="549" type="qcurve" smooth="yes"/>
      <point x="387" y="611"/>
      <point x="328" y="680"/>
      <point x="273" y="680" type="qcurve" smooth="yes"/>
      <point x="261" y="680"/>
      <point x="236" y="676"/>
    </contour>
  </outline>
</glyph>
<glyph name="U" format="1">
  <advance width="580"/>
  <unicode hex="0055"/>
  <outline>
    <contour>
      <point x="497" y="709" type="qcurve"/>
      <point x="520" y="611"/>
      <point x="539" y="462"/>
      <point x="539" y="394" type="qcurve" smooth="yes"/>
      <point x="539" y="159"/>
      <point x="398" y="-80"/>
      <point x="258" y="-80" type="qcurve" smooth="yes"/>
      <point x="151" y="-80"/>
      <point x="43" y="95"/>
      <point x="43" y="268" type="qcurve" smooth="yes"/>
      <point x="43" y="366"/>
      <point x="76" y="578"/>
      <point x="96" y="624" type="qcurve"/>
      <point x="112" y="628"/>
      <point x="154" y="634"/>
      <point x="173" y="634" type="qcurve" smooth="yes"/>
      <point x="194" y="634"/>
      <point x="227" y="628"/>
      <point x="238" y="623" type="qcurve"/>
      <point x="221" y="541"/>
      <point x="204" y="375"/>
      <point x="204" y="300" type="qcurve" smooth="yes"/>
      <point x="204" y="160"/>
      <point x="243" y="21"/>
      <point x="282" y="21" type="qcurve" smooth="yes"/>
      <point x="329" y="21"/>
      <point x="382" y="191"/>
      <point x="382" y="338" type="qcurve" smooth="yes"/>
      <point x="382" y="420"/>
      <point x="360" y="592"/>
      <point x="338" y="681" type="qcurve"/>
      <point x="368" y="693"/>
      <point x="456" y="708"/>
    </contour>
  </outline>
</glyph>
<glyph name="V" format="1">
  <advance width="596"/>
  <unicode hex="0056"/>
  <outline>
    <contour>
      <point x="583" y="737" type="qcurve"/>
      <point x="556" y="524"/>
      <point x="436" y="123"/>
      <point x="338" y="-80" type="qcurve"/>
      <point x="317" y="-88"/>
      <point x="253" y="-96"/>
      <point x="212" y="-96" type="qcurve"/>
      <point x="141" y="74"/>
      <point x="40" y="425"/>
      <point x="9" y="603" type="qcurve"/>
      <point x="43" y="618"/>
      <point x="123" y="635"/>
      <point x="169" y="637" type="qcurve"/>
      <point x="189" y="473"/>
      <point x="253" y="181"/>
      <point x="293" y="69" type="qcurve"/>
      <point x="348" y="214"/>
      <point x="423" y="554"/>
      <point x="446" y="765" type="qcurve"/>
      <point x="483" y="763"/>
      <point x="552" y="749"/>
    </contour>
  </outline>
</glyph>
<glyph name="W" format="1">
  <advance width="852"/>
  <unicode hex="0057"/>
  <outline>
    <contour>
      <point x="428" y="354" type="qcurve"/>
      <point x="403" y="237"/>
      <point x="343" y="40"/>
      <point x="305" y="-55" type="qcurve"/>
      <point x="279" y="-63"/>
      <point x="215" y="-73"/>
      <point x="184" y="-74" type="qcurve"/>
      <point x="114" y="128"/>
      <point x="31" y="460"/>
      <point x="3" y="644" type="qcurve"/>
      <point x="46" y="657"/>
      <point x="127" y="671"/>
      <point x="169" y="672" type="qcurve"/>
      <point x="179" y="547"/>
      <point x="226" y="283"/>
      <point x="267" y="124" type="qcurve"/>
      <point x="302" y="236"/>
      <point x="349" y="438"/>
      <point x="367" y="555" type="qcurve"/>
      <point x="405" y="564"/>
      <point x="492" y="574"/>
      <point x="526" y="574" type="qcurve"/>
      <point x="540" y="445"/>
      <point x="570" y="253"/>
      <point x="591" y="158" type="qcurve"/>
      <point x="643" y="301"/>
      <point x="706" y="569"/>
      <point x="721" y="710" type="qcurve"/>
      <point x="761" y="707"/>
      <point x="830" y="683"/>
      <point x="858" y="661" type="qcurve"/>
      <point x="826" y="481"/>
      <point x="705" y="135"/>
      <point x="618" y="-24" type="qcurve"/>
      <point x="596" y="-28"/>
      <point x="542" y="-35"/>
      <point x="509" y="-37" type="qcurve"/>
      <point x="457" y="175"/>
      <point x="434" y="300"/>
    </contour>
  </outline>
</glyph>
<glyph name="X" format="1">
  <advance width="646"/>
  <unicode hex="0058"/>
  <outline>
    <contour>
      <point x="602" y="28" type="qcurve"/>
      <point x="586" y="11"/>
      <point x="532" y="-26"/>
      <point x="495" y="-44" type="qcurve"/>
      <point x="452" y="51"/>
      <point x="371" y="213"/>
      <point x="331" y="285" type="qcurve"/>
      <point x="255" y="193"/>
      <point x="142" y="66"/>
      <point x="83" y="6" type="qcurve"/>
      <point x="63" y="19"/>
      <point x="17" y="63"/>
      <point x="4" y="82" type="qcurve"/>
      <point x="134" y="232"/>
      <point x="225" y="344"/>
      <point x="264" y="397" type="qcurve"/>
      <point x="214" y="477"/>
      <point x="103" y="623"/>
      <point x="38" y="694" type="qcurve"/>
      <point x="72" y="724"/>
      <point x="147" y="770"/>
      <point x="181" y="782" type="qcurve"/>
      <point x="235" y="711"/>
      <point x="325" y="580"/>
      <point x="365" y="516" type="qcurve"/>
      <point x="412" y="584"/>
      <point x="484" y="701"/>
      <point x="515" y="759" type="qcurve"/>
      <point x="543" y="745"/>
      <point x="601" y="696"/>
      <point x="620" y="669" type="qcurve"/>
      <point x="579" y="604"/>
      <point x="484" y="474"/>
      <point x="429" y="404" type="qcurve"/>
      <point x="474" y="323"/>
      <point x="559" y="139"/>
    </contour>
  </outline>
</glyph>
<glyph name="bracketleft" format="1">
  <advance width="402"/>
  <unicode hex="005B"/>
  <outline>
    <contour>
      <point x="375" y="-26" type="qcurve"/>
      <point x="380" y="-42"/>
      <point x="388" y="-103"/>
      <point x="388" y="-127" type="qcurve"/>
      <point x="323" y="-135"/>
      <point x="192" y="-143"/>
      <point x="129" y="-142" type="qcurve"/>
      <point x="101" y="42"/>
      <point x="64" y="539"/>
      <point x="62" y="754" type="qcurve"/>
      <point x="146" y="773"/>
      <point x="276" y="790"/>
      <point x="343" y="793" type="qcurve"/>
      <point x="344" y="765"/>
      <point x="341" y="714"/>
      <point x="337" y="694" type="qcurve"/>
      <point x="278" y="693"/>
      <point x="220" y="690"/>
      <point x="196" y="688" type="qcurve"/>
      <point x="186" y="528"/>
      <point x="199" y="171"/>
      <point x="223" y="-43" type="qcurve"/>
      <point x="251" y="-43"/>
      <point x="335" y="-34"/>
    </contour>
  </outline>
</glyph>
<glyph name="asciicircum" format="1">
  <advance width="456"/>
  <unicode hex="005E"/>
  <outline>
    <contour>
      <point x="449" y="183" type="qcurve"/>
      <point x="428" y="172"/>
      <point x="391" y="160"/>
      <point x="364" y="154" type="qcurve"/>
      <point x="333" y="227"/>
      <point x="265" y="357"/>
      <point x="227" y="415" type="qcurve"/>
      <point x="192" y="361"/>
      <point x="125" y="232"/>
      <point x="92" y="155" type="qcurve"/>
      <point x="68" y="159"/>
      <point x="29" y="173"/>
      <point x="7" y="184" type="qcurve"/>
      <point x="42" y="274"/>
      <point x="152" y="477"/>
      <point x="201" y="540" type="qcurve"/>
      <point x="255" y="539" type="line"/>
      <point x="305" y="473"/>
      <point x="415" y="272"/>
    </contour>
  </outline>
</glyph>
<glyph name="a" format="1">
  <advance width="511"/>
  <unicode hex="0061"/>
  <outline>
    <contour>
      <point x="466" y="351" type="qcurve" smooth="yes"/>
      <point x="466" y="287"/>
      <point x="431" y="68"/>
      <point x="405" y="-35" type="qcurve"/>
      <point x="376" y="-35"/>
      <point x="314" y="-28"/>
      <point x="288" y="-21" type="qcurve"/>
      <point x="292" y="0"/>
      <point x="295" y="20"/>
      <point x="297" y="28" type="qcurve"/>
      <point x="276" y="16"/>
      <point x="224" y="4"/>
      <point x="195" y="4" type="qcurve" smooth="yes"/>
      <point x="118" y="4"/>
      <point x="25" y="83"/>
      <point x="25" y="149" type="qcurve" smooth="yes"/>
      <point x="25" y="218"/>
      <point x="138" y="287"/>
      <point x="250" y="287" type="qcurve" smooth="yes"/>
      <point x="271" y="287"/>
      <point x="304" y="286"/>
      <point x="322" y="285" type="qcurve"/>
      <point x="322" y="289"/>
      <point x="322" y="296"/>
      <point x="322" y="300" type="qcurve" smooth="yes"/>
      <point x="322" y="391"/>
      <point x="292" y="469"/>
      <point x="259" y="469" type="qcurve" smooth="yes"/>
      <point x="226" y="469"/>
      <point x="180" y="397"/>
      <point x="179" y="342" type="qcurve"/>
      <point x="130" y="343"/>
      <point x="66" y="380"/>
      <point x="52" y="413" type="qcurve"/>
      <point x="68" y="471"/>
      <point x="192" y="552"/>
      <point x="273" y="552" type="qcurve" smooth="yes"/>
      <point x="368" y="552"/>
      <point x="466" y="450"/>
    </contour>
    <contour>
      <point x="175" y="140" type="qcurve" smooth="yes"/>
      <point x="175" y="111"/>
      <point x="208" y="79"/>
      <point x="238" y="79" type="qcurve" smooth="yes"/>
      <point x="257" y="79"/>
      <point x="291" y="89"/>
      <point x="308" y="99" type="qcurve"/>
      <point x="313" y="135"/>
      <point x="319" y="193"/>
      <point x="320" y="220" type="qcurve"/>
      <point x="247" y="221"/>
      <point x="175" y="182"/>
    </contour>
  </outline>
</glyph>
<glyph name="e" format="1">
  <advance width="499"/>
  <unicode hex="0065"/>
  <outline>
    <contour>
      <point x="192" y="332" type="qcurve"/>
      <point x="212" y="326"/>
      <point x="253" y="320"/>
      <point x="271" y="320" type="qcurve" smooth="yes"/>
      <point x="282" y="320"/>
      <point x="304" y="322"/>
      <point x="308" y="323" type="qcurve"/>
      <point x="315" y="349"/>
      <point x="322" y="394"/>
      <point x="322" y="412" type="qcurve" smooth="yes"/>
      <point x="322" y="442"/>
      <point x="304" y="470"/>
      <point x="284" y="470" type="qcurve" smooth="yes"/>
      <point x="256" y="470"/>
      <point x="206" y="395"/>
    </contour>
    <contour>
      <point x="354" y="183" type="qcurve"/>
      <point x="383" y="178"/>
      <point x="443" y="146"/>
      <point x="463" y="126" type="qcurve"/>
      <point x="444" y="70"/>
      <point x="314" y="-17"/>
      <point x="231" y="-17" type="qcurve" smooth="yes"/>
      <point x="136" y="-17"/>
      <point x="30" y="106"/>
      <point x="30" y="211" type="qcurve" smooth="yes"/>
      <point x="30" y="344"/>
      <point x="189" y="551"/>
      <point x="295" y="551" type="qcurve" smooth="yes"/>
      <point x="369" y="551"/>
      <point x="456" y="470"/>
      <point x="456" y="402" type="qcurve" smooth="yes"/>
      <point x="456" y="370"/>
      <point x="443" y="296"/>
      <point x="432" y="266" type="qcurve"/>
      <point x="406" y="254"/>
      <point x="330" y="243"/>
      <point x="274" y="243" type="qcurve" smooth="yes"/>
      <point x="251" y="243"/>
      <point x="204" y="249"/>
      <point x="180" y="255" type="qcurve"/>
      <point x="179" y="239"/>
      <point x="178" y="223"/>
      <point x="178" y="216" type="qcurve" smooth="yes"/>
      <point x="178" y="148"/>
      <point x="219" y="70"/>
      <point x="255" y="70" type="qcurve" smooth="yes"/>
      <point x="283" y="70"/>
      <point x="342" y="140"/>
    </contour>
  </outline>
</glyph>
<glyph name="f" format="1">
  <advance width="435"/>
  <unicode hex="0066"/>
  <outline>
    <contour>
      <point x="225" y="369" type="qcurve"/>
      <point x="230" y="280"/>
      <point x="263" y="72"/>
      <point x="280" y="4" type="qcurve"/>
      <point x="249" y="-7"/>
      <point x="162" y="-21"/>
      <point x="125" y="-21" type="qcurve"/>
      <point x="112" y="38"/>
      <point x="87" y="286"/>
      <point x="86" y="385" type="qcurve"/>
      <point x="64" y="389"/>
      <point x="29" y="397"/>
      <point x="18" y="402" type="qcurve"/>
      <point x="18" y="419"/>
      <point x="28" y="467"/>
      <point x="34" y="473" type="qcurve"/>
      <point x="44" y="472"/>
      <point x="71" y="469"/>
      <point x="89" y="467" type="qcurve"/>
      <point x="99" y="595"/>
      <point x="195" y="727"/>
      <point x="279" y="727" type="qcurve" smooth="yes"/>
      <point x="344" y="727"/>
      <point x="420" y="652"/>
      <point x="420" y="591" type="qcurve" smooth="yes"/>
      <point x="420" y="576"/>
      <point x="414" y="547"/>
      <point x="409" y="536" type="qcurve"/>
      <point x="385" y="536"/>
      <point x="331" y="544"/>
      <point x="300" y="553" type="qcurve"/>
      <point x="303" y="562"/>
      <point x="307" y="583"/>
      <point x="307" y="594" type="qcurve" smooth="yes"/>
      <point x="307" y="616"/>
      <point x="292" y="639"/>
      <point x="277" y="639" type="qcurve" smooth="yes"/>
      <point x="251" y="639"/>
      <point x="224" y="548"/>
      <point x="223" y="460" type="qcurve"/>
      <point x="236" y="459"/>
      <point x="265" y="459"/>
      <point x="294" y="459" type="qcurve" smooth="yes"/>
      <point x="333" y="459"/>
      <point x="380" y="462"/>
      <point x="395" y="465" type="qcurve"/>
      <point x="395" y="445"/>
      <point x="389" y="392"/>
      <point x="385" y="374" type="qcurve"/>
      <point x="372" y="370"/>
      <point x="333" y="367"/>
      <point x="302" y="367" type="qcurve" smooth="yes"/>
      <point x="288" y="367"/>
      <point x="255" y="368"/>
    </contour>
  </outline>
</glyph>
<glyph name="g" format="1">
  <advance width="525"/>
  <unicode hex="0067"/>
  <outline>
    <contour>
      <point x="183" y="273" type="qcurve" smooth="yes"/>
      <point x="183" y="193"/>
      <point x="231" y="99"/>
      <point x="269" y="99" type="qcurve" smooth="yes"/>
      <point x="286" y="99"/>
      <point x="315" y="127"/>
      <point x="326" y="155" type="qcurve"/>
      <point x="325" y="225"/>
      <point x="309" y="376"/>
      <point x="296" y="436" type="qcurve"/>
      <point x="289" y="437"/>
      <point x="275" y="439"/>
      <point x="268" y="439" type="qcurve" smooth="yes"/>
      <point x="225" y="439"/>
      <point x="183" y="357"/>
    </contour>
    <contour>
      <point x="475" y="169" type="qcurve" smooth="yes"/>
      <point x="475" y="-34"/>
      <point x="346" y="-247"/>
      <point x="227" y="-247" type="qcurve" smooth="yes"/>
      <point x="146" y="-247"/>
      <point x="50" y="-158"/>
      <point x="44" y="-87" type="qcurve"/>
      <point x="69" y="-68"/>
      <point x="135" y="-42"/>
      <point x="169" y="-37" type="qcurve"/>
      <point x="178" y="-101"/>
      <point x="211" y="-158"/>
      <point x="239" y="-158" type="qcurve" smooth="yes"/>
      <point x="274" y="-158"/>
      <point x="316" y="-52"/>
      <point x="323" y="53" type="qcurve"/>
      <point x="304" y="28"/>
      <point x="256" y="4"/>
      <point x="227" y="4" type="qcurve" smooth="yes"/>
      <point x="140" y="4"/>
      <point x="35" y="137"/>
      <point x="35" y="247" type="qcurve" smooth="yes"/>
      <point x="35" y="384"/>
      <point x="166" y="531"/>
      <point x="289" y="531" type="qcurve" smooth="yes"/>
      <point x="322" y="531"/>
      <point x="404" y="516"/>
      <point x="439" y="504" type="qcurve"/>
      <point x="454" y="451"/>
      <point x="475" y="254"/>
    </contour>
  </outline>
</glyph>
<glyph name="h" format="1">
  <advance width="544"/>
  <unicode hex="0068"/>
  <outline>
    <contour>
      <point x="493" y="336" type="qcurve" smooth="yes"/>
      <point x="493" y="252"/>
      <point x="443" y="27"/>
      <point x="416" y="-32" type="qcurve"/>
      <point x="384" y="-31"/>
      <point x="318" y="-16"/>
      <point x="286" y="-3" type="qcurve"/>
      <point x="314" y="85"/>
      <point x="345" y="260"/>
      <point x="345" y="335" type="qcurve" smooth="yes"/>
      <point x="345" y="391"/>
      <point x="324" y="434"/>
      <point x="298" y="434" type="qcurve" smooth="yes"/>
      <point x="274" y="434"/>
      <point x="222" y="381"/>
      <point x="199" y="333" type="qcurve"/>
      <point x="198" y="288"/>
      <point x="197" y="237"/>
      <point x="197" y="215" type="qcurve" smooth="yes"/>
      <point x="197" y="182"/>
      <point x="201" y="89"/>
      <point x="205" y="42" type="qcurve"/>
      <point x="187" y="36"/>
      <point x="108" y="27"/>
      <point x="72" y="27" type="qcurve"/>
      <point x="64" y="133"/>
      <point x="55" y="356"/>
      <point x="55" y="454" type="qcurve" smooth="yes"/>
      <point x="55" y="525"/>
      <point x="62" y="683"/>
      <point x="67" y="734" type="qcurve"/>
      <point x="84" y="744"/>
      <point x="146" y="755"/>
      <point x="181" y="755" type="qcurve" smooth="yes"/>
      <point x="195" y="755"/>
      <point x="220" y="752"/>
      <point x="242" y="747" type="qcurve"/>
      <point x="230" y="685"/>
      <point x="211" y="535"/>
      <point x="205" y="452" type="qcurve"/>
      <point x="234" y="493"/>
      <point x="306" y="536"/>
      <point x="347" y="536" type="qcurve" smooth="yes"/>
      <point x="422" y="536"/>
      <point x="493" y="439"/>
    </contour>
  </outline>
</glyph>
<glyph name="j" format="1">
  <advance width="282"/>
  <unicode hex="006A"/>
  <outline>
    <contour>
      <point x="199" y="743" type="qcurve"/>
      <point x="193" y="725"/>
      <point x="178" y="658"/>
      <point x="170" y="613" type="qcurve"/>
      <point x="149" y="605"/>
      <point x="87" y="598"/>
      <point x="36" y="599" type="qcurve"/>
      <point x="29" y="623"/>
      <point x="22" y="662"/>
      <point x="22" y="679" type="qcurve" smooth="yes"/>
      <point x="21" y="696"/>
      <point x="25" y="726"/>
      <point x="29" y="739" type="qcurve"/>
      <point x="47" y="749"/>
      <point x="89" y="758"/>
      <point x="115" y="758" type="qcurve" smooth="yes"/>
      <point x="141" y="758"/>
      <point x="183" y="750"/>
    </contour>
    <contour>
      <point x="231" y="222" type="qcurve" smooth="yes"/>
      <point x="231" y="20"/>
      <point x="126" y="-195"/>
      <point x="26" y="-195" type="qcurve" smooth="yes"/>
      <point x="-23" y="-195"/>
      <point x="-102" y="-150"/>
      <point x="-130" y="-106" type="qcurve"/>
      <point x="-114" y="-75"/>
      <point x="-77" y="-33"/>
      <point x="-56" y="-24" type="qcurve"/>
      <point x="-40" y="-53"/>
      <point x="-7" y="-80"/>
      <point x="13" y="-80" type="qcurve" smooth="yes"/>
      <point x="49" y="-80"/>
      <point x="85" y="10"/>
      <point x="85" y="100" type="qcurve" smooth="yes"/>
      <point x="85" y="194"/>
      <point x="50" y="423"/>
      <point x="21" y="521" type="qcurve"/>
      <point x="58" y="532"/>
      <point x="155" y="542"/>
      <point x="196" y="538" type="qcurve"/>
      <point x="213" y="457"/>
      <point x="231" y="296"/>
    </contour>
  </outline>
</glyph>
<glyph name="k" format="1">
  <advance width="525"/>
  <unicode hex="006B"/>
  <outline>
    <contour>
      <point x="187" y="209" type="qcurve" smooth="yes"/>
      <point x="187" y="137"/>
      <point x="195" y="20"/>
      <point x="203" y="-36" type="qcurve"/>
      <point x="177" y="-45"/>
      <point x="116" y="-53"/>
      <point x="74" y="-53" type="qcurve"/>
      <point x="61" y="33"/>
      <point x="50" y="201"/>
      <point x="50" y="299" type="qcurve" smooth="yes"/>
      <point x="50" y="410"/>
      <point x="65" y="669"/>
      <point x="77" y="742" type="qcurve"/>
      <point x="112" y="743"/>
      <point x="215" y="728"/>
      <point x="239" y="717" type="qcurve"/>
      <point x="223" y="645"/>
      <point x="197" y="434"/>
      <point x="191" y="334" type="qcurve"/>
      <point x="236" y="377"/>
      <point x="324" y="485"/>
      <point x="389" y="577" type="qcurve"/>
      <point x="417" y="563"/>
      <point x="473" y="513"/>
      <point x="489" y="488" type="qcurve"/>
      <point x="446" y="432"/>
      <point x="346" y="333"/>
      <point x="276" y="279" type="qcurve"/>
      <point x="317" y="230"/>
      <point x="424" y="141"/>
      <point x="505" y="88" type="qcurve"/>
      <point x="470" y="44"/>
      <point x="418" y="2"/>
      <point x="390" y="-7" type="qcurve"/>
      <point x="334" y="40"/>
      <point x="238" y="145"/>
      <point x="189" y="216" type="qcurve"/>
      <point x="187" y="215" type="line"/>
      <point x="187" y="214"/>
      <point x="187" y="211"/>
    </contour>
  </outline>
</glyph>
<glyph name="l" format="1">
  <advance width="269"/>
  <unicode hex="006C"/>
  <outline>
    <contour>
      <point x="207" y="-46" type="qcurve"/>
      <point x="189" y="-52"/>
      <point x="110" y="-61"/>
      <point x="79" y="-61" type="qcurve"/>
      <point x="63" y="135"/>
      <point x="50" y="544"/>
      <point x="54" y="717" type="qcurve"/>
      <point x="72" y="728"/>
      <point x="122" y="742"/>
      <point x="149" y="742" type="qcurve" smooth="yes"/>
      <point x="168" y="742"/>
      <point x="204" y="737"/>
      <point x="223" y="732" type="qcurve"/>
      <point x="210" y="605"/>
      <point x="202" y="147"/>
    </contour>
  </outline>
</glyph>
<glyph name="m" format="1">
  <advance width="804"/>
  <unicode hex="006D"/>
  <outline>
    <contour>
      <point x="750" y="384" type="qcurve" smooth="yes"/>
      <point x="750" y="292"/>
      <point x="714" y="52"/>
      <point x="691" y="-34" type="qcurve"/>
      <point x="653" y="-34"/>
      <point x="578" y="-25"/>
      <point x="543" y="-17" type="qcurve"/>
      <point x="573" y="113"/>
      <point x="602" y="310"/>
      <point x="602" y="381" type="qcurve" smooth="yes"/>
      <point x="602" y="424"/>
      <point x="581" y="462"/>
      <point x="557" y="462" type="qcurve" smooth="yes"/>
      <point x="534" y="462"/>
      <point x="489" y="409"/>
      <point x="471" y="359" type="qcurve"/>
      <point x="472" y="355"/>
      <point x="472" y="345"/>
      <point x="472" y="334" type="qcurve" smooth="yes"/>
      <point x="472" y="257"/>
      <point x="446" y="60"/>
      <point x="432" y="10" type="qcurve"/>
      <point x="403" y="11"/>
      <point x="334" y="19"/>
      <point x="294" y="27" type="qcurve"/>
      <point x="312" y="131"/>
      <point x="329" y="273"/>
      <point x="329" y="324" type="qcurve" smooth="yes"/>
      <point x="329" y="367"/>
      <point x="308" y="405"/>
      <point x="284" y="405" type="qcurve" smooth="yes"/>
      <point x="260" y="405"/>
      <point x="212" y="351"/>
      <point x="195" y="304" type="qcurve"/>
      <point x="194" y="227"/>
      <point x="193" y="155"/>
      <point x="193" y="127" type="qcurve" smooth="yes"/>
      <point x="193" y="78"/>
      <point x="194" y="22"/>
      <point x="196" y="4" type="qcurve"/>
      <point x="174" y="-2"/>
      <point x="103" y="-10"/>
      <point x="72" y="-10" type="qcurve"/>
      <point x="57" y="131"/>
      <point x="37" y="437"/>
      <point x="37" y="535" type="qcurve"/>
      <point x="55" y="544"/>
      <point x="115" y="554"/>
      <point x="148" y="554" type="qcurve" smooth="yes"/>
      <point x="166" y="554"/>
      <point x="196" y="551"/>
      <point x="210" y="548" type="qcurve"/>
      <point x="208" y="530"/>
      <point x="203" y="475"/>
      <point x="200" y="427" type="qcurve"/>
      <point x="229" y="474"/>
      <point x="307" y="521"/>
      <point x="353" y="521" type="qcurve" smooth="yes"/>
      <point x="388" y="521"/>
      <point x="436" y="490"/>
      <point x="451" y="459" type="qcurve"/>
      <point x="483" y="518"/>
      <point x="571" y="578"/>
      <point x="625" y="578" type="qcurve" smooth="yes"/>
      <point x="688" y="578"/>
      <point x="750" y="482"/>
    </contour>
  </outline>
</glyph>
<glyph name="o" format="1">
  <advance width="510"/>
  <unicode hex="006F"/>
  <outline>
    <contour>
      <point x="27" y="236" type="qcurve" smooth="yes"/>
      <point x="27" y="373"/>
      <point x="172" y="546"/>
      <point x="287" y="546" type="qcurve" smooth="yes"/>
      <point x="376" y="546"/>
      <point x="477" y="433"/>
      <point x="477" y="333" type="qcurve" smooth="yes"/>
      <point x="477" y="187"/>
      <point x="337" y="-10"/>
      <point x="218" y="-10" type="qcurve" smooth="yes"/>
      <point x="128" y="-10"/>
      <point x="27" y="124"/>
    </contour>
    <contour>
      <point x="327" y="283" type="qcurve" smooth="yes"/>
      <point x="327" y="371"/>
      <point x="291" y="455"/>
      <point x="254" y="455" type="qcurve" smooth="yes"/>
      <point x="220" y="455"/>
      <point x="173" y="342"/>
      <point x="173" y="257" type="qcurve" smooth="yes"/>
      <point x="173" y="182"/>
      <point x="214" y="80"/>
      <point x="249" y="80" type="qcurve" smooth="yes"/>
      <point x="282" y="80"/>
      <point x="327" y="201"/>
    </contour>
  </outline>
</glyph>
<glyph name="t" format="1">
  <advance width="423"/>
  <unicode hex="0074"/>
  <outline>
    <contour>
      <point x="293" y="221" type="qcurve"/>
      <point x="320" y="219"/>
      <point x="375" y="198"/>
      <point x="396" y="182" type="qcurve"/>
      <point x="394" y="103"/>
      <point x="316" y="7"/>
      <point x="247" y="7" type="qcurve" smooth="yes"/>
      <point x="163" y="7"/>
      <point x="70" y="152"/>
      <point x="70" y="288" type="qcurve" smooth="yes"/>
      <point x="70" y="332"/>
      <point x="73" y="410"/>
      <point x="77" y="446" type="qcurve"/>
      <point x="58" y="448"/>
      <point x="21" y="455"/>
      <point x="5" y="460" type="qcurve"/>
      <point x="6" y="485"/>
      <point x="16" y="530"/>
      <point x="24" y="543" type="qcurve"/>
      <point x="36" y="539"/>
      <point x="69" y="533"/>
      <point x="88" y="531" type="qcurve"/>
      <point x="93" y="565"/>
      <point x="107" y="629"/>
      <point x="115" y="659" type="qcurve"/>
      <point x="157" y="659"/>
      <point x="241" y="648"/>
      <point x="271" y="638" type="qcurve"/>
      <point x="264" y="614"/>
      <point x="249" y="553"/>
      <point x="243" y="520" type="qcurve"/>
      <point x="288" y="519"/>
      <point x="363" y="522"/>
      <point x="393" y="525" type="qcurve"/>
      <point x="393" y="508"/>
      <point x="385" y="464"/>
      <point x="378" y="443" type="qcurve"/>
      <point x="349" y="438"/>
      <point x="272" y="434"/>
      <point x="229" y="435" type="qcurve"/>
      <point x="223" y="388"/>
      <point x="217" y="305"/>
      <point x="217" y="269" type="qcurve" smooth="yes"/>
      <point x="217" y="180"/>
      <point x="237" y="96"/>
      <point x="257" y="96" type="qcurve" smooth="yes"/>
      <point x="274" y="96"/>
      <point x="292" y="159"/>
    </contour>
  </outline>
</glyph>
<glyph name="u" format="1">
  <advance width="491"/>
  <unicode hex="0075"/>
  <outline>
    <contour>
      <point x="221" y="-10" type="qcurve" smooth="yes"/>
      <point x="129" y="-10"/>
      <point x="33" y="133"/>
      <point x="33" y="267" type="qcurve" smooth="yes"/>
      <point x="33" y="338"/>
      <point x="61" y="490"/>
      <point x="77" y="520" type="qcurve"/>
      <point x="95" y="524"/>
      <point x="129" y="529"/>
      <point x="145" y="529" type="qcurve" smooth="yes"/>
      <point x="167" y="529"/>
      <point x="200" y="523"/>
      <point x="209" y="518" type="qcurve"/>
      <point x="197" y="466"/>
      <point x="185" y="349"/>
      <point x="185" y="289" type="qcurve" smooth="yes"/>
      <point x="185" y="195"/>
      <point x="216" y="83"/>
      <point x="244" y="83" type="qcurve" smooth="yes"/>
      <point x="275" y="83"/>
      <point x="308" y="210"/>
      <point x="308" y="321" type="qcurve" smooth="yes"/>
      <point x="308" y="364"/>
      <point x="300" y="457"/>
      <point x="296" y="475" type="qcurve"/>
      <point x="325" y="487"/>
      <point x="409" y="502"/>
      <point x="448" y="502" type="qcurve"/>
      <point x="453" y="477"/>
      <point x="458" y="408"/>
      <point x="458" y="372" type="qcurve" smooth="yes"/>
      <point x="458" y="185"/>
      <point x="338" y="-10"/>
    </contour>
  </outline>
</glyph>
<glyph name="v" format="1">
  <advance width="490"/>
  <unicode hex="0076"/>
  <outline>
    <contour>
      <point x="479" y="516" type="qcurve"/>
      <point x="447" y="387"/>
      <point x="351" y="147"/>
      <point x="281" y="21" type="qcurve"/>
      <point x="264" y="14"/>
      <point x="207" y="8"/>
      <point x="154" y="8" type="qcurve"/>
      <point x="127" y="148"/>
      <point x="44" y="416"/>
      <point x="-13" y="544" type="qcurve"/>
      <point x="20" y="560"/>
      <point x="103" y="577"/>
      <point x="148" y="578" type="qcurve"/>
      <point x="175" y="502"/>
      <point x="223" y="299"/>
      <point x="246" y="158" type="qcurve"/>
      <point x="281" y="247"/>
      <point x="334" y="452"/>
      <point x="347" y="548" type="qcurve"/>
      <point x="380" y="546"/>
      <point x="448" y="529"/>
    </contour>
  </outline>
</glyph>
<glyph name="z" format="1">
  <advance width="505"/>
  <unicode hex="007A"/>
  <outline>
    <contour>
      <point x="442" y="90" type="qcurve"/>
      <point x="442" y="57"/>
      <point x="430" y="-8"/>
      <point x="418" y="-35" type="qcurve"/>
      <point x="302" y="-34"/>
      <point x="84" y="-3"/>
      <point x="11" y="23" type="qcurve"/>
      <point x="10" y="44"/>
      <point x="16" y="91"/>
      <point x="21" y="109" type="qcurve"/>
      <point x="93" y="200"/>
      <point x="244" y="358"/>
      <point x="324" y="427" type="qcurve"/>
      <point x="273" y="432"/>
      <point x="144" y="435"/>
      <point x="55" y="433" type="qcurve"/>
      <point x="56" y="471"/>
      <point x="69" y="527"/>
      <point x="84" y="556" type="qcurve"/>
      <point x="200" y="551"/>
      <point x="389" y="518"/>
      <point x="477" y="488" type="qcurve"/>
      <point x="474" y="460"/>
      <point x="462" y="411"/>
      <point x="454" y="393" type="qcurve"/>
      <point x="343" y="288"/>
      <point x="206" y="140"/>
      <point x="159" y="76" type="qcurve"/>
      <point x="254" y="73"/>
      <point x="375" y="80"/>
    </contour>
  </outline>
</glyph>
<glyph name="braceleft" format="1">
  <advance width="331"/>
  <unicode hex="007B"/>
  <outline>
    <contour>
      <point x="314" y="-156" type="qcurve"/>
      <point x="292" y="-165"/>
      <point x="249" y="-173"/>
      <point x="218" y="-173" type="qcurve" smooth="yes"/>
      <point x="154" y="-173"/>
      <point x="70" y="-92"/>
      <point x="70" y="-29" type="qcurve" smooth="yes"/>
      <point x="70" y="12"/>
      <point x="94" y="79"/>
      <point x="124" y="120" type="qcurve" smooth="yes"/>
      <point x="148" y="155"/>
      <point x="167" y="199"/>
      <point x="167" y="218" type="qcurve" smooth="yes"/>
      <point x="167" y="242"/>
      <point x="134" y="271"/>
      <point x="106" y="271" type="qcurve" smooth="yes"/>
      <point x="92" y="271"/>
      <point x="66" y="268"/>
      <point x="48" y="263" type="qcurve"/>
      <point x="41" y="289"/>
      <point x="39" y="353"/>
      <point x="44" y="380" type="qcurve"/>
      <point x="58" y="377"/>
      <point x="88" y="374"/>
      <point x="102" y="374" type="qcurve" smooth="yes"/>
      <point x="130" y="374"/>
      <point x="162" y="404"/>
      <point x="162" y="429" type="qcurve" smooth="yes"/>
      <point x="162" y="447"/>
      <point x="144" y="486"/>
      <point x="118" y="523" type="qcurve" smooth="yes"/>
      <point x="83" y="568"/>
      <point x="58" y="633"/>
      <point x="58" y="671" type="qcurve" smooth="yes"/>
      <point x="58" y="737"/>
      <point x="141" y="819"/>
      <point x="206" y="819" type="qcurve" smooth="yes"/>
      <point x="230" y="819"/>
      <point x="277" y="811"/>
      <point x="298" y="803" type="qcurve"/>
      <point x="301" y="788"/>
      <point x="295" y="744"/>
      <point x="286" y="721" type="qcurve"/>
      <point x="274" y="727"/>
      <point x="256" y="732"/>
      <point x="244" y="732" type="qcurve" smooth="yes"/>
      <point x="215" y="732"/>
      <point x="181" y="693"/>
      <point x="181" y="660" type="qcurve" smooth="yes"/>
      <point x="181" y="639"/>
      <point x="197" y="598"/>
      <point x="223" y="559" type="qcurve" smooth="yes"/>
      <point x="253" y="513"/>
      <point x="273" y="457"/>
      <point x="273" y="427" type="qcurve" smooth="yes"/>
      <point x="273" y="395"/>
      <point x="232" y="339"/>
      <point x="199" y="325" type="qcurve"/>
      <point x="234" y="312"/>
      <point x="276" y="256"/>
      <point x="276" y="223" type="qcurve" smooth="yes"/>
      <point x="276" y="194"/>
      <point x="259" y="143"/>
      <point x="233" y="101" type="qcurve" smooth="yes"/>
      <point x="207" y="62"/>
      <point x="192" y="15"/>
      <point x="192" y="-11" type="qcurve" smooth="yes"/>
      <point x="192" y="-45"/>
      <point x="225" y="-83"/>
      <point x="254" y="-83" type="qcurve" smooth="yes"/>
      <point x="266" y="-83"/>
      <point x="286" y="-79"/>
      <point x="299" y="-74" type="qcurve"/>
      <point x="308" y="-97"/>
      <point x="316" y="-141"/>
    </contour>
  </outline>
</glyph>
<glyph name="exclamdown" format="1">
  <advance width="280"/>
  <unicode hex="00A1"/>
  <outline>
    <contour>
      <point x="124" y="564" type="qcurve" smooth="yes"/>
      <point x="144" y="564"/>
      <point x="184" y="557"/>
      <point x="198" y="551" type="qcurve"/>
      <point x="200" y="515"/>
      <point x="200" y="452"/>
      <point x="198" y="423" type="qcurve"/>
      <point x="174" y="423"/>
      <point x="129" y="423"/>
      <point x="64" y="426" type="qcurve"/>
      <point x="60" y="496"/>
      <point x="57" y="537"/>
      <point x="55" y="557" type="qcurve"/>
      <point x="71" y="561"/>
      <point x="102" y="564"/>
    </contour>
    <contour>
      <point x="194" y="311" type="qcurve"/>
      <point x="204" y="206"/>
      <point x="213" y="12"/>
      <point x="213" y="-110" type="qcurve" smooth="yes"/>
      <point x="213" y="-121"/>
      <point x="212" y="-150"/>
      <point x="211" y="-168" type="qcurve"/>
      <point x="186" y="-180"/>
      <point x="138" y="-192"/>
      <point x="112" y="-192" type="qcurve" smooth="yes"/>
      <point x="95" y="-192"/>
      <point x="64" y="-187"/>
      <point x="48" y="-182" type="qcurve"/>
      <point x="65" y="-75"/>
      <point x="83" y="201"/>
      <point x="80" y="315" type="qcurve"/>
      <point x="87" y="317"/>
      <point x="107" y="319"/>
      <point x="122" y="319" type="qcurve" smooth="yes"/>
      <point x="140" y="319"/>
      <point x="177" y="315"/>
    </contour>
  </outline>
</glyph>
<glyph name="section" format="1">
  <advance width="439"/>
  <unicode hex="00A7"/>
  <outline>
    <contour>
      <point x="208" y="333" type="qcurve"/>
      <point x="181" y="325"/>
      <point x="154" y="288"/>
      <point x="154" y="261" type="qcurve" smooth="yes"/>
      <point x="154" y="237"/>
      <point x="190" y="192"/>
      <point x="236" y="162" type="qcurve"/>
      <point x="261" y="170"/>
      <point x="288" y="206"/>
      <point x="288" y="233" type="qcurve" smooth="yes"/>
      <point x="288" y="259"/>
      <point x="255" y="302"/>
    </contour>
    <contour>
      <point x="395" y="-37" type="qcurve" smooth="yes"/>
      <point x="395" y="-104"/>
      <point x="292" y="-192"/>
      <point x="211" y="-192" type="qcurve" smooth="yes"/>
      <point x="137" y="-192"/>
      <point x="45" y="-117"/>
      <point x="25" y="-39" type="qcurve"/>
      <point x="43" y="-27"/>
      <point x="98" y="-8"/>
      <point x="122" y="-7" type="qcurve"/>
      <point x="133" y="-62"/>
      <point x="179" y="-120"/>
      <point x="212" y="-120" type="qcurve" smooth="yes"/>
      <point x="237" y="-120"/>
      <point x="267" y="-86"/>
      <point x="267" y="-58" type="qcurve" smooth="yes"/>
      <point x="267" y="-27"/>
      <point x="220" y="29"/>
      <point x="165" y="62" type="qcurve" smooth="yes"/>
      <point x="93" y="106"/>
      <point x="36" y="186"/>
      <point x="36" y="234" type="qcurve" smooth="yes"/>
      <point x="36" y="281"/>
      <point x="92" y="356"/>
      <point x="141" y="377" type="qcurve"/>
      <point x="99" y="409"/>
      <point x="60" y="481"/>
      <point x="60" y="525" type="qcurve" smooth="yes"/>
      <point x="60" y="593"/>
      <point x="162" y="682"/>
      <point x="242" y="682" type="qcurve" smooth="yes"/>
      <point x="316" y="682"/>
      <point x="405" y="611"/>
      <point x="421" y="538" type="qcurve"/>
      <point x="402" y="527"/>
      <point x="355" y="516"/>
      <point x="319" y="513" type="qcurve"/>
      <point x="311" y="563"/>
      <point x="276" y="609"/>
      <point x="245" y="609" type="qcurve" smooth="yes"/>
      <point x="218" y="609"/>
      <point x="188" y="576"/>
      <point x="188" y="546" type="qcurve" smooth="yes"/>
      <point x="188" y="515"/>
      <point x="234" y="459"/>
      <point x="286" y="427" type="qcurve" smooth="yes"/>
      <point x="355" y="386"/>
      <point x="407" y="310"/>
      <point x="407" y="260" type="qcurve" smooth="yes"/>
      <point x="407" y="213"/>
      <point x="352" y="139"/>
      <point x="303" y="118" type="qcurve"/>
      <point x="351" y="83"/>
      <point x="395" y="9"/>
    </contour>
  </outline>
</glyph>
<glyph name="logicalnot" format="1">
  <advance width="444"/>
  <unicode hex="00AC"/>
  <outline>
    <contour>
      <point x="413" y="401" type="qcurve"/>
      <point x="418" y="347"/>
      <point x="413" y="222"/>
      <point x="404" y="160" type="qcurve"/>
      <point x="379" y="160"/>
      <point x="336" y="163"/>
      <point x="310" y="167" type="qcurve"/>
      <point x="315" y="199"/>
      <point x="320" y="264"/>
      <point x="321" y="301" type="qcurve"/>
      <point x="249" y="295"/>
      <point x="94" y="300"/>
      <point x="27" y="309" type="qcurve"/>
      <point x="27" y="334"/>
      <point x="30" y="377"/>
      <point x="34" y="402" type="qcurve"/>
      <point x="122" y="391"/>
      <point x="307" y="390"/>
    </contour>
  </outline>
</glyph>
<glyph name="registered" format="1">
  <advance width="823"/>
  <unicode hex="00AE"/>
  <outline>
    <contour>
      <point x="435" y="704" type="qcurve" smooth="yes"/>
      <point x="598" y="704"/>
      <point x="791" y="494"/>
      <point x="791" y="328" type="qcurve" smooth="yes"/>
      <point x="791" y="144"/>
      <point x="586" y="-66"/>
      <point x="405" y="-66" type="qcurve" smooth="yes"/>
      <point x="235" y="-66"/>
      <point x="32" y="135"/>
      <point x="32" y="305" type="qcurve" smooth="yes"/>
      <point x="32" y="476"/>
      <point x="261" y="704"/>
    </contour>
    <contour>
      <point x="136" y="312" type="qcurve" smooth="yes"/>
      <point x="136" y="175"/>
      <point x="284" y="17"/>
      <point x="413" y="17" type="qcurve" smooth="yes"/>
      <point x="541" y="17"/>
      <point x="686" y="183"/>
      <point x="686" y="330" type="qcurve" smooth="yes"/>
      <point x="686" y="465"/>
      <point x="546" y="620"/>
      <point x="423" y="620" type="qcurve" smooth="yes"/>
      <point x="300" y="620"/>
      <point x="136" y="445"/>
    </contour>
    <contour>
      <point x="595" y="143" type="qcurve"/>
      <point x="577" y="126"/>
      <point x="525" y="99"/>
      <point x="492" y="89" type="qcurve"/>
      <point x="458" y="168"/>
      <point x="419" y="243"/>
      <point x="397" y="274" type="qcurve"/>
      <point x="395" y="274"/>
      <point x="386" y="271"/>
      <point x="383" y="270" type="qcurve"/>
      <point x="382" y="237"/>
      <point x="377" y="162"/>
      <point x="373" y="116" type="qcurve"/>
      <point x="351" y="115"/>
      <point x="299" y="119"/>
      <point x="276" y="123" type="qcurve"/>
      <point x="276" y="129"/>
      <point x="276" y="143"/>
      <point x="277" y="156" type="qcurve" smooth="yes"/>
      <point x="277" y="169"/>
      <point x="277" y="183"/>
      <point x="277" y="188" type="qcurve" smooth="yes"/>
      <point x="277" y="259"/>
      <point x="267" y="411"/>
      <point x="257" y="502" type="qcurve"/>
      <point x="288" y="524"/>
      <point x="368" y="550"/>
      <point x="409" y="550" type="qcurve" smooth="yes"/>
      <point x="481" y="550"/>
      <point x="568" y="484"/>
      <point x="568" y="431" type="qcurve" smooth="yes"/>
      <point x="568" y="397"/>
      <point x="525" y="336"/>
      <point x="484" y="312" type="qcurve"/>
      <point x="514" y="279"/>
      <point x="569" y="196"/>
    </contour>
    <contour>
      <point x="380" y="486" type="qcurve"/>
      <point x="382" y="430"/>
      <point x="384" y="367"/>
      <point x="384" y="340" type="qcurve" smooth="yes"/>
      <point x="384" y="338"/>
      <point x="384" y="333"/>
      <point x="384" y="330" type="qcurve"/>
      <point x="419" y="339"/>
      <point x="455" y="385"/>
      <point x="455" y="421" type="qcurve" smooth="yes"/>
      <point x="455" y="452"/>
      <point x="425" y="488"/>
      <point x="399" y="488" type="qcurve" smooth="yes"/>
      <point x="396" y="488"/>
      <point x="390" y="487"/>
    </contour>
  </outline>
</glyph>
<glyph name="plusminus" format="1">
  <advance width="445"/>
  <unicode hex="00B1"/>
  <outline>
    <contour>
      <point x="276" y="321" type="qcurve"/>
      <point x="275" y="287"/>
      <point x="270" y="217"/>
      <point x="265" y="182" type="qcurve"/>
      <point x="241" y="179"/>
      <point x="195" y="178"/>
      <point x="172" y="180" type="qcurve"/>
      <point x="175" y="212"/>
      <point x="180" y="281"/>
      <point x="182" y="321" type="qcurve"/>
      <point x="141" y="322"/>
      <point x="66" y="328"/>
      <point x="34" y="333" type="qcurve"/>
      <point x="34" y="358"/>
      <point x="37" y="401"/>
      <point x="41" y="426" type="qcurve"/>
      <point x="71" y="422"/>
      <point x="138" y="417"/>
      <point x="182" y="415" type="qcurve"/>
      <point x="180" y="453"/>
      <point x="175" y="519"/>
      <point x="172" y="550" type="qcurve"/>
      <point x="195" y="553"/>
      <point x="238" y="556"/>
      <point x="265" y="555" type="qcurve"/>
      <point x="270" y="522"/>
      <point x="275" y="451"/>
      <point x="276" y="415" type="qcurve"/>
      <point x="316" y="417"/>
      <point x="387" y="422"/>
      <point x="420" y="425" type="qcurve"/>
      <point x="420" y="401"/>
      <point x="414" y="355"/>
      <point x="408" y="333" type="qcurve"/>
      <point x="378" y="329"/>
      <point x="311" y="323"/>
    </contour>
    <contour>
      <point x="21" y="59" type="qcurve"/>
      <point x="21" y="84"/>
      <point x="24" y="127"/>
      <point x="28" y="152" type="qcurve"/>
      <point x="116" y="141"/>
      <point x="301" y="140"/>
      <point x="407" y="151" type="qcurve"/>
      <point x="407" y="127"/>
      <point x="401" y="81"/>
      <point x="395" y="59" type="qcurve"/>
      <point x="312" y="47"/>
      <point x="107" y="47"/>
    </contour>
  </outline>
</glyph>
<glyph name="twosuperior" format="1">
  <advance width="348"/>
  <unicode hex="00B2"/>
  <outline>
    <contour>
      <point x="322" y="373" type="qcurve"/>
      <point x="321" y="345"/>
      <point x="312" y="296"/>
      <point x="303" y="277" type="qcurve"/>
      <point x="226" y="278"/>
      <point x="57" y="299"/>
      <point x="5" y="315" type="qcurve"/>
      <point x="4" y="333"/>
      <point x="8" y="358"/>
      <point x="13" y="373" type="qcurve"/>
      <point x="118" y="440"/>
      <point x="213" y="545"/>
      <point x="213" y="595" type="qcurve" smooth="yes"/>
      <point x="213" y="617"/>
      <point x="195" y="643"/>
      <point x="180" y="643" type="qcurve" smooth="yes"/>
      <point x="161" y="643"/>
      <point x="137" y="603"/>
      <point x="127" y="556" type="qcurve"/>
      <point x="91" y="556"/>
      <point x="37" y="566"/>
      <point x="15" y="576" type="qcurve"/>
      <point x="33" y="642"/>
      <point x="118" y="707"/>
      <point x="186" y="707" type="qcurve" smooth="yes"/>
      <point x="253" y="707"/>
      <point x="337" y="637"/>
      <point x="337" y="581" type="qcurve" smooth="yes"/>
      <point x="337" y="529"/>
      <point x="248" y="420"/>
      <point x="165" y="371" type="qcurve"/>
      <point x="221" y="370"/>
      <point x="290" y="371"/>
    </contour>
  </outline>
</glyph>
<glyph name="acute" format="1">
  <advance width="260"/>
  <unicode hex="00B4"/>
  <outline>
    <contour>
      <point x="206" y="737" type="qcurve"/>
      <point x="200" y="696"/>
      <point x="166" y="615"/>
      <point x="137" y="571" type="qcurve"/>
      <point x="111" y="571"/>
      <point x="69" y="576"/>
      <point x="49" y="582" type="qcurve"/>
      <point x="64" y="625"/>
      <point x="81" y="708"/>
      <point x="83" y="747" type="qcurve"/>
      <point x="113" y="752"/>
      <point x="181" y="747"/>
    </contour>
    <contour>
      <point x="88" y="560" type="move" name="_top"/>
    </contour>
  </outline>
</glyph>
<glyph name="cedilla" format="1">
  <advance width="261"/>
  <unicode hex="00B8"/>
  <outline>
    <contour>
      <point x="247" y="-126" type="qcurve" smooth="yes"/>
      <point x="247" y="-172"/>
      <point x="178" y="-228"/>
      <point x="121" y="-228" type="qcurve" smooth="yes"/>
      <point x="81" y="-228"/>
      <point x="23" y="-191"/>
      <point x="10" y="-156" type="qcurve"/>
      <point x="24" y="-147"/>
      <point x="50" y="-133"/>
      <point x="66" y="-126" type="qcurve"/>
      <point x="73" y="-147"/>
      <point x="101" y="-172"/>
      <point x="119" y="-172" type="qcurve" smooth="yes"/>
      <point x="136" y="-172"/>
      <point x="157" y="-152"/>
      <point x="157" y="-135" type="qcurve" smooth="yes"/>
      <point x="157" y="-119"/>
      <point x="137" y="-100"/>
      <point x="120" y="-100" type="qcurve" smooth="yes"/>
      <point x="111" y="-100"/>
      <point x="94" y="-104"/>
      <point x="85" y="-109" type="qcurve"/>
      <point x="77" y="-102"/>
      <point x="64" y="-90"/>
      <point x="61" y="-85" type="qcurve"/>
      <point x="74" y="-64"/>
      <point x="89" y="-12"/>
      <point x="90" y="12" type="qcurve"/>
      <point x="143" y="0" type="line"/>
      <point x="142" y="-10"/>
      <point x="137" y="-34"/>
      <point x="132" y="-49" type="qcurve"/>
      <point x="138" y="-48"/>
      <point x="152" y="-46"/>
      <point x="159" y="-46" type="qcurve" smooth="yes"/>
      <point x="198" y="-46"/>
      <point x="247" y="-90"/>
    </contour>
    <contour>
      <point x="114" y="0" type="move" name="_bottom"/>
    </contour>
  </outline>
</glyph>
<glyph name="onesuperior" format="1">
  <advance width="310"/>
  <unicode hex="00B9"/>
  <outline>
    <contour>
      <point x="217" y="280" type="qcurve"/>
      <point x="201" y="275"/>
      <point x="170" y="270"/>
      <point x="153" y="270" type="qcurve" smooth="yes"/>
      <point x="140" y="270"/>
      <point x="124" y="272"/>
      <point x="116" y="274" type="qcurve"/>
      <point x="117" y="289"/>
      <point x="119" y="314"/>
      <point x="120" y="330" type="qcurve" smooth="yes"/>
      <point x="123" y="395"/>
      <point x="136" y="526"/>
      <point x="145" y="580" type="qcurve"/>
      <point x="126" y="568"/>
      <point x="91" y="546"/>
      <point x="74" y="536" type="qcurve"/>
      <point x="52" y="552"/>
      <point x="23" y="590"/>
      <point x="12" y="617" type="qcurve"/>
      <point x="71" y="643"/>
      <point x="179" y="704"/>
      <point x="227" y="738" type="qcurve"/>
      <point x="250" y="730"/>
      <point x="285" y="709"/>
      <point x="298" y="694" type="qcurve"/>
      <point x="274" y="634"/>
      <point x="227" y="396"/>
    </contour>
  </outline>
</glyph>
<glyph name="ordmasculine" format="1">
  <advance width="314"/>
  <unicode hex="00BA"/>
  <outline>
    <contour>
      <point x="14" y="538" type="qcurve" smooth="yes"/>
      <point x="14" y="616"/>
      <point x="108" y="716"/>
      <point x="182" y="716" type="qcurve" smooth="yes"/>
      <point x="239" y="716"/>
      <point x="300" y="655"/>
      <point x="300" y="598" type="qcurve" smooth="yes"/>
      <point x="300" y="517"/>
      <point x="209" y="402"/>
      <point x="131" y="402" type="qcurve" smooth="yes"/>
      <point x="76" y="402"/>
      <point x="14" y="476"/>
    </contour>
    <contour>
      <point x="187" y="567" type="qcurve" smooth="yes"/>
      <point x="187" y="611"/>
      <point x="173" y="653"/>
      <point x="158" y="653" type="qcurve" smooth="yes"/>
      <point x="143" y="653"/>
      <point x="125" y="598"/>
      <point x="125" y="553" type="qcurve" smooth="yes"/>
      <point x="125" y="516"/>
      <point x="142" y="465"/>
      <point x="156" y="465" type="qcurve" smooth="yes"/>
      <point x="171" y="465"/>
      <point x="187" y="522"/>
    </contour>
  </outline>
</glyph>
<glyph name="AE" format="1">
  <advance width="874"/>
  <unicode hex="00C6"/>
  <outline>
    <contour>
      <point x="840" y="-12" type="qcurve"/>
      <point x="784" y="-23"/>
      <point x="530" y="-42"/>
      <point x="431" y="-43" type="qcurve"/>
      <point x="425" y="4"/>
      <point x="412" y="108"/>
      <point x="407" y="164" type="qcurve"/>
      <point x="353" y="163"/>
      <point x="258" y="156"/>
      <point x="215" y="150" type="qcurve"/>
      <point x="197" y="111"/>
      <point x="156" y="27"/>
      <point x="126" y="-29" type="qcurve"/>
      <point x="88" y="-22"/>
      <point x="23" y="13"/>
      <point x="3" y="37" type="qcurve"/>
      <point x="90" y="188"/>
      <point x="209" y="486"/>
      <point x="268" y="705" type="qcurve"/>
      <point x="294" y="705"/>
      <point x="355" y="697"/>
      <point x="396" y="687" type="qcurve"/>
      <point x="534" y="713"/>
      <point x="719" y="732"/>
      <point x="815" y="733" type="qcurve"/>
      <point x="816" y="705"/>
      <point x="809" y="644"/>
      <point x="802" y="609" type="qcurve"/>
      <point x="731" y="609"/>
      <point x="598" y="603"/>
      <point x="535" y="596" type="qcurve"/>
      <point x="533" y="550"/>
      <point x="532" y="454"/>
      <point x="533" y="405" type="qcurve"/>
      <point x="596" y="420"/>
      <point x="704" y="436"/>
      <point x="759" y="438" type="qcurve"/>
      <point x="766" y="410"/>
      <point x="772" y="353"/>
      <point x="771" y="319" type="qcurve"/>
      <point x="705" y="317"/>
      <point x="592" y="307"/>
      <point x="537" y="299" type="qcurve"/>
      <point x="539" y="243"/>
      <point x="548" y="128"/>
      <point x="555" y="73" type="qcurve"/>
      <point x="605" y="74"/>
      <point x="771" y="93"/>
      <point x="826" y="105" type="qcurve"/>
      <point x="832" y="88"/>
      <point x="840" y="18"/>
    </contour>
    <contour>
      <point x="376" y="578" type="qcurve"/>
      <point x="353" y="499"/>
      <point x="295" y="338"/>
      <point x="261" y="256" type="qcurve"/>
      <point x="295" y="261"/>
      <point x="363" y="267"/>
      <point x="397" y="268" type="qcurve"/>
      <point x="389" y="367"/>
      <point x="379" y="517"/>
    </contour>
  </outline>
</glyph>
<glyph name="Eth" format="1">
  <advance width="609"/>
  <unicode hex="00D0"/>
  <outline>
    <contour>
      <point x="201" y="332" type="qcurve"/>
      <point x="200" y="310"/>
      <point x="200" y="259"/>
      <point x="200" y="206" type="qcurve" smooth="yes"/>
      <point x="200" y="185"/>
      <point x="201" y="139"/>
      <point x="202" y="100" type="qcurve"/>
      <point x="311" y="147"/>
      <point x="426" y="323"/>
      <point x="426" y="442" type="qcurve" smooth="yes"/>
      <point x="426" y="527"/>
      <point x="339" y="623"/>
      <point x="260" y="623" type="qcurve" smooth="yes"/>
      <point x="249" y="623"/>
      <point x="226" y="620"/>
      <point x="215" y="617" type="qcurve"/>
      <point x="210" y="561"/>
      <point x="204" y="460"/>
      <point x="203" y="412" type="qcurve"/>
      <point x="230" y="414"/>
      <point x="284" y="418"/>
      <point x="310" y="421" type="qcurve"/>
      <point x="311" y="393"/>
      <point x="311" y="359"/>
      <point x="309" y="344" type="qcurve"/>
      <point x="282" y="340"/>
      <point x="228" y="334"/>
    </contour>
    <contour>
      <point x="581" y="442" type="qcurve" smooth="yes"/>
      <point x="581" y="297"/>
      <point x="368" y="39"/>
      <point x="206" y="-10" type="qcurve"/>
      <point x="181" y="-10"/>
      <point x="104" y="-4"/>
      <point x="78" y="0" type="qcurve"/>
      <point x="71" y="86"/>
      <point x="60" y="251"/>
      <point x="57" y="329" type="qcurve"/>
      <point x="41" y="330"/>
      <point x="7" y="332"/>
      <point x="-22" y="334" type="qcurve"/>
      <point x="-24" y="355"/>
      <point x="-23" y="401"/>
      <point x="-20" y="413" type="qcurve"/>
      <point x="-16" y="413"/>
      <point x="-5" y="412"/>
      <point x="5" y="412" type="qcurve" smooth="yes"/>
      <point x="26" y="411"/>
      <point x="46" y="410"/>
      <point x="54" y="410" type="qcurve"/>
      <point x="53" y="427"/>
      <point x="53" y="468"/>
      <point x="53" y="508" type="qcurve" smooth="yes"/>
      <point x="53" y="547"/>
      <point x="55" y="628"/>
      <point x="56" y="665" type="qcurve"/>
      <point x="113" y="692"/>
      <point x="217" y="717"/>
      <point x="271" y="717" type="qcurve" smooth="yes"/>
      <point x="423" y="717"/>
      <point x="581" y="576"/>
    </contour>
  </outline>
</glyph>
<glyph name="multiply" format="1">
  <advance width="445"/>
  <unicode hex="00D7"/>
  <outline>
    <contour>
      <point x="396" y="217" type="qcurve"/>
      <point x="382" y="200"/>
      <point x="350" y="167"/>
      <point x="331" y="151" type="qcurve"/>
      <point x="308" y="180"/>
      <point x="259" y="236"/>
      <point x="234" y="263" type="qcurve"/>
      <point x="204" y="233"/>
      <point x="143" y="176"/>
      <point x="114" y="152" type="qcurve"/>
      <point x="96" y="169"/>
      <point x="67" y="201"/>
      <point x="52" y="221" type="qcurve"/>
      <point x="79" y="245"/>
      <point x="137" y="299"/>
      <point x="168" y="330" type="qcurve"/>
      <point x="136" y="360"/>
      <point x="79" y="409"/>
      <point x="52" y="431" type="qcurve"/>
      <point x="66" y="449"/>
      <point x="96" y="481"/>
      <point x="115" y="499" type="qcurve"/>
      <point x="140" y="481"/>
      <point x="200" y="430"/>
      <point x="234" y="397" type="qcurve"/>
      <point x="259" y="424"/>
      <point x="309" y="478"/>
      <point x="334" y="506" type="qcurve"/>
      <point x="352" y="488"/>
      <point x="381" y="452"/>
      <point x="392" y="432" type="qcurve"/>
      <point x="374" y="411"/>
      <point x="329" y="360"/>
      <point x="300" y="330" type="qcurve"/>
      <point x="324" y="306"/>
      <point x="371" y="250"/>
    </contour>
  </outline>
</glyph>
<glyph name="Oslash" format="1">
  <advance width="623"/>
  <unicode hex="00D8"/>
  <outline>
    <contour>
      <point x="317" y="631" type="qcurve" smooth="yes"/>
      <point x="258" y="631"/>
      <point x="188" y="479"/>
      <point x="188" y="351" type="qcurve" smooth="yes"/>
      <point x="188" y="322"/>
      <point x="193" y="263"/>
      <point x="197" y="235" type="qcurve"/>
      <point x="241" y="314"/>
      <point x="334" y="492"/>
      <point x="388" y="600" type="qcurve"/>
      <point x="375" y="615"/>
      <point x="339" y="631"/>
    </contour>
    <contour>
      <point x="244" y="109" type="qcurve"/>
      <point x="257" y="94"/>
      <point x="286" y="80"/>
      <point x="303" y="80" type="qcurve" smooth="yes"/>
      <point x="365" y="80"/>
      <point x="432" y="238"/>
      <point x="432" y="377" type="qcurve" smooth="yes"/>
      <point x="432" y="391"/>
      <point x="431" y="422"/>
      <point x="430" y="446" type="qcurve"/>
      <point x="388" y="365"/>
      <point x="296" y="199"/>
    </contour>
    <contour>
      <point x="517" y="129" type="qcurve" smooth="yes"/>
      <point x="475" y="55"/>
      <point x="352" y="-20"/>
      <point x="274" y="-20" type="qcurve" smooth="yes"/>
      <point x="248" y="-20"/>
      <point x="202" y="-10"/>
      <point x="181" y="0" type="qcurve"/>
      <point x="176" y="-8"/>
      <point x="165" y="-28"/>
      <point x="153" y="-48" type="qcurve" smooth="yes"/>
      <point x="144" y="-63"/>
      <point x="136" y="-78"/>
      <point x="132" y="-84" type="qcurve"/>
      <point x="99" y="-73"/>
      <point x="59" y="-50"/>
      <point x="40" y="-31" type="qcurve"/>
      <point x="57" y="-4"/>
      <point x="87" y="46"/>
      <point x="101" y="70" type="qcurve"/>
      <point x="68" y="117"/>
      <point x="33" y="250"/>
      <point x="33" y="329" type="qcurve" smooth="yes"/>
      <point x="33" y="507"/>
      <point x="208" y="733"/>
      <point x="348" y="733" type="qcurve" smooth="yes"/>
      <point x="375" y="733"/>
      <point x="422" y="724"/>
      <point x="444" y="715" type="qcurve"/>
      <point x="450" y="728"/>
      <point x="465" y="760"/>
      <point x="480" y="792" type="qcurve"/>
      <point x="504" y="785"/>
      <point x="555" y="754"/>
      <point x="574" y="734" type="qcurve"/>
      <point x="570" y="726"/>
      <point x="561" y="708"/>
      <point x="553" y="689" type="qcurve" smooth="yes"/>
      <point x="544" y="670"/>
      <point x="535" y="652"/>
      <point x="531" y="644" type="qcurve"/>
      <point x="559" y="604"/>
      <point x="588" y="488"/>
      <point x="588" y="416" type="qcurve" smooth="yes"/>
      <point x="588" y="340"/>
      <point x="551" y="187"/>
    </contour>
  </outline>
</glyph>
<glyph name="germandbls" format="1">
  <advance width="682"/>
  <unicode hex="00DF"/>
  <outline>
    <contour>
      <point x="658" y="133" type="qcurve" smooth="yes"/>
      <point x="658" y="52"/>
      <point x="561" y="-43"/>
      <point x="477" y="-43" type="qcurve" smooth="yes"/>
      <point x="399" y="-43"/>
      <point x="300" y="55"/>
      <point x="296" y="136" type="qcurve"/>
      <point x="315" y="145"/>
      <point x="375" y="156"/>
      <point x="398" y="155" type="qcurve"/>
      <point x="397" y="100"/>
      <point x="436" y="39"/>
      <point x="472" y="39" type="qcurve" smooth="yes"/>
      <point x="498" y="39"/>
      <point x="527" y="72"/>
      <point x="527" y="102" type="qcurve" smooth="yes"/>
      <point x="527" y="128"/>
      <point x="491" y="170"/>
      <point x="431" y="202" type="qcurve" smooth="yes"/>
      <point x="354" y="244"/>
      <point x="304" y="312"/>
      <point x="304" y="358" type="qcurve" smooth="yes"/>
      <point x="304" y="392"/>
      <point x="327" y="450"/>
      <point x="354" y="481" type="qcurve" smooth="yes"/>
      <point x="377" y="508"/>
      <point x="394" y="546"/>
      <point x="394" y="573" type="qcurve" smooth="yes"/>
      <point x="394" y="600"/>
      <point x="356" y="639"/>
      <point x="328" y="639" type="qcurve" smooth="yes"/>
      <point x="275" y="639"/>
      <point x="220" y="542"/>
      <point x="220" y="448" type="qcurve" smooth="yes"/>
      <point x="220" y="348"/>
      <point x="255" y="90"/>
      <point x="277" y="4" type="qcurve"/>
      <point x="247" y="-7"/>
      <point x="160" y="-21"/>
      <point x="122" y="-21" type="qcurve"/>
      <point x="109" y="38"/>
      <point x="84" y="286"/>
      <point x="83" y="384" type="qcurve"/>
      <point x="59" y="389"/>
      <point x="25" y="398"/>
      <point x="15" y="402" type="qcurve"/>
      <point x="15" y="418"/>
      <point x="26" y="467"/>
      <point x="31" y="473" type="qcurve"/>
      <point x="42" y="472"/>
      <point x="70" y="469"/>
      <point x="87" y="467" type="qcurve"/>
      <point x="100" y="593"/>
      <point x="223" y="727"/>
      <point x="323" y="727" type="qcurve" smooth="yes"/>
      <point x="391" y="727"/>
      <point x="483" y="649"/>
      <point x="483" y="594" type="qcurve" smooth="yes"/>
      <point x="483" y="571"/>
      <point x="468" y="531"/>
      <point x="451" y="510" type="qcurve" smooth="yes"/>
      <point x="430" y="482"/>
      <point x="416" y="445"/>
      <point x="416" y="422" type="qcurve" smooth="yes"/>
      <point x="416" y="393"/>
      <point x="456" y="343"/>
      <point x="523" y="303" type="qcurve" smooth="yes"/>
      <point x="605" y="253"/>
      <point x="658" y="179"/>
    </contour>
  </outline>
</glyph>
<glyph name="ae" format="1">
  <advance width="782"/>
  <unicode hex="00E6"/>
  <outline>
    <contour>
      <point x="474" y="309" type="qcurve"/>
      <point x="494" y="303"/>
      <point x="536" y="297"/>
      <point x="554" y="297" type="qcurve" smooth="yes"/>
      <point x="561" y="297"/>
      <point x="585" y="299"/>
      <point x="591" y="300" type="qcurve"/>
      <point x="598" y="328"/>
      <point x="605" y="371"/>
      <point x="605" y="389" type="qcurve" smooth="yes"/>
      <point x="605" y="420"/>
      <point x="587" y="447"/>
      <point x="567" y="447" type="qcurve" smooth="yes"/>
      <point x="539" y="447"/>
      <point x="489" y="372"/>
    </contour>
    <contour>
      <point x="637" y="160" type="qcurve"/>
      <point x="666" y="155"/>
      <point x="726" y="123"/>
      <point x="745" y="103" type="qcurve"/>
      <point x="728" y="48"/>
      <point x="597" y="-39"/>
      <point x="514" y="-39" type="qcurve" smooth="yes"/>
      <point x="466" y="-39"/>
      <point x="385" y="5"/>
      <point x="358" y="46" type="qcurve"/>
      <point x="321" y="13"/>
      <point x="240" y="-18"/>
      <point x="192" y="-18" type="qcurve" smooth="yes"/>
      <point x="116" y="-18"/>
      <point x="25" y="60"/>
      <point x="25" y="125" type="qcurve" smooth="yes"/>
      <point x="25" y="194"/>
      <point x="139" y="265"/>
      <point x="250" y="265" type="qcurve" smooth="yes"/>
      <point x="272" y="265"/>
      <point x="306" y="264"/>
      <point x="322" y="263" type="qcurve"/>
      <point x="323" y="276"/>
      <point x="322" y="312"/>
      <point x="322" y="315" type="qcurve" smooth="yes"/>
      <point x="320" y="384"/>
      <point x="291" y="446"/>
      <point x="259" y="446" type="qcurve" smooth="yes"/>
      <point x="226" y="446"/>
      <point x="180" y="375"/>
      <point x="179" y="319" type="qcurve"/>
      <point x="130" y="320"/>
      <point x="66" y="357"/>
      <point x="52" y="390" type="qcurve"/>
      <point x="68" y="448"/>
      <point x="195" y="529"/>
      <point x="273" y="529" type="qcurve" smooth="yes"/>
      <point x="322" y="529"/>
      <point x="393" y="488"/>
      <point x="415" y="447" type="qcurve"/>
      <point x="452" y="487"/>
      <point x="538" y="528"/>
      <point x="584" y="528" type="qcurve" smooth="yes"/>
      <point x="653" y="528"/>
      <point x="738" y="445"/>
      <point x="738" y="379" type="qcurve" smooth="yes"/>
      <point x="738" y="346"/>
      <point x="725" y="271"/>
      <point x="715" y="243" type="qcurve"/>
      <point x="688" y="231"/>
      <point x="612" y="220"/>
      <point x="557" y="220" type="qcurve" smooth="yes"/>
      <point x="534" y="220"/>
      <point x="486" y="226"/>
      <point x="462" y="232" type="qcurve"/>
      <point x="461" y="216"/>
      <point x="460" y="200"/>
      <point x="460" y="193" type="qcurve" smooth="yes"/>
      <point x="460" y="126"/>
      <point x="501" y="48"/>
      <point x="538" y="48" type="qcurve" smooth="yes"/>
      <point x="565" y="48"/>
      <point x="624" y="117"/>
    </contour>
    <contour>
      <point x="175" y="116" type="qcurve" smooth="yes"/>
      <point x="175" y="87"/>
      <point x="206" y="56"/>
      <point x="235" y="56" type="qcurve" smooth="yes"/>
      <point x="257" y="56"/>
      <point x="309" y="75"/>
      <point x="335" y="92" type="qcurve"/>
      <point x="326" y="115"/>
      <point x="317" y="166"/>
      <point x="317" y="193" type="qcurve" smooth="yes"/>
      <point x="317" y="194"/>
      <point x="317" y="197"/>
      <point x="317" y="198" type="qcurve"/>
      <point x="246" y="199"/>
      <point x="175" y="158"/>
    </contour>
  </outline>
</glyph>
<glyph name="ccedilla" format="1">
  <advance width="481"/>
  <unicode hex="00E7"/>
  <outline>
    <contour>
      <point x="355" y="-132" type="qcurve" smooth="yes"/>
      <point x="355" y="-178"/>
      <point x="285" y="-233"/>
      <point x="227" y="-233" type="qcurve" smooth="yes"/>
      <point x="187" y="-233"/>
      <point x="130" y="-196"/>
      <point x="117" y="-161" type="qcurve"/>
      <point x="133" y="-151"/>
      <point x="155" y="-140"/>
      <point x="173" y="-132" type="qcurve"/>
      <point x="179" y="-153"/>
      <point x="207" y="-177"/>
      <point x="225" y="-177" type="qcurve" smooth="yes"/>
      <point x="242" y="-177"/>
      <point x="262" y="-157"/>
      <point x="262" y="-140" type="qcurve" smooth="yes"/>
      <point x="262" y="-125"/>
      <point x="242" y="-106"/>
      <point x="225" y="-106" type="qcurve" smooth="yes"/>
      <point x="217" y="-106"/>
      <point x="200" y="-110"/>
      <point x="191" y="-115" type="qcurve"/>
      <point x="183" y="-108"/>
      <point x="170" y="-96"/>
      <point x="167" y="-91" type="qcurve"/>
      <point x="176" y="-77"/>
      <point x="189" y="-41"/>
      <point x="193" y="-22" type="qcurve"/>
      <point x="113" y="-12"/>
      <point x="26" y="106"/>
      <point x="26" y="201" type="qcurve" smooth="yes"/>
      <point x="26" y="342"/>
      <point x="171" y="543"/>
      <point x="282" y="543" type="qcurve" smooth="yes"/>
      <point x="366" y="543"/>
      <point x="460" y="451"/>
      <point x="460" y="371" type="qcurve"/>
      <point x="435" y="359"/>
      <point x="370" y="347"/>
      <point x="327" y="347" type="qcurve"/>
      <point x="327" y="405"/>
      <point x="300" y="464"/>
      <point x="274" y="464" type="qcurve" smooth="yes"/>
      <point x="234" y="464"/>
      <point x="175" y="307"/>
      <point x="175" y="208" type="qcurve" smooth="yes"/>
      <point x="175" y="140"/>
      <point x="215" y="63"/>
      <point x="252" y="63" type="qcurve" smooth="yes"/>
      <point x="283" y="63"/>
      <point x="343" y="117"/>
      <point x="372" y="170" type="qcurve"/>
      <point x="394" y="165"/>
      <point x="438" y="136"/>
      <point x="452" y="116" type="qcurve"/>
      <point x="438" y="65"/>
      <point x="322" y="-18"/>
      <point x="246" y="-23" type="qcurve"/>
      <point x="243" y="-37"/>
      <point x="239" y="-50"/>
      <point x="237" y="-55" type="qcurve"/>
      <point x="244" y="-53"/>
      <point x="258" y="-52"/>
      <point x="265" y="-52" type="qcurve" smooth="yes"/>
      <point x="305" y="-52"/>
      <point x="355" y="-96"/>
    </contour>
  </outline>
</glyph>
<glyph name="eth" format="1">
  <advance width="542"/>
  <unicode hex="00F0"/>
  <outline>
    <contour>
      <point x="470" y="-26" type="qcurve"/>
      <point x="449" y="-33"/>
      <point x="382" y="-42"/>
      <point x="356" y="-42" type="qcurve"/>
      <point x="352" y="-19"/>
      <point x="345" y="40"/>
      <point x="341" y="76" type="qcurve"/>
      <point x="320" y="22"/>
      <point x="255" y="-30"/>
      <point x="208" y="-30" type="qcurve" smooth="yes"/>
      <point x="124" y="-30"/>
      <point x="31" y="105"/>
      <point x="31" y="223" type="qcurve" smooth="yes"/>
      <point x="31" y="363"/>
      <point x="167" y="531"/>
      <point x="281" y="531" type="qcurve" smooth="yes"/>
      <point x="289" y="531"/>
      <point x="307" y="529"/>
      <point x="315" y="528" type="qcurve"/>
      <point x="315" y="538"/>
      <point x="315" y="557"/>
      <point x="315" y="567" type="qcurve"/>
      <point x="284" y="568"/>
      <point x="227" y="571"/>
      <point x="204" y="573" type="qcurve"/>
      <point x="202" y="593"/>
      <point x="203" y="639"/>
      <point x="206" y="652" type="qcurve"/>
      <point x="224" y="651"/>
      <point x="268" y="649"/>
      <point x="313" y="648" type="qcurve"/>
      <point x="313" y="663"/>
      <point x="313" y="692"/>
      <point x="313" y="707" type="qcurve"/>
      <point x="331" y="716"/>
      <point x="392" y="727"/>
      <point x="423" y="727" type="qcurve" smooth="yes"/>
      <point x="438" y="727"/>
      <point x="468" y="723"/>
      <point x="483" y="720" type="qcurve"/>
      <point x="482" y="706"/>
      <point x="479" y="672"/>
      <point x="477" y="652" type="qcurve"/>
      <point x="496" y="653"/>
      <point x="537" y="657"/>
      <point x="566" y="660" type="qcurve"/>
      <point x="567" y="632"/>
      <point x="567" y="597"/>
      <point x="565" y="583" type="qcurve"/>
      <point x="541" y="579"/>
      <point x="495" y="573"/>
      <point x="473" y="572" type="qcurve"/>
      <point x="470" y="499"/>
      <point x="467" y="299"/>
      <point x="467" y="108" type="qcurve" smooth="yes"/>
      <point x="467" y="73"/>
      <point x="468" y="13"/>
    </contour>
    <contour>
      <point x="177" y="241" type="qcurve" smooth="yes"/>
      <point x="177" y="161"/>
      <point x="215" y="75"/>
      <point x="249" y="75" type="qcurve" smooth="yes"/>
      <point x="277" y="75"/>
      <point x="319" y="150"/>
      <point x="329" y="220" type="qcurve"/>
      <point x="325" y="295"/>
      <point x="320" y="397"/>
      <point x="318" y="442" type="qcurve"/>
      <point x="308" y="443"/>
      <point x="297" y="444"/>
      <point x="291" y="444" type="qcurve" smooth="yes"/>
      <point x="239" y="444"/>
      <point x="177" y="336"/>
    </contour>
  </outline>
</glyph>
<glyph name="Aogonek" format="1">
  <advance width="649"/>
  <unicode hex="0104"/>
  <outline>
    <contour>
      <point x="644" y="-235" type="qcurve"/>
      <point x="622" y="-265"/>
      <point x="565" y="-294"/>
      <point x="529" y="-294" type="qcurve" smooth="yes"/>
      <point x="486" y="-294"/>
      <point x="434" y="-252"/>
      <point x="434" y="-217" type="qcurve" smooth="yes"/>
      <point x="434" y="-187"/>
      <point x="462" y="-135"/>
      <point x="491" y="-111" type="qcurve"/>
      <point x="481" y="-31"/>
      <point x="456" y="110"/>
      <point x="441" y="173" type="qcurve"/>
      <point x="376" y="173"/>
      <point x="259" y="166"/>
      <point x="207" y="159" type="qcurve"/>
      <point x="186" y="105"/>
      <point x="146" y="13"/>
      <point x="125" y="-27" type="qcurve"/>
      <point x="87" y="-20"/>
      <point x="22" y="14"/>
      <point x="2" y="38" type="qcurve"/>
      <point x="85" y="189"/>
      <point x="199" y="486"/>
      <point x="256" y="708" type="qcurve"/>
      <point x="295" y="707"/>
      <point x="357" y="700"/>
      <point x="393" y="692" type="qcurve"/>
      <point x="483" y="535"/>
      <point x="604" y="166"/>
      <point x="640" y="-65" type="qcurve"/>
      <point x="625" y="-74"/>
      <point x="593" y="-89"/>
      <point x="577" y="-94" type="qcurve"/>
      <point x="551" y="-116"/>
      <point x="524" y="-166"/>
      <point x="524" y="-191" type="qcurve" smooth="yes"/>
      <point x="524" y="-208"/>
      <point x="539" y="-226"/>
      <point x="554" y="-226" type="qcurve" smooth="yes"/>
      <point x="570" y="-226"/>
      <point x="598" y="-206"/>
      <point x="611" y="-185" type="qcurve"/>
      <point x="620" y="-193"/>
      <point x="637" y="-218"/>
    </contour>
    <contour>
      <point x="322" y="534" type="qcurve"/>
      <point x="304" y="462"/>
      <point x="265" y="326"/>
      <point x="244" y="264" type="qcurve"/>
      <point x="290" y="270"/>
      <point x="374" y="277"/>
      <point x="414" y="278" type="qcurve"/>
      <point x="394" y="348"/>
      <point x="348" y="476"/>
    </contour>
  </outline>
</glyph>
<glyph name="Eogonek" format="1">
  <advance width="572"/>
  <unicode hex="0118"/>
  <outline>
    <contour>
      <point x="593" y="-161" type="qcurve"/>
      <point x="572" y="-190"/>
      <point x="513" y="-220"/>
      <point x="477" y="-220" type="qcurve" smooth="yes"/>
      <point x="433" y="-220"/>
      <point x="383" y="-177"/>
      <point x="383" y="-140" type="qcurve" smooth="yes"/>
      <point x="383" y="-107"/>
      <point x="420" y="-50"/>
      <point x="460" y="-22" type="qcurve"/>
      <point x="384" y="-30"/>
      <point x="200" y="-41"/>
      <point x="129" y="-42" type="qcurve"/>
      <point x="102" y="135"/>
      <point x="63" y="547"/>
      <point x="61" y="685" type="qcurve"/>
      <point x="204" y="712"/>
      <point x="409" y="734"/>
      <point x="514" y="735" type="qcurve"/>
      <point x="514" y="706"/>
      <point x="507" y="644"/>
      <point x="500" y="611" type="qcurve"/>
      <point x="428" y="610"/>
      <point x="296" y="604"/>
      <point x="234" y="598" type="qcurve"/>
      <point x="232" y="556"/>
      <point x="230" y="460"/>
      <point x="231" y="407" type="qcurve"/>
      <point x="290" y="421"/>
      <point x="400" y="437"/>
      <point x="458" y="439" type="qcurve"/>
      <point x="464" y="414"/>
      <point x="470" y="358"/>
      <point x="470" y="320" type="qcurve"/>
      <point x="397" y="317"/>
      <point x="287" y="309"/>
      <point x="235" y="301" type="qcurve"/>
      <point x="239" y="222"/>
      <point x="248" y="118"/>
      <point x="254" y="74" type="qcurve"/>
      <point x="303" y="76"/>
      <point x="470" y="95"/>
      <point x="525" y="106" type="qcurve"/>
      <point x="531" y="88"/>
      <point x="539" y="16"/>
      <point x="538" y="-11" type="qcurve"/>
      <point x="507" y="-35"/>
      <point x="474" y="-90"/>
      <point x="474" y="-117" type="qcurve" smooth="yes"/>
      <point x="474" y="-134"/>
      <point x="490" y="-152"/>
      <point x="504" y="-152" type="qcurve" smooth="yes"/>
      <point x="520" y="-152"/>
      <point x="548" y="-132"/>
      <point x="561" y="-111" type="qcurve"/>
      <point x="570" y="-118"/>
      <point x="587" y="-144"/>
    </contour>
  </outline>
</glyph>
<glyph name="eogonek" format="1">
  <advance width="499"/>
  <unicode hex="0119"/>
  <outline>
    <contour>
      <point x="192" y="309" type="qcurve"/>
      <point x="212" y="303"/>
      <point x="253" y="297"/>
      <point x="271" y="297" type="qcurve" smooth="yes"/>
      <point x="279" y="297"/>
      <point x="302" y="299"/>
      <point x="308" y="300" type="qcurve"/>
      <point x="315" y="328"/>
      <point x="322" y="371"/>
      <point x="322" y="389" type="qcurve" smooth="yes"/>
      <point x="322" y="420"/>
      <point x="304" y="447"/>
      <point x="284" y="447" type="qcurve" smooth="yes"/>
      <point x="256" y="447"/>
      <point x="207" y="373"/>
    </contour>
    <contour>
      <point x="412" y="-89" type="qcurve"/>
      <point x="421" y="-96"/>
      <point x="437" y="-119"/>
      <point x="445" y="-138" type="qcurve"/>
      <point x="425" y="-167"/>
      <point x="367" y="-197"/>
      <point x="332" y="-197" type="qcurve" smooth="yes"/>
      <point x="288" y="-197"/>
      <point x="235" y="-154"/>
      <point x="235" y="-118" type="qcurve" smooth="yes"/>
      <point x="235" y="-95"/>
      <point x="252" y="-56"/>
      <point x="270" y="-37" type="qcurve"/>
      <point x="254" y="-38"/>
      <point x="238" y="-39"/>
      <point x="231" y="-39" type="qcurve" smooth="yes"/>
      <point x="136" y="-39"/>
      <point x="30" y="83"/>
      <point x="30" y="188" type="qcurve" smooth="yes"/>
      <point x="30" y="321"/>
      <point x="189" y="528"/>
      <point x="295" y="528" type="qcurve" smooth="yes"/>
      <point x="369" y="528"/>
      <point x="456" y="447"/>
      <point x="456" y="379" type="qcurve" smooth="yes"/>
      <point x="456" y="347"/>
      <point x="443" y="273"/>
      <point x="432" y="243" type="qcurve"/>
      <point x="406" y="231"/>
      <point x="330" y="220"/>
      <point x="274" y="220" type="qcurve" smooth="yes"/>
      <point x="251" y="220"/>
      <point x="204" y="226"/>
      <point x="180" y="232" type="qcurve"/>
      <point x="179" y="216"/>
      <point x="178" y="200"/>
      <point x="178" y="193" type="qcurve" smooth="yes"/>
      <point x="178" y="125"/>
      <point x="218" y="48"/>
      <point x="255" y="48" type="qcurve" smooth="yes"/>
      <point x="283" y="48"/>
      <point x="342" y="117"/>
      <point x="354" y="160" type="qcurve"/>
      <point x="383" y="155"/>
      <point x="443" y="123"/>
      <point x="463" y="103" type="qcurve"/>
      <point x="449" y="70"/>
      <point x="414" y="27"/>
      <point x="385" y="8" type="qcurve" smooth="yes"/>
      <point x="358" y="-10"/>
      <point x="325" y="-65"/>
      <point x="325" y="-92" type="qcurve" smooth="yes"/>
      <point x="325" y="-109"/>
      <point x="342" y="-130"/>
      <point x="355" y="-130" type="qcurve" smooth="yes"/>
      <point x="372" y="-130"/>
      <point x="400" y="-110"/>
    </contour>
  </outline>
</glyph>
<glyph name="Iogonek" format="1">
  <advance width="292"/>
  <unicode hex="012E"/>
  <outline>
    <contour>
      <point x="245" y="-169" type="qcurve"/>
      <point x="224" y="-199"/>
      <point x="167" y="-228"/>
      <point x="131" y="-228" type="qcurve" smooth="yes"/>
      <point x="88" y="-228"/>
      <point x="35" y="-186"/>
      <point x="35" y="-151" type="qcurve" smooth="yes"/>
      <point x="35" y="-117"/>
      <point x="72" y="-58"/>
      <point x="112" y="-29" type="qcurve"/>
      <point x="107" y="-30"/>
      <point x="95" y="-30"/>
      <point x="84" y="-30" type="qcurve"/>
      <point x="85" y="173"/>
      <point x="71" y="519"/>
      <point x="56" y="660" type="qcurve"/>
      <point x="75" y="672"/>
      <point x="124" y="685"/>
      <point x="151" y="685" type="qcurve" smooth="yes"/>
      <point x="171" y="685"/>
      <point x="203" y="681"/>
      <point x="221" y="677" type="qcurve"/>
      <point x="223" y="642"/>
      <point x="225" y="561"/>
      <point x="225" y="510" type="qcurve" smooth="yes"/>
      <point x="225" y="379"/>
      <point x="217" y="109"/>
      <point x="209" y="-15" type="qcurve"/>
      <point x="205" y="-16"/>
      <point x="191" y="-19"/>
      <point x="189" y="-20" type="qcurve"/>
      <point x="158" y="-44"/>
      <point x="125" y="-98"/>
      <point x="125" y="-125" type="qcurve" smooth="yes"/>
      <point x="125" y="-141"/>
      <point x="141" y="-160"/>
      <point x="155" y="-160" type="qcurve" smooth="yes"/>
      <point x="172" y="-160"/>
      <point x="200" y="-140"/>
      <point x="212" y="-119" type="qcurve"/>
      <point x="221" y="-126"/>
      <point x="237" y="-149"/>
    </contour>
  </outline>
</glyph>
<glyph name="iogonek" format="1">
  <advance width="263"/>
  <unicode hex="012F"/>
  <outline>
    <contour>
      <point x="257" y="734" type="qcurve"/>
      <point x="248" y="713"/>
      <point x="226" y="641"/>
      <point x="220" y="609" type="qcurve"/>
      <point x="192" y="605"/>
      <point x="130" y="602"/>
      <point x="94" y="603" type="qcurve"/>
      <point x="89" y="619"/>
      <point x="84" y="651"/>
      <point x="84" y="667" type="qcurve" smooth="yes"/>
      <point x="84" y="685"/>
      <point x="90" y="719"/>
      <point x="95" y="732" type="qcurve"/>
      <point x="114" y="741"/>
      <point x="155" y="750"/>
      <point x="180" y="750" type="qcurve" smooth="yes"/>
      <point x="204" y="749"/>
      <point x="244" y="741"/>
    </contour>
    <contour>
      <point x="211" y="-152" type="qcurve"/>
      <point x="190" y="-181"/>
      <point x="133" y="-211"/>
      <point x="97" y="-211" type="qcurve" smooth="yes"/>
      <point x="54" y="-211"/>
      <point x="1" y="-169"/>
      <point x="1" y="-134" type="qcurve" smooth="yes"/>
      <point x="1" y="-99"/>
      <point x="40" y="-40"/>
      <point x="81" y="-11" type="qcurve"/>
      <point x="74" y="-10"/>
      <point x="62" y="-9"/>
      <point x="57" y="-8" type="qcurve"/>
      <point x="41" y="129"/>
      <point x="46" y="395"/>
      <point x="66" y="501" type="qcurve"/>
      <point x="87" y="513"/>
      <point x="140" y="526"/>
      <point x="170" y="526" type="qcurve" smooth="yes"/>
      <point x="184" y="526"/>
      <point x="213" y="523"/>
      <point x="227" y="520" type="qcurve"/>
      <point x="206" y="440"/>
      <point x="180" y="156"/>
      <point x="180" y="5" type="qcurve"/>
      <point x="174" y="2"/>
      <point x="161" y="-3"/>
      <point x="153" y="-4" type="qcurve"/>
      <point x="123" y="-28"/>
      <point x="91" y="-82"/>
      <point x="91" y="-108" type="qcurve" smooth="yes"/>
      <point x="91" y="-125"/>
      <point x="107" y="-143"/>
      <point x="121" y="-143" type="qcurve" smooth="yes"/>
      <point x="138" y="-143"/>
      <point x="166" y="-123"/>
      <point x="178" y="-102" type="qcurve"/>
      <point x="187" y="-109"/>
      <point x="203" y="-133"/>
    </contour>
  </outline>
</glyph>
<glyph name="dotlessi" format="1">
  <advance width="263"/>
  <unicode hex="0131"/>
  <outline>
    <contour>
      <point x="66" y="501" type="qcurve"/>
      <point x="87" y="513"/>
      <point x="140" y="526"/>
      <point x="170" y="526" type="qcurve" smooth="yes"/>
      <point x="184" y="526"/>
      <point x="213" y="523"/>
      <point x="227" y="520" type="qcurve"/>
      <point x="206" y="440"/>
      <point x="180" y="156"/>
      <point x="180" y="5" type="qcurve"/>
      <point x="164" y="-2"/>
      <point x="117" y="-11"/>
      <point x="92" y="-11" type="qcurve" smooth="yes"/>
      <point x="81" y="-11"/>
      <point x="64" y="-9"/>
      <point x="57" y="-8" type="qcurve"/>
      <point x="42" y="99"/>
      <point x="47" y="401"/>
    </contour>
  </outline>
</glyph>
<glyph name="OE" format="1">
  <advance width="922"/>
  <unicode hex="0152"/>
  <outline>
    <contour>
      <point x="889" y="1" type="qcurve"/>
      <point x="832" y="-9"/>
      <point x="577" y="-28"/>
      <point x="480" y="-29" type="qcurve"/>
      <point x="479" y="-23"/>
      <point x="477" y="-10"/>
      <point x="475" y="3" type="qcurve" smooth="yes"/>
      <point x="472" y="28"/>
      <point x="468" y="53"/>
      <point x="467" y="64" type="qcurve"/>
      <point x="430" y="23"/>
      <point x="336" y="-18"/>
      <point x="280" y="-18" type="qcurve" smooth="yes"/>
      <point x="166" y="-18"/>
      <point x="36" y="173"/>
      <point x="36" y="331" type="qcurve" smooth="yes"/>
      <point x="36" y="511"/>
      <point x="204" y="734"/>
      <point x="342" y="734" type="qcurve" smooth="yes"/>
      <point x="381" y="734"/>
      <point x="447" y="713"/>
      <point x="474" y="693" type="qcurve"/>
      <point x="593" y="714"/>
      <point x="773" y="731"/>
      <point x="865" y="732" type="qcurve"/>
      <point x="865" y="703"/>
      <point x="858" y="640"/>
      <point x="851" y="608" type="qcurve"/>
      <point x="780" y="608"/>
      <point x="647" y="602"/>
      <point x="585" y="595" type="qcurve"/>
      <point x="583" y="555"/>
      <point x="581" y="460"/>
      <point x="582" y="407" type="qcurve"/>
      <point x="641" y="421"/>
      <point x="751" y="437"/>
      <point x="809" y="439" type="qcurve"/>
      <point x="815" y="414"/>
      <point x="821" y="358"/>
      <point x="821" y="320" type="qcurve"/>
      <point x="748" y="317"/>
      <point x="638" y="309"/>
      <point x="586" y="301" type="qcurve"/>
      <point x="590" y="232"/>
      <point x="599" y="133"/>
      <point x="605" y="87" type="qcurve"/>
      <point x="654" y="89"/>
      <point x="821" y="108"/>
      <point x="876" y="119" type="qcurve"/>
      <point x="882" y="101"/>
      <point x="890" y="29"/>
    </contour>
    <contour>
      <point x="309" y="82" type="qcurve" smooth="yes"/>
      <point x="366" y="82"/>
      <point x="423" y="234"/>
      <point x="422" y="378" type="qcurve" smooth="yes"/>
      <point x="421" y="510"/>
      <point x="368" y="633"/>
      <point x="311" y="633" type="qcurve" smooth="yes"/>
      <point x="254" y="633"/>
      <point x="190" y="484"/>
      <point x="190" y="352" type="qcurve" smooth="yes"/>
      <point x="190" y="231"/>
      <point x="253" y="82"/>
    </contour>
  </outline>
</glyph>
<glyph name="florin" format="1">
  <advance width="424"/>
  <unicode hex="0192"/>
  <outline>
    <contour>
      <point x="270" y="24" type="qcurve" smooth="yes"/>
      <point x="257" y="-64"/>
      <point x="168" y="-155"/>
      <point x="95" y="-155" type="qcurve" smooth="yes"/>
      <point x="32" y="-155"/>
      <point x="-40" y="-80"/>
      <point x="-40" y="-19" type="qcurve" smooth="yes"/>
      <point x="-40" y="-6"/>
      <point x="-35" y="23"/>
      <point x="-30" y="34" type="qcurve"/>
      <point x="-4" y="34"/>
      <point x="52" y="25"/>
      <point x="78" y="17" type="qcurve"/>
      <point x="75" y="9"/>
      <point x="72" y="-11"/>
      <point x="72" y="-23" type="qcurve" smooth="yes"/>
      <point x="72" y="-45"/>
      <point x="90" y="-67"/>
      <point x="107" y="-67" type="qcurve" smooth="yes"/>
      <point x="131" y="-67"/>
      <point x="155" y="-16"/>
      <point x="155" y="36" type="qcurve" smooth="yes"/>
      <point x="155" y="126"/>
      <point x="99" y="345"/>
      <point x="96" y="361" type="qcurve"/>
      <point x="71" y="364"/>
      <point x="26" y="374"/>
      <point x="7" y="381" type="qcurve"/>
      <point x="7" y="396"/>
      <point x="17" y="445"/>
      <point x="22" y="453" type="qcurve"/>
      <point x="32" y="451"/>
      <point x="60" y="448"/>
      <point x="84" y="446" type="qcurve"/>
      <point x="83" y="449"/>
      <point x="83" y="457"/>
      <point x="83" y="465" type="qcurve" smooth="yes"/>
      <point x="80" y="583"/>
      <point x="184" y="723"/>
      <point x="274" y="725" type="qcurve" smooth="yes"/>
      <point x="340" y="726"/>
      <point x="418" y="653"/>
      <point x="419" y="592" type="qcurve" smooth="yes"/>
      <point x="419" y="577"/>
      <point x="414" y="549"/>
      <point x="410" y="538" type="qcurve"/>
      <point x="385" y="537"/>
      <point x="330" y="544"/>
      <point x="301" y="552" type="qcurve"/>
      <point x="304" y="563"/>
      <point x="307" y="584"/>
      <point x="307" y="594" type="qcurve" smooth="yes"/>
      <point x="306" y="614"/>
      <point x="286" y="637"/>
      <point x="269" y="637" type="qcurve" smooth="yes"/>
      <point x="244" y="637"/>
      <point x="219" y="571"/>
      <point x="221" y="508" type="qcurve" smooth="yes"/>
      <point x="221" y="492"/>
      <point x="223" y="458"/>
      <point x="226" y="439" type="qcurve"/>
      <point x="237" y="438"/>
      <point x="264" y="438"/>
      <point x="290" y="438" type="qcurve" smooth="yes"/>
      <point x="323" y="438"/>
      <point x="375" y="442"/>
      <point x="393" y="445" type="qcurve"/>
      <point x="393" y="425"/>
      <point x="387" y="372"/>
      <point x="383" y="354" type="qcurve"/>
      <point x="371" y="350"/>
      <point x="331" y="346"/>
      <point x="298" y="346" type="qcurve" smooth="yes"/>
      <point x="275" y="346"/>
      <point x="252" y="346"/>
      <point x="242" y="347" type="qcurve"/>
      <point x="256" y="285"/>
      <point x="273" y="205"/>
      <point x="275" y="188" type="qcurve" smooth="yes"/>
      <point x="280" y="145"/>
      <point x="278" y="65"/>
    </contour>
  </outline>
</glyph>
<glyph name="breve" format="1">
  <advance width="260"/>
  <unicode hex="02D8"/>
  <outline>
    <contour>
      <point x="25" y="641" type="qcurve" smooth="yes"/>
      <point x="13" y="657"/>
      <point x="4" y="700"/>
      <point x="5" y="728" type="qcurve"/>
      <point x="20" y="733"/>
      <point x="53" y="738"/>
      <point x="72" y="737" type="qcurve"/>
      <point x="68" y="701"/>
      <point x="96" y="670"/>
      <point x="130" y="670" type="qcurve" smooth="yes"/>
      <point x="166" y="670"/>
      <point x="193" y="703"/>
      <point x="184" y="736" type="qcurve"/>
      <point x="198" y="740"/>
      <point x="238" y="740"/>
      <point x="255" y="737" type="qcurve"/>
      <point x="257" y="711"/>
      <point x="249" y="671"/>
      <point x="240" y="654" type="qcurve" smooth="yes"/>
      <point x="226" y="627"/>
      <point x="168" y="598"/>
      <point x="129" y="598" type="qcurve" smooth="yes"/>
      <point x="94" y="598"/>
      <point x="42" y="619"/>
    </contour>
    <contour>
      <point x="137" y="560" type="move" name="_top"/>
    </contour>
  </outline>
</glyph>
<glyph name="pi" format="1">
  <advance width="709"/>
  <unicode hex="03C0"/>
  <outline>
    <contour>
      <point x="284" y="307" type="qcurve" smooth="yes"/>
      <point x="284" y="230"/>
      <point x="269" y="96"/>
      <point x="250" y="8" type="qcurve"/>
      <point x="223" y="0"/>
      <point x="129" y="3"/>
      <point x="93" y="13" type="qcurve"/>
      <point x="119" y="103"/>
      <point x="141" y="218"/>
      <point x="147" y="290" type="qcurve" smooth="yes"/>
      <point x="150" y="328"/>
      <point x="153" y="385"/>
      <point x="153" y="408" type="qcurve"/>
      <point x="107" y="404"/>
      <point x="47" y="399"/>
      <point x="28" y="396" type="qcurve"/>
      <point x="18" y="442"/>
      <point x="23" y="532"/>
      <point x="37" y="565" type="qcurve"/>
      <point x="150" y="566"/>
      <point x="559" y="553"/>
      <point x="664" y="545" type="qcurve"/>
      <point x="667" y="516"/>
      <point x="660" y="442"/>
      <point x="653" y="414" type="qcurve"/>
      <point x="623" y="416"/>
      <point x="559" y="418"/>
      <point x="530" y="419" type="qcurve"/>
      <point x="524" y="375"/>
      <point x="518" y="300"/>
      <point x="518" y="268" type="qcurve" smooth="yes"/>
      <point x="518" y="178"/>
      <point x="537" y="96"/>
      <point x="556" y="96" type="qcurve" smooth="yes"/>
      <point x="569" y="96"/>
      <point x="584" y="152"/>
      <point x="585" y="209" type="qcurve"/>
      <point x="612" y="206"/>
      <point x="666" y="185"/>
      <point x="687" y="169" type="qcurve"/>
      <point x="686" y="96"/>
      <point x="612" y="7"/>
      <point x="546" y="7" type="qcurve" smooth="yes"/>
      <point x="464" y="7"/>
      <point x="371" y="154"/>
      <point x="371" y="287" type="qcurve" smooth="yes"/>
      <point x="371" y="316"/>
      <point x="374" y="380"/>
      <point x="378" y="419" type="qcurve"/>
      <point x="352" y="418"/>
      <point x="304" y="417"/>
      <point x="281" y="416" type="qcurve"/>
      <point x="283" y="389"/>
      <point x="285" y="334"/>
    </contour>
  </outline>
</glyph>
<glyph name="bn_danda" format="1">
  <advance width="586"/>
  <unicode hex="0964"/>
  <outline>
    <contour>
      <point x="440" y="262" type="qcurve" smooth="yes"/>
      <point x="440" y="158"/>
      <point x="455" y="-20"/>
      <point x="469" y="-81" type="qcurve"/>
      <point x="443" y="-91"/>
      <point x="374" y="-103"/>
      <point x="343" y="-103" type="qcurve"/>
      <point x="343" y="-93"/>
      <point x="341" y="-68"/>
      <point x="339" y="-43" type="qcurve" smooth="yes"/>
      <point x="336" y="-3"/>
      <point x="334" y="39"/>
      <point x="334" y="58" type="qcurve" smooth="yes"/>
      <point x="334" y="263"/>
      <point x="344" y="470"/>
      <point x="356" y="582" type="qcurve"/>
      <point x="455" y="595" type="line"/>
      <point x="446" y="479"/>
      <point x="440" y="333"/>
    </contour>
  </outline>
</glyph>
<glyph name="bn_anusvar" format="1">
  <advance width="451"/>
  <unicode hex="0982"/>
  <outline>
    <contour>
      <point x="234" y="630" type="qcurve" smooth="yes"/>
      <point x="299" y="630"/>
      <point x="383" y="548"/>
      <point x="382" y="486" type="qcurve" smooth="yes"/>
      <point x="381" y="418"/>
      <point x="283" y="323"/>
      <point x="213" y="323" type="qcurve" smooth="yes"/>
      <point x="150" y="323"/>
      <point x="66" y="405"/>
      <point x="67" y="466" type="qcurve" smooth="yes"/>
      <point x="68" y="535"/>
      <point x="164" y="630"/>
    </contour>
    <contour>
      <point x="209" y="549" type="qcurve" smooth="yes"/>
      <point x="182" y="549"/>
      <point x="150" y="519"/>
      <point x="150" y="493" type="qcurve" smooth="yes"/>
      <point x="150" y="456"/>
      <point x="203" y="405"/>
      <point x="240" y="405" type="qcurve" smooth="yes"/>
      <point x="267" y="405"/>
      <point x="299" y="436"/>
      <point x="299" y="461" type="qcurve" smooth="yes"/>
      <point x="299" y="498"/>
      <point x="247" y="549"/>
    </contour>
    <contour>
      <point x="67" y="321" type="qcurve"/>
      <point x="177" y="280"/>
      <point x="384" y="107"/>
      <point x="436" y="10" type="qcurve"/>
      <point x="425" y="-10"/>
      <point x="385" y="-45"/>
      <point x="362" y="-56" type="qcurve"/>
      <point x="305" y="38"/>
      <point x="112" y="182"/>
      <point x="9" y="209" type="qcurve"/>
      <point x="19" y="242"/>
      <point x="48" y="298"/>
    </contour>
  </outline>
</glyph>
<glyph name="bn_aa" format="1">
  <advance width="966"/>
  <unicode hex="0986"/>
  <outline>
    <contour>
      <point x="896" y="473" type="qcurve"/>
      <point x="881" y="347"/>
      <point x="878" y="87"/>
      <point x="889" y="-41" type="qcurve"/>
      <point x="859" y="-46"/>
      <point x="778" y="-49"/>
      <point x="754" y="-46" type="qcurve"/>
      <point x="760" y="152"/>
      <point x="773" y="341"/>
      <point x="783" y="437" type="qcurve"/>
      <point x="774" y="473"/>
      <point x="697" y="521"/>
      <point x="629" y="534" type="qcurve"/>
      <point x="621" y="486"/>
      <point x="612" y="366"/>
      <point x="612" y="300" type="qcurve" smooth="yes"/>
      <point x="612" y="200"/>
      <point x="626" y="46"/>
      <point x="639" y="-4" type="qcurve"/>
      <point x="617" y="-16"/>
      <point x="548" y="-29"/>
      <point x="512" y="-29" type="qcurve"/>
      <point x="489" y="8"/>
      <point x="432" y="69"/>
      <point x="398" y="93" type="qcurve"/>
      <point x="379" y="74"/>
      <point x="329" y="54"/>
      <point x="300" y="54" type="qcurve" smooth="yes"/>
      <point x="206" y="54"/>
      <point x="60" y="233"/>
      <point x="8" y="411" type="qcurve"/>
      <point x="26" y="424"/>
      <point x="61" y="442"/>
      <point x="77" y="447" type="qcurve"/>
      <point x="120" y="326"/>
      <point x="231" y="185"/>
      <point x="287" y="185" type="qcurve" smooth="yes"/>
      <point x="326" y="185"/>
      <point x="367" y="241"/>
      <point x="367" y="295" type="qcurve" smooth="yes"/>
      <point x="367" y="344"/>
      <point x="335" y="404"/>
      <point x="310" y="404" type="qcurve" smooth="yes"/>
      <point x="294" y="404"/>
      <point x="277" y="378"/>
      <point x="277" y="355" type="qcurve" smooth="yes"/>
      <point x="277" y="341"/>
      <point x="285" y="311"/>
      <point x="292" y="297" type="qcurve"/>
      <point x="266" y="297"/>
      <point x="208" y="307"/>
      <point x="190" y="315" type="qcurve"/>
      <point x="185" y="329"/>
      <point x="180" y="356"/>
      <point x="180" y="371" type="qcurve" smooth="yes"/>
      <point x="180" y="423"/>
      <point x="239" y="494"/>
      <point x="283" y="494" type="qcurve" smooth="yes"/>
      <point x="356" y="494"/>
      <point x="454" y="347"/>
      <point x="454" y="246" type="qcurve" smooth="yes"/>
      <point x="454" y="222"/>
      <point x="446" y="176"/>
      <point x="439" y="157" type="qcurve"/>
      <point x="458" y="139"/>
      <point x="490" y="102"/>
      <point x="502" y="83" type="qcurve"/>
      <point x="502" y="98"/>
      <point x="502" y="127"/>
      <point x="502" y="142" type="qcurve" smooth="yes"/>
      <point x="502" y="274"/>
      <point x="521" y="477"/>
      <point x="539" y="546" type="qcurve"/>
      <point x="509" y="549"/>
      <point x="440" y="551"/>
      <point x="396" y="551" type="qcurve" smooth="yes"/>
      <point x="293" y="551"/>
      <point x="86" y="532"/>
      <point x="0" y="514" type="qcurve"/>
      <point x="-7" y="539"/>
      <point x="-8" y="603"/>
      <point x="0" y="618" type="qcurve"/>
      <point x="77" y="637"/>
      <point x="289" y="658"/>
      <point x="400" y="658" type="qcurve" smooth="yes"/>
      <point x="547" y="658"/>
      <point x="780" y="604"/>
      <point x="833" y="555" type="qcurve"/>
      <point x="857" y="577"/>
      <point x="926" y="610"/>
      <point x="966" y="618" type="qcurve"/>
      <point x="974" y="604"/>
      <point x="974" y="539"/>
      <point x="966" y="514" type="qcurve"/>
      <point x="943" y="509"/>
      <point x="908" y="489"/>
    </contour>
    <contour>
      <point x="504" y="690" type="move" name="chandrabindu"/>
    </contour>
  </outline>
</glyph>
<glyph name="bn_i" format="1">
  <advance width="496"/>
  <unicode hex="0987"/>
  <outline>
    <contour>
      <point x="503" y="572" type="qcurve" smooth="yes"/>
      <point x="503" y="556"/>
      <point x="499" y="525"/>
      <point x="496" y="514" type="qcurve"/>
      <point x="448" y="526"/>
      <point x="314" y="541"/>
      <point x="248" y="541" type="qcurve" smooth="yes"/>
      <point x="185" y="541"/>
      <point x="58" y="527"/>
      <point x="0" y="514" type="qcurve"/>
      <point x="-4" y="526"/>
      <point x="-8" y="557"/>
      <point x="-8" y="573" type="qcurve" smooth="yes"/>
      <point x="-8" y="587"/>
      <point x="-4" y="611"/>
      <point x="0" y="618" type="qcurve"/>
      <point x="52" y="633"/>
      <point x="184" y="649"/>
      <point x="251" y="649" type="qcurve" smooth="yes"/>
      <point x="294" y="649"/>
      <point x="384" y="642"/>
      <point x="426" y="635" type="qcurve"/>
      <point x="411" y="677"/>
      <point x="360" y="718"/>
      <point x="323" y="718" type="qcurve" smooth="yes"/>
      <point x="307" y="718"/>
      <point x="268" y="712"/>
      <point x="227" y="703" type="qcurve" smooth="yes"/>
      <point x="185" y="694"/>
      <point x="145" y="688"/>
      <point x="129" y="688" type="qcurve" smooth="yes"/>
      <point x="79" y="688"/>
      <point x="-2" y="744"/>
      <point x="-35" y="804" type="qcurve"/>
      <point x="-23" y="822"/>
      <point x="11" y="857"/>
      <point x="30" y="871" type="qcurve"/>
      <point x="56" y="824"/>
      <point x="107" y="786"/>
      <point x="138" y="786" type="qcurve" smooth="yes"/>
      <point x="150" y="786"/>
      <point x="182" y="791"/>
      <point x="219" y="800" type="qcurve" smooth="yes"/>
      <point x="263" y="810"/>
      <point x="307" y="817"/>
      <point x="324" y="817" type="qcurve" smooth="yes"/>
      <point x="390" y="817"/>
      <point x="480" y="711"/>
      <point x="496" y="618" type="qcurve"/>
      <point x="499" y="611"/>
      <point x="503" y="587"/>
    </contour>
    <contour>
      <point x="508" y="-67" type="qcurve"/>
      <point x="493" y="-87"/>
      <point x="460" y="-123"/>
      <point x="443" y="-138" type="qcurve"/>
      <point x="349" y="-42"/>
      <point x="158" y="82"/>
      <point x="55" y="115" type="qcurve"/>
      <point x="35" y="253" type="line"/>
      <point x="81" y="238"/>
      <point x="168" y="223"/>
      <point x="206" y="223" type="qcurve" smooth="yes"/>
      <point x="264" y="223"/>
      <point x="322" y="263"/>
      <point x="322" y="303" type="qcurve" smooth="yes"/>
      <point x="322" y="346"/>
      <point x="266" y="412"/>
      <point x="230" y="412" type="qcurve" smooth="yes"/>
      <point x="212" y="412"/>
      <point x="193" y="394"/>
      <point x="193" y="377" type="qcurve" smooth="yes"/>
      <point x="193" y="365"/>
      <point x="205" y="342"/>
      <point x="222" y="327" type="qcurve"/>
      <point x="200" y="314"/>
      <point x="138" y="297"/>
      <point x="112" y="298" type="qcurve"/>
      <point x="96" y="318"/>
      <point x="80" y="363"/>
      <point x="80" y="387" type="qcurve" smooth="yes"/>
      <point x="80" y="439"/>
      <point x="145" y="499"/>
      <point x="199" y="499" type="qcurve" smooth="yes"/>
      <point x="288" y="499"/>
      <point x="434" y="345"/>
      <point x="434" y="253" type="qcurve" smooth="yes"/>
      <point x="434" y="191"/>
      <point x="356" y="114"/>
      <point x="283" y="104" type="qcurve"/>
      <point x="336" y="71"/>
      <point x="447" y="-14"/>
    </contour>
    <contour>
      <point x="222" y="830" type="move" name="chandrabindu"/>
    </contour>
  </outline>
</glyph>
<glyph name="bn_ii" format="1">
  <advance width="593"/>
  <unicode hex="0988"/>
  <outline>
    <contour>
      <point x="599" y="572" type="qcurve" smooth="yes"/>
      <point x="599" y="558"/>
      <point x="596" y="527"/>
      <point x="593" y="514" type="qcurve"/>
      <point x="537" y="526"/>
      <point x="378" y="540"/>
      <point x="297" y="540" type="qcurve" smooth="yes"/>
      <point x="219" y="540"/>
      <point x="72" y="527"/>
      <point x="0" y="514" type="qcurve"/>
      <point x="-4" y="526"/>
      <point x="-8" y="557"/>
      <point x="-8" y="573" type="qcurve" smooth="yes"/>
      <point x="-8" y="587"/>
      <point x="-4" y="611"/>
      <point x="0" y="618" type="qcurve"/>
      <point x="63" y="633"/>
      <point x="215" y="648"/>
      <point x="298" y="648" type="qcurve" smooth="yes"/>
      <point x="361" y="648"/>
      <point x="477" y="640"/>
      <point x="523" y="632" type="qcurve"/>
      <point x="509" y="675"/>
      <point x="458" y="718"/>
      <point x="420" y="718" type="qcurve" smooth="yes"/>
      <point x="404" y="718"/>
      <point x="364" y="713"/>
      <point x="322" y="705" type="qcurve" smooth="yes"/>
      <point x="280" y="697"/>
      <point x="240" y="692"/>
      <point x="224" y="692" type="qcurve" smooth="yes"/>
      <point x="174" y="692"/>
      <point x="93" y="747"/>
      <point x="60" y="804" type="qcurve"/>
      <point x="72" y="821"/>
      <point x="107" y="854"/>
      <point x="126" y="866" type="qcurve"/>
      <point x="155" y="822"/>
      <point x="202" y="791"/>
      <point x="233" y="791" type="qcurve" smooth="yes"/>
      <point x="245" y="791"/>
      <point x="278" y="795"/>
      <point x="316" y="803" type="qcurve" smooth="yes"/>
      <point x="361" y="812"/>
      <point x="404" y="817"/>
      <point x="421" y="817" type="qcurve" smooth="yes"/>
      <point x="486" y="817"/>
      <point x="576" y="711"/>
      <point x="593" y="618" type="qcurve"/>
      <point x="596" y="610"/>
      <point x="599" y="586"/>
    </contour>
    <contour>
      <point x="549" y="-10" type="qcurve"/>
      <point x="532" y="-17"/>
      <point x="468" y="-29"/>
      <point x="447" y="-29" type="qcurve"/>
      <point x="427" y="42"/>
      <point x="427" y="217"/>
      <point x="446" y="302" type="qcurve"/>
      <point x="391" y="167"/>
      <point x="269" y="51"/>
      <point x="181" y="51" type="qcurve" smooth="yes"/>
      <point x="155" y="51"/>
      <point x="104" y="62"/>
      <point x="80" y="72" type="qcurve"/>
      <point x="60" y="203" type="line"/>
      <point x="91" y="191"/>
      <point x="150" y="179"/>
      <point x="173" y="179" type="qcurve" smooth="yes"/>
      <point x="217" y="179"/>
      <point x="269" y="229"/>
      <point x="269" y="271" type="qcurve" smooth="yes"/>
      <point x="269" y="324"/>
      <point x="210" y="402"/>
      <point x="171" y="402" type="qcurve" smooth="yes"/>
      <point x="154" y="402"/>
      <point x="135" y="384"/>
      <point x="135" y="368" type="qcurve" smooth="yes"/>
      <point x="135" y="353"/>
      <point x="158" y="324"/>
      <point x="182" y="309" type="qcurve"/>
      <point x="165" y="290"/>
      <point x="113" y="263"/>
      <point x="92" y="262" type="qcurve"/>
      <point x="64" y="286"/>
      <point x="36" y="346"/>
      <point x="36" y="381" type="qcurve" smooth="yes"/>
      <point x="36" y="431"/>
      <point x="98" y="489"/>
      <point x="150" y="489" type="qcurve" smooth="yes"/>
      <point x="212" y="489"/>
      <point x="321" y="407"/>
      <point x="348" y="340" type="qcurve"/>
      <point x="382" y="392"/>
      <point x="429" y="455"/>
      <point x="442" y="467" type="qcurve"/>
      <point x="476" y="456"/>
      <point x="530" y="421"/>
      <point x="556" y="393" type="qcurve"/>
      <point x="526" y="296"/>
      <point x="523" y="98"/>
    </contour>
    <contour>
      <point x="292" y="830" type="move" name="chandrabindu"/>
    </contour>
  </outline>
</glyph>
<glyph name="bn_li" format="1">
  <advance width="518"/>
  <unicode hex="098C"/>
  <outline>
    <contour>
      <point x="484" y="319" type="qcurve" smooth="yes"/>
      <point x="484" y="240"/>
      <point x="437" y="55"/>
      <point x="396" y="-30" type="qcurve"/>
      <point x="370" y="-30"/>
      <point x="318" y="-21"/>
      <point x="296" y="-12" type="qcurve"/>
      <point x="297" y="101"/>
      <point x="228" y="226"/>
      <point x="168" y="226" type="qcurve" smooth="yes"/>
      <point x="134" y="226"/>
      <point x="94" y="185"/>
      <point x="94" y="151" type="qcurve" smooth="yes"/>
      <point x="94" y="125"/>
      <point x="119" y="96"/>
      <point x="139" y="96" type="qcurve" smooth="yes"/>
      <point x="158" y="96"/>
      <point x="189" y="122"/>
      <point x="202" y="148" type="qcurve"/>
      <point x="217" y="121"/>
      <point x="240" y="47"/>
      <point x="243" y="18" type="qcurve"/>
      <point x="228" y="-4"/>
      <point x="185" y="-29"/>
      <point x="161" y="-29" type="qcurve" smooth="yes"/>
      <point x="102" y="-29"/>
      <point x="21" y="84"/>
      <point x="21" y="168" type="qcurve" smooth="yes"/>
      <point x="21" y="255"/>
      <point x="107" y="362"/>
      <point x="178" y="362" type="qcurve" smooth="yes"/>
      <point x="247" y="362"/>
      <point x="338" y="242"/>
      <point x="349" y="138" type="qcurve"/>
      <point x="375" y="192"/>
      <point x="404" y="301"/>
      <point x="404" y="344" type="qcurve" smooth="yes"/>
      <point x="404" y="385"/>
      <point x="346" y="431"/>
      <point x="253" y="450" type="qcurve" smooth="yes"/>
      <point x="135" y="477"/>
      <point x="48" y="567"/>
      <point x="33" y="659" type="qcurve"/>
      <point x="51" y="672"/>
      <point x="96" y="692"/>
      <point x="119" y="698" type="qcurve"/>
      <point x="130" y="639"/>
      <point x="177" y="586"/>
      <point x="245" y="571" type="qcurve"/>
      <point x="311" y="555" type="line" smooth="yes"/>
      <point x="400" y="534"/>
      <point x="484" y="420"/>
    </contour>
    <contour>
      <point x="275" y="690" type="move" name="chandrabindu"/>
    </contour>
  </outline>
</glyph>
<glyph name="bn_ai" format="1">
  <advance width="700"/>
  <unicode hex="0990"/>
  <outline>
    <contour>
      <point x="544" y="-16" type="qcurve"/>
      <point x="523" y="-24"/>
      <point x="467" y="-32"/>
      <point x="440" y="-32" type="qcurve"/>
      <point x="440" y="-31"/>
      <point x="416" y="14"/>
      <point x="407" y="25" type="qcurve" smooth="yes"/>
      <point x="396" y="38"/>
      <point x="367" y="51"/>
      <point x="348" y="51" type="qcurve" smooth="yes"/>
      <point x="334" y="51"/>
      <point x="297" y="44"/>
      <point x="258" y="31" type="qcurve" smooth="yes"/>
      <point x="214" y="18"/>
      <point x="170" y="9"/>
      <point x="151" y="9" type="qcurve" smooth="yes"/>
      <point x="91" y="9"/>
      <point x="20" y="89"/>
      <point x="20" y="156" type="qcurve" smooth="yes"/>
      <point x="20" y="190"/>
      <point x="39" y="269"/>
      <point x="56" y="307" type="qcurve"/>
      <point x="83" y="306"/>
      <point x="126" y="298"/>
      <point x="143" y="291" type="qcurve"/>
      <point x="133" y="272"/>
      <point x="120" y="222"/>
      <point x="120" y="202" type="qcurve" smooth="yes"/>
      <point x="120" y="175"/>
      <point x="148" y="146"/>
      <point x="173" y="146" type="qcurve" smooth="yes"/>
      <point x="184" y="146"/>
      <point x="214" y="152"/>
      <point x="246" y="163" type="qcurve" smooth="yes"/>
      <point x="282" y="174"/>
      <point x="317" y="181"/>
      <point x="331" y="181" type="qcurve" smooth="yes"/>
      <point x="365" y="181"/>
      <point x="411" y="137"/>
      <point x="428" y="88" type="qcurve"/>
      <point x="443" y="175"/>
      <point x="459" y="406"/>
      <point x="459" y="526" type="qcurve" smooth="yes"/>
      <point x="459" y="551"/>
      <point x="439" y="579"/>
      <point x="421" y="579" type="qcurve" smooth="yes"/>
      <point x="383" y="579"/>
      <point x="298" y="474"/>
      <point x="298" y="428" type="qcurve" smooth="yes"/>
      <point x="298" y="408"/>
      <point x="320" y="386"/>
      <point x="340" y="386" type="qcurve" smooth="yes"/>
      <point x="356" y="386"/>
      <point x="386" y="399"/>
      <point x="400" y="412" type="qcurve"/>
      <point x="402" y="409"/>
      <point x="404" y="398"/>
      <point x="404" y="389" type="qcurve" smooth="yes"/>
      <point x="404" y="364"/>
      <point x="388" y="308"/>
      <point x="375" y="290" type="qcurve"/>
      <point x="361" y="281"/>
      <point x="325" y="271"/>
      <point x="306" y="271" type="qcurve" smooth="yes"/>
      <point x="246" y="271"/>
      <point x="167" y="347"/>
      <point x="167" y="408" type="qcurve" smooth="yes"/>
      <point x="167" y="499"/>
      <point x="321" y="661"/>
      <point x="409" y="661" type="qcurve" smooth="yes"/>
      <point x="469" y="661"/>
      <point x="558" y="582"/>
      <point x="568" y="519" type="qcurve"/>
      <point x="592" y="541"/>
      <point x="617" y="590"/>
      <point x="617" y="615" type="qcurve" smooth="yes"/>
      <point x="617" y="651"/>
      <point x="556" y="688"/>
      <point x="439" y="704" type="qcurve" smooth="yes"/>
      <point x="316" y="720"/>
      <point x="228" y="799"/>
      <point x="214" y="888" type="qcurve"/>
      <point x="232" y="900"/>
      <point x="276" y="920"/>
      <point x="299" y="926" type="qcurve"/>
      <point x="310" y="865"/>
      <point x="360" y="813"/>
      <point x="425" y="803" type="qcurve"/>
      <point x="503" y="791" type="line" smooth="yes"/>
      <point x="589" y="777"/>
      <point x="677" y="685"/>
      <point x="677" y="607" type="qcurve" smooth="yes"/>
      <point x="677" y="550"/>
      <point x="625" y="446"/>
      <point x="570" y="391" type="qcurve"/>
      <point x="569" y="284"/>
      <point x="556" y="84"/>
    </contour>
    <contour>
      <point x="490" y="830" type="move" name="chandrabindu"/>
    </contour>
  </outline>
</glyph>
<glyph name="bn_ga" format="1">
  <advance width="529"/>
  <unicode hex="0997"/>
  <outline>
    <contour>
      <point x="466" y="457" type="qcurve" smooth="yes"/>
      <point x="466" y="319"/>
      <point x="444" y="57"/>
      <point x="425" y="-33" type="qcurve"/>
      <point x="393" y="-33"/>
      <point x="320" y="-24"/>
      <point x="298" y="-18" type="qcurve"/>
      <point x="316" y="44"/>
      <point x="339" y="169"/>
      <point x="345" y="235" type="qcurve"/>
      <point x="345" y="235" type="line"/>
      <point x="345" y="239" type="line"/>
      <point x="349" y="275"/>
      <point x="351" y="317"/>
      <point x="352" y="336" type="qcurve"/>
      <point x="352" y="339"/>
      <point x="352" y="344"/>
      <point x="352" y="346" type="qcurve" smooth="yes"/>
      <point x="352" y="423"/>
      <point x="264" y="524"/>
      <point x="205" y="524" type="qcurve" smooth="yes"/>
      <point x="165" y="524"/>
      <point x="118" y="489"/>
      <point x="118" y="458" type="qcurve" smooth="yes"/>
      <point x="118" y="454"/>
      <point x="118" y="450"/>
      <point x="119" y="448" type="qcurve"/>
      <point x="138" y="457"/>
      <point x="175" y="466"/>
      <point x="193" y="466" type="qcurve" smooth="yes"/>
      <point x="240" y="466"/>
      <point x="307" y="387"/>
      <point x="307" y="331" type="qcurve" smooth="yes"/>
      <point x="307" y="287"/>
      <point x="249" y="182"/>
      <point x="187" y="116" type="qcurve"/>
      <point x="157" y="136"/>
      <point x="110" y="185"/>
      <point x="93" y="214" type="qcurve"/>
      <point x="161" y="263"/>
      <point x="236" y="336"/>
      <point x="236" y="354" type="qcurve" smooth="yes"/>
      <point x="236" y="366"/>
      <point x="222" y="378"/>
      <point x="210" y="378" type="qcurve" smooth="yes"/>
      <point x="182" y="378"/>
      <point x="110" y="349"/>
      <point x="74" y="324" type="qcurve"/>
      <point x="35" y="386" type="line"/>
      <point x="31" y="402"/>
      <point x="27" y="433"/>
      <point x="27" y="449" type="qcurve" smooth="yes"/>
      <point x="27" y="532"/>
      <point x="122" y="641"/>
      <point x="197" y="641" type="qcurve" smooth="yes"/>
      <point x="256" y="641"/>
      <point x="346" y="556"/>
      <point x="371" y="477" type="qcurve"/>
      <point x="370" y="495"/>
      <point x="369" y="508"/>
      <point x="369" y="514" type="qcurve" smooth="yes"/>
      <point x="369" y="537"/>
      <point x="398" y="578"/>
      <point x="421" y="588" type="qcurve" smooth="yes"/>
      <point x="447" y="598"/>
      <point x="500" y="613"/>
      <point x="529" y="618" type="qcurve"/>
      <point x="533" y="610"/>
      <point x="538" y="584"/>
      <point x="538" y="570" type="qcurve" smooth="yes"/>
      <point x="538" y="556"/>
      <point x="533" y="525"/>
      <point x="529" y="514" type="qcurve"/>
      <point x="511" y="509"/>
      <point x="498" y="504"/>
      <point x="492" y="502" type="qcurve" smooth="yes"/>
      <point x="479" y="497"/>
      <point x="466" y="475"/>
    </contour>
    <contour>
      <point x="353" y="-6" type="move" name="blwm"/>
    </contour>
    <contour>
      <point x="167" y="0" type="move" name="nukt"/>
    </contour>
    <contour>
      <point x="390" y="690" type="move" name="reph"/>
    </contour>
    <contour>
      <point x="390" y="690" type="move" name="chandrabindu"/>
    </contour>
    <contour>
      <point x="215" y="-6" type="move" name="haln"/>
    </contour>
  </outline>
</glyph>
<glyph name="bn_gha" format="1">
  <advance width="523"/>
  <unicode hex="0998"/>
  <outline>
    <contour>
      <point x="264" y="432" type="qcurve"/>
      <point x="277" y="412"/>
      <point x="298" y="345"/>
      <point x="302" y="312" type="qcurve"/>
      <point x="191" y="224" type="line"/>
      <point x="237" y="198"/>
      <point x="311" y="132"/>
      <point x="337" y="93" type="qcurve"/>
      <point x="337" y="106"/>
      <point x="337" y="132"/>
      <point x="337" y="145" type="qcurve" smooth="yes"/>
      <point x="337" y="253"/>
      <point x="348" y="431"/>
      <point x="361" y="537" type="qcurve"/>
      <point x="340" y="539"/>
      <point x="292" y="541"/>
      <point x="263" y="541" type="qcurve" smooth="yes"/>
      <point x="257" y="541"/>
      <point x="245" y="541"/>
      <point x="239" y="541" type="qcurve"/>
      <point x="188" y="523"/>
      <point x="135" y="472"/>
      <point x="135" y="442" type="qcurve" smooth="yes"/>
      <point x="135" y="419"/>
      <point x="163" y="390"/>
      <point x="185" y="390" type="qcurve" smooth="yes"/>
      <point x="203" y="390"/>
      <point x="243" y="411"/>
    </contour>
    <contour>
      <point x="449" y="292" type="qcurve" smooth="yes"/>
      <point x="449" y="188"/>
      <point x="459" y="39"/>
      <point x="469" y="-8" type="qcurve"/>
      <point x="449" y="-17"/>
      <point x="385" y="-27"/>
      <point x="346" y="-27" type="qcurve"/>
      <point x="300" y="48"/>
      <point x="183" y="137"/>
      <point x="110" y="152" type="qcurve"/>
      <point x="83" y="177"/>
      <point x="55" y="242"/>
      <point x="56" y="276" type="qcurve"/>
      <point x="132" y="338" type="line"/>
      <point x="85" y="349"/>
      <point x="32" y="410"/>
      <point x="32" y="454" type="qcurve" smooth="yes"/>
      <point x="32" y="474"/>
      <point x="42" y="509"/>
      <point x="52" y="524" type="qcurve"/>
      <point x="46" y="523"/>
      <point x="31" y="520"/>
      <point x="18" y="518" type="qcurve" smooth="yes"/>
      <point x="10" y="516"/>
      <point x="3" y="515"/>
      <point x="0" y="514" type="qcurve"/>
      <point x="-4" y="529"/>
      <point x="-8" y="560"/>
      <point x="-8" y="573" type="qcurve" smooth="yes"/>
      <point x="-8" y="587"/>
      <point x="-4" y="611"/>
      <point x="0" y="618" type="qcurve"/>
      <point x="53" y="632"/>
      <point x="195" y="649"/>
      <point x="268" y="649" type="qcurve" smooth="yes"/>
      <point x="340" y="649"/>
      <point x="478" y="632"/>
      <point x="523" y="618" type="qcurve"/>
      <point x="527" y="611"/>
      <point x="531" y="588"/>
      <point x="531" y="573" type="qcurve" smooth="yes"/>
      <point x="531" y="559"/>
      <point x="527" y="527"/>
      <point x="523" y="514" type="qcurve"/>
      <point x="510" y="517"/>
      <point x="478" y="523"/>
      <point x="460" y="526" type="qcurve"/>
      <point x="454" y="470"/>
      <point x="449" y="361"/>
    </contour>
    <contour>
      <point x="392" y="0" type="move" name="blwm"/>
    </contour>
    <contour>
      <point x="134" y="0" type="move" name="nukt"/>
    </contour>
    <contour>
      <point x="291" y="690" type="move" name="reph"/>
    </contour>
    <contour>
      <point x="291" y="690" type="move" name="chandrabindu"/>
    </contour>
    <contour>
      <point x="225" y="0" type="move" name="haln"/>
    </contour>
  </outline>
</glyph>
<glyph name="bn_jha" format="1">
  <advance width="678"/>
  <unicode hex="099D"/>
  <outline>
    <contour>
      <point x="143" y="256" type="qcurve"/>
      <point x="191" y="224"/>
      <point x="265" y="143"/>
      <point x="289" y="96" type="qcurve"/>
      <point x="290" y="158"/>
      <point x="303" y="294"/>
      <point x="314" y="362" type="qcurve"/>
      <point x="271" y="343"/>
      <point x="181" y="287"/>
    </contour>
    <contour>
      <point x="406" y="156" type="qcurve"/>
      <point x="407" y="107"/>
      <point x="414" y="22"/>
      <point x="421" y="-9" type="qcurve"/>
      <point x="401" y="-19"/>
      <point x="339" y="-29"/>
      <point x="294" y="-29" type="qcurve"/>
      <point x="254" y="56"/>
      <point x="141" y="161"/>
      <point x="67" y="182" type="qcurve"/>
      <point x="45" y="218"/>
      <point x="24" y="284"/>
      <point x="23" y="322" type="qcurve"/>
      <point x="82" y="381"/>
      <point x="248" y="480"/>
      <point x="343" y="512" type="qcurve"/>
      <point x="345" y="519"/>
      <point x="348" y="532"/>
      <point x="349" y="539" type="qcurve"/>
      <point x="317" y="541"/>
      <point x="282" y="543"/>
      <point x="268" y="543" type="qcurve" smooth="yes"/>
      <point x="200" y="543"/>
      <point x="53" y="527"/>
      <point x="0" y="514" type="qcurve"/>
      <point x="-3" y="526"/>
      <point x="-6" y="560"/>
      <point x="-6" y="575" type="qcurve" smooth="yes"/>
      <point x="-6" y="588"/>
      <point x="-3" y="610"/>
      <point x="0" y="618" type="qcurve"/>
      <point x="45" y="632"/>
      <point x="197" y="651"/>
      <point x="268" y="651" type="qcurve" smooth="yes"/>
      <point x="298" y="651"/>
      <point x="365" y="645"/>
      <point x="391" y="640" type="qcurve" smooth="yes"/>
      <point x="414" y="635"/>
      <point x="438" y="606"/>
      <point x="438" y="583" type="qcurve" smooth="yes"/>
      <point x="438" y="580"/>
      <point x="436" y="567"/>
      <point x="434" y="545" type="qcurve" smooth="yes"/>
      <point x="422" y="457"/>
      <point x="410" y="320"/>
      <point x="407" y="254" type="qcurve"/>
      <point x="438" y="230"/>
      <point x="490" y="176"/>
      <point x="509" y="146" type="qcurve"/>
      <point x="505" y="187"/>
      <point x="501" y="271"/>
      <point x="501" y="308" type="qcurve" smooth="yes"/>
      <point x="501" y="353"/>
      <point x="506" y="459"/>
      <point x="510" y="509" type="qcurve" smooth="yes"/>
      <point x="511" y="535"/>
      <point x="542" y="578"/>
      <point x="566" y="586" type="qcurve" smooth="yes"/>
      <point x="595" y="597"/>
      <point x="649" y="613"/>
      <point x="678" y="618" type="qcurve"/>
      <point x="682" y="611"/>
      <point x="687" y="586"/>
      <point x="687" y="570" type="qcurve" smooth="yes"/>
      <point x="687" y="556"/>
      <point x="682" y="525"/>
      <point x="678" y="514" type="qcurve"/>
      <point x="664" y="510"/>
      <point x="636" y="501"/>
      <point x="623" y="496" type="qcurve" smooth="yes"/>
      <point x="610" y="490"/>
      <point x="597" y="470"/>
      <point x="597" y="455" type="qcurve"/>
      <point x="597" y="379" type="line" smooth="yes"/>
      <point x="597" y="289"/>
      <point x="626" y="109"/>
      <point x="652" y="36" type="qcurve"/>
      <point x="632" y="25"/>
      <point x="562" y="12"/>
      <point x="531" y="14" type="qcurve"/>
      <point x="505" y="60"/>
      <point x="443" y="130"/>
    </contour>
    <contour>
      <point x="343" y="-2" type="move" name="blwm"/>
    </contour>
    <contour>
      <point x="90" y="0" type="move" name="nukt"/>
    </contour>
    <contour>
      <point x="419" y="690" type="move" name="reph"/>
    </contour>
    <contour>
      <point x="419" y="690" type="move" name="chandrabindu"/>
    </contour>
    <contour>
      <point x="234" y="0" type="move" name="haln"/>
    </contour>
  </outline>
</glyph>
<glyph name="bn_ttha" format="1">
  <advance width="489"/>
  <unicode hex="09A0"/>
  <outline>
    <contour>
      <point x="87" y="127" type="qcurve"/>
      <point x="103" y="101"/>
      <point x="154" y="73"/>
      <point x="187" y="73" type="qcurve" smooth="yes"/>
      <point x="259" y="73"/>
      <point x="351" y="202"/>
      <point x="351" y="296" type="qcurve" smooth="yes"/>
      <point x="351" y="356"/>
      <point x="316" y="475"/>
      <point x="278" y="540" type="qcurve"/>
      <point x="278" y="540" type="line"/>
      <point x="285" y="516"/>
      <point x="293" y="465"/>
      <point x="293" y="439" type="qcurve" smooth="yes"/>
      <point x="293" y="327"/>
      <point x="185" y="163"/>
    </contour>
    <contour>
      <point x="354" y="535" type="qcurve"/>
      <point x="404" y="454"/>
      <point x="454" y="303"/>
      <point x="454" y="232" type="qcurve" smooth="yes"/>
      <point x="454" y="115"/>
      <point x="329" y="-29"/>
      <point x="227" y="-29" type="qcurve" smooth="yes"/>
      <point x="132" y="-29"/>
      <point x="23" y="92"/>
      <point x="23" y="196" type="qcurve" smooth="yes"/>
      <point x="23" y="202"/>
      <point x="24" y="215"/>
      <point x="25" y="231" type="qcurve"/>
      <point x="109" y="269"/>
      <point x="219" y="416"/>
      <point x="219" y="502" type="qcurve" smooth="yes"/>
      <point x="219" y="512"/>
      <point x="218" y="531"/>
      <point x="216" y="541" type="qcurve"/>
      <point x="168" y="539"/>
      <point x="59" y="525"/>
      <point x="0" y="514" type="qcurve"/>
      <point x="-4" y="529"/>
      <point x="-8" y="561"/>
      <point x="-8" y="574" type="qcurve" smooth="yes"/>
      <point x="-8" y="589"/>
      <point x="-4" y="611"/>
      <point x="0" y="618" type="qcurve"/>
      <point x="49" y="630"/>
      <point x="153" y="645"/>
      <point x="202" y="648" type="qcurve"/>
      <point x="177" y="691"/>
      <point x="152" y="770"/>
      <point x="152" y="807" type="qcurve" smooth="yes"/>
      <point x="152" y="850"/>
      <point x="182" y="934"/>
      <point x="209" y="967" type="qcurve"/>
      <point x="232" y="958"/>
      <point x="272" y="935"/>
      <point x="290" y="919" type="qcurve"/>
      <point x="268" y="898"/>
      <point x="239" y="825"/>
      <point x="239" y="790" type="qcurve" smooth="yes"/>
      <point x="239" y="758"/>
      <point x="263" y="689"/>
      <point x="288" y="648" type="qcurve"/>
      <point x="337" y="645"/>
      <point x="441" y="630"/>
      <point x="489" y="618" type="qcurve"/>
      <point x="493" y="611"/>
      <point x="498" y="588"/>
      <point x="498" y="574" type="qcurve" smooth="yes"/>
      <point x="498" y="559"/>
      <point x="493" y="527"/>
      <point x="489" y="514" type="qcurve"/>
      <point x="453" y="521"/>
      <point x="385" y="532"/>
    </contour>
    <contour>
      <point x="226" y="-6" type="move" name="blwm"/>
    </contour>
    <contour>
      <point x="192" y="-120" type="move" name="nukt"/>
    </contour>
    <contour>
      <point x="281" y="675" type="move" name="reph"/>
    </contour>
    <contour>
      <point x="434" y="690" type="move" name="chandrabindu"/>
    </contour>
    <contour>
      <point x="80" y="0" type="move" name="haln"/>
    </contour>
  </outline>
</glyph>
<glyph name="bn_dda" format="1">
  <advance width="602"/>
  <unicode hex="09A1"/>
  <note>
    uni09A1
  </note>
  <outline>
    <contour>
      <point x="580" y="212" type="qcurve" smooth="yes"/>
      <point x="580" y="100"/>
      <point x="470" y="-31"/>
      <point x="374" y="-31" type="qcurve" smooth="yes"/>
      <point x="249" y="-31"/>
      <point x="70" y="186"/>
      <point x="10" y="419" type="qcurve"/>
      <point x="29" y="431"/>
      <point x="71" y="450"/>
      <point x="93" y="458" type="qcurve"/>
      <point x="147" y="274"/>
      <point x="290" y="93"/>
      <point x="381" y="93" type="qcurve" smooth="yes"/>
      <point x="439" y="93"/>
      <point x="500" y="169"/>
      <point x="500" y="241" type="qcurve" smooth="yes"/>
      <point x="500" y="254"/>
      <point x="499" y="278"/>
      <point x="497" y="290" type="qcurve"/>
      <point x="467" y="251"/>
      <point x="408" y="217"/>
      <point x="374" y="217" type="qcurve" smooth="yes"/>
      <point x="309" y="217"/>
      <point x="222" y="329"/>
      <point x="222" y="403" type="qcurve" smooth="yes"/>
      <point x="222" y="429"/>
      <point x="233" y="503"/>
      <point x="242" y="544" type="qcurve"/>
      <point x="177" y="541"/>
      <point x="55" y="526"/>
      <point x="0" y="514" type="qcurve"/>
      <point x="-4" y="524"/>
      <point x="-8" y="557"/>
      <point x="-8" y="573" type="qcurve" smooth="yes"/>
      <point x="-8" y="589"/>
      <point x="-4" y="611"/>
      <point x="0" y="618" type="qcurve"/>
      <point x="68" y="635"/>
      <point x="220" y="653"/>
      <point x="302" y="653" type="qcurve" smooth="yes"/>
      <point x="383" y="653"/>
      <point x="533" y="635"/>
      <point x="602" y="618" type="qcurve"/>
      <point x="606" y="611"/>
      <point x="611" y="588"/>
      <point x="611" y="575" type="qcurve" smooth="yes"/>
      <point x="611" y="561"/>
      <point x="606" y="527"/>
      <point x="602" y="514" type="qcurve"/>
      <point x="551" y="526"/>
      <point x="430" y="541"/>
      <point x="362" y="544" type="qcurve"/>
      <point x="342" y="486"/>
      <point x="317" y="382"/>
      <point x="317" y="358" type="qcurve" smooth="yes"/>
      <point x="317" y="340"/>
      <point x="333" y="320"/>
      <point x="348" y="320" type="qcurve" smooth="yes"/>
      <point x="364" y="320"/>
      <point x="408" y="369"/>
      <point x="447" y="434" type="qcurve"/>
      <point x="471" y="428"/>
      <point x="520" y="410"/>
      <point x="539" y="400" type="qcurve"/>
      <point x="558" y="361"/>
      <point x="580" y="263"/>
    </contour>
    <contour>
      <point x="363" y="-6" type="move" name="blwm"/>
    </contour>
    <contour>
      <point x="316" y="-120" type="move" name="nukt"/>
    </contour>
    <contour>
      <point x="331" y="690" type="move" name="reph"/>
    </contour>
    <contour>
      <point x="331" y="690" type="move" name="chandrabindu"/>
    </contour>
    <contour>
      <point x="225" y="0" type="move" name="haln"/>
    </contour>
  </outline>
</glyph>
<glyph name="bn_nna" format="1">
  <advance width="511"/>
  <unicode hex="09A3"/>
  <outline>
    <contour>
      <point x="449" y="454" type="qcurve" smooth="yes"/>
      <point x="442" y="253"/>
      <point x="419" y="55"/>
      <point x="395" y="-33" type="qcurve"/>
      <point x="363" y="-33"/>
      <point x="292" y="-18"/>
      <point x="270" y="-6" type="qcurve"/>
      <point x="291" y="53"/>
      <point x="319" y="171"/>
      <point x="326" y="235" type="qcurve"/>
      <point x="326" y="235" type="line"/>
      <point x="327" y="242"/>
      <point x="329" y="256"/>
      <point x="330" y="274" type="qcurve"/>
      <point x="332" y="300"/>
      <point x="334" y="332"/>
      <point x="335" y="347" type="qcurve"/>
      <point x="334" y="414"/>
      <point x="251" y="501"/>
      <point x="197" y="501" type="qcurve" smooth="yes"/>
      <point x="159" y="501"/>
      <point x="109" y="446"/>
      <point x="109" y="405" type="qcurve" smooth="yes"/>
      <point x="109" y="378"/>
      <point x="133" y="346"/>
      <point x="153" y="346" type="qcurve" smooth="yes"/>
      <point x="171" y="346"/>
      <point x="193" y="380"/>
      <point x="193" y="407" type="qcurve" smooth="yes"/>
      <point x="193" y="418"/>
      <point x="187" y="443"/>
      <point x="182" y="453" type="qcurve"/>
      <point x="210" y="446"/>
      <point x="262" y="417"/>
      <point x="279" y="399" type="qcurve"/>
      <point x="282" y="393"/>
      <point x="285" y="378"/>
      <point x="285" y="369" type="qcurve" smooth="yes"/>
      <point x="285" y="321"/>
      <point x="220" y="254"/>
      <point x="172" y="254" type="qcurve" smooth="yes"/>
      <point x="110" y="254"/>
      <point x="28" y="362"/>
      <point x="28" y="443" type="qcurve" smooth="yes"/>
      <point x="28" y="528"/>
      <point x="115" y="640"/>
      <point x="184" y="640" type="qcurve" smooth="yes"/>
      <point x="242" y="640"/>
      <point x="329" y="558"/>
      <point x="354" y="481" type="qcurve"/>
      <point x="354" y="485"/>
      <point x="353" y="501"/>
      <point x="353" y="506" type="qcurve" smooth="yes"/>
      <point x="353" y="540"/>
      <point x="376" y="575"/>
      <point x="402" y="587" type="qcurve" smooth="yes"/>
      <point x="419" y="595"/>
      <point x="480" y="612"/>
      <point x="511" y="618" type="qcurve"/>
      <point x="515" y="610"/>
      <point x="520" y="584"/>
      <point x="520" y="571" type="qcurve" smooth="yes"/>
      <point x="520" y="556"/>
      <point x="515" y="525"/>
      <point x="511" y="514" type="qcurve"/>
      <point x="501" y="512"/>
      <point x="483" y="506"/>
      <point x="476" y="503" type="qcurve" smooth="yes"/>
      <point x="461" y="496"/>
      <point x="450" y="478"/>
    </contour>
    <contour>
      <point x="331" y="-2" type="move" name="blwm"/>
    </contour>
    <contour>
      <point x="142" y="0" type="move" name="nukt"/>
    </contour>
    <contour>
      <point x="408" y="690" type="move" name="reph"/>
    </contour>
    <contour>
      <point x="414" y="690" type="move" name="chandrabindu"/>
    </contour>
    <contour>
      <point x="205" y="0" type="move" name="haln"/>
    </contour>
  </outline>
</glyph>
<glyph name="bn_pha" format="1">
  <advance width="708"/>
  <unicode hex="09AB"/>
  <outline>
    <contour>
      <point x="457" y="298" type="qcurve" smooth="yes"/>
      <point x="457" y="189"/>
      <point x="472" y="41"/>
      <point x="488" y="-6" type="qcurve"/>
      <point x="465" y="-18"/>
      <point x="396" y="-31"/>
      <point x="359" y="-31" type="qcurve"/>
      <point x="312" y="47"/>
      <point x="187" y="139"/>
      <point x="108" y="154" type="qcurve"/>
      <point x="78" y="179"/>
      <point x="42" y="243"/>
      <point x="40" y="277" type="qcurve"/>
      <point x="172" y="409" type="line"/>
      <point x="164" y="414"/>
      <point x="109" y="445"/>
      <point x="93" y="455" type="qcurve" smooth="yes"/>
      <point x="66" y="473"/>
      <point x="36" y="504"/>
      <point x="31" y="519" type="qcurve"/>
      <point x="28" y="519"/>
      <point x="22" y="518"/>
      <point x="16" y="517" type="qcurve" smooth="yes"/>
      <point x="10" y="516"/>
      <point x="3" y="515"/>
      <point x="0" y="514" type="qcurve"/>
      <point x="-8" y="539"/>
      <point x="-9" y="603"/>
      <point x="0" y="618" type="qcurve"/>
      <point x="75" y="634"/>
      <point x="271" y="651"/>
      <point x="377" y="651" type="qcurve" smooth="yes"/>
      <point x="470" y="651"/>
      <point x="655" y="632"/>
      <point x="708" y="618" type="qcurve"/>
      <point x="715" y="600"/>
      <point x="715" y="539"/>
      <point x="708" y="514" type="qcurve"/>
      <point x="646" y="527"/>
      <point x="462" y="543"/>
      <point x="374" y="543" type="qcurve" smooth="yes"/>
      <point x="322" y="543"/>
      <point x="223" y="539"/>
      <point x="175" y="535" type="qcurve"/>
      <point x="178" y="510"/>
      <point x="228" y="445"/>
      <point x="275" y="403" type="qcurve"/>
      <point x="312" y="368" type="line"/>
      <point x="189" y="232" type="line"/>
      <point x="237" y="207"/>
      <point x="316" y="140"/>
      <point x="345" y="99" type="qcurve"/>
      <point x="345" y="110"/>
      <point x="345" y="131"/>
      <point x="345" y="141" type="qcurve" smooth="yes"/>
      <point x="345" y="251"/>
      <point x="354" y="416"/>
      <point x="365" y="503" type="qcurve"/>
      <point x="504" y="497"/>
      <point x="670" y="377"/>
      <point x="670" y="286" type="qcurve" smooth="yes"/>
      <point x="670" y="238"/>
      <point x="625" y="156"/>
      <point x="585" y="131" type="qcurve"/>
      <point x="561" y="136"/>
      <point x="513" y="184"/>
      <point x="499" y="218" type="qcurve"/>
      <point x="540" y="231"/>
      <point x="596" y="278"/>
      <point x="596" y="301" type="qcurve" smooth="yes"/>
      <point x="596" y="326"/>
      <point x="531" y="356"/>
      <point x="458" y="363" type="qcurve"/>
      <point x="457" y="352"/>
      <point x="457" y="326"/>
    </contour>
    <contour>
      <point x="400" y="0" type="move" name="blwm"/>
    </contour>
    <contour>
      <point x="157" y="0" type="move" name="nukt"/>
    </contour>
    <contour>
      <point x="372" y="690" type="move" name="reph"/>
    </contour>
    <contour>
      <point x="372" y="690" type="move" name="chandrabindu"/>
    </contour>
    <contour>
      <point x="291" y="0" type="move" name="haln"/>
    </contour>
  </outline>
</glyph>
<glyph name="bn_bha" format="1">
  <advance width="630"/>
  <unicode hex="09AD"/>
  <outline>
    <contour>
      <point x="630" y="514" type="qcurve"/>
      <point x="561" y="526"/>
      <point x="393" y="541"/>
      <point x="313" y="541" type="qcurve" smooth="yes"/>
      <point x="233" y="541"/>
      <point x="68" y="527"/>
      <point x="0" y="514" type="qcurve"/>
      <point x="-4" y="525"/>
      <point x="-8" y="557"/>
      <point x="-8" y="572" type="qcurve" smooth="yes"/>
      <point x="-8" y="586"/>
      <point x="-4" y="610"/>
      <point x="0" y="618" type="qcurve"/>
      <point x="62" y="632"/>
      <point x="229" y="649"/>
      <point x="313" y="649" type="qcurve" smooth="yes"/>
      <point x="397" y="649"/>
      <point x="566" y="632"/>
      <point x="630" y="618" type="qcurve"/>
      <point x="634" y="612"/>
      <point x="639" y="589"/>
      <point x="639" y="572" type="qcurve" smooth="yes"/>
      <point x="639" y="555"/>
      <point x="634" y="524"/>
    </contour>
    <contour>
      <point x="608" y="207" type="qcurve" smooth="yes"/>
      <point x="608" y="98"/>
      <point x="489" y="-31"/>
      <point x="387" y="-31" type="qcurve" smooth="yes"/>
      <point x="258" y="-31"/>
      <point x="71" y="189"/>
      <point x="10" y="419" type="qcurve"/>
      <point x="30" y="431"/>
      <point x="72" y="451"/>
      <point x="94" y="458" type="qcurve"/>
      <point x="148" y="278"/>
      <point x="296" y="99"/>
      <point x="391" y="99" type="qcurve" smooth="yes"/>
      <point x="455" y="99"/>
      <point x="521" y="174"/>
      <point x="521" y="246" type="qcurve" smooth="yes"/>
      <point x="521" y="259"/>
      <point x="519" y="287"/>
      <point x="516" y="303" type="qcurve"/>
      <point x="480" y="263"/>
      <point x="406" y="224"/>
      <point x="368" y="224" type="qcurve" smooth="yes"/>
      <point x="307" y="224"/>
      <point x="218" y="309"/>
      <point x="218" y="369" type="qcurve" smooth="yes"/>
      <point x="218" y="412"/>
      <point x="268" y="480"/>
      <point x="309" y="496" type="qcurve"/>
      <point x="336" y="491"/>
      <point x="389" y="451"/>
      <point x="400" y="427" type="qcurve"/>
      <point x="358" y="419"/>
      <point x="298" y="374"/>
      <point x="298" y="351" type="qcurve" smooth="yes"/>
      <point x="298" y="336"/>
      <point x="318" y="319"/>
      <point x="336" y="319" type="qcurve" smooth="yes"/>
      <point x="363" y="319"/>
      <point x="437" y="370"/>
      <point x="498" y="432" type="qcurve"/>
      <point x="518" y="419"/>
      <point x="560" y="385"/>
      <point x="576" y="368" type="qcurve"/>
      <point x="591" y="332"/>
      <point x="608" y="248"/>
    </contour>
    <contour>
      <point x="386" y="-13" type="move" name="blwm"/>
    </contour>
    <contour>
      <point x="370" y="-120" type="move" name="nukt"/>
    </contour>
    <contour>
      <point x="317" y="690" type="move" name="reph"/>
    </contour>
    <contour>
      <point x="317" y="690" type="move" name="chandrabindu"/>
    </contour>
    <contour>
      <point x="250" y="0" type="move" name="haln"/>
    </contour>
  </outline>
</glyph>
<glyph name="bn_ssa" format="1">
  <advance width="530"/>
  <unicode hex="09B7"/>
  <outline>
    <contour>
      <point x="167" y="537" type="qcurve"/>
      <point x="171" y="509"/>
      <point x="243" y="444"/>
      <point x="303" y="414" type="qcurve"/>
      <point x="348" y="390" type="line"/>
      <point x="354" y="446"/>
      <point x="362" y="508"/>
      <point x="366" y="537" type="qcurve"/>
      <point x="345" y="539"/>
      <point x="298" y="541"/>
      <point x="271" y="541" type="qcurve" smooth="yes"/>
      <point x="239" y="541"/>
      <point x="189" y="539"/>
    </contour>
    <contour>
      <point x="450" y="298" type="qcurve" smooth="yes"/>
      <point x="450" y="193"/>
      <point x="461" y="42"/>
      <point x="472" y="-7" type="qcurve"/>
      <point x="451" y="-18"/>
      <point x="383" y="-31"/>
      <point x="345" y="-31" type="qcurve"/>
      <point x="301" y="48"/>
      <point x="184" y="143"/>
      <point x="109" y="160" type="qcurve"/>
      <point x="80" y="181"/>
      <point x="45" y="241"/>
      <point x="43" y="273" type="qcurve"/>
      <point x="150" y="402" type="line"/>
      <point x="104" y="426"/>
      <point x="33" y="492"/>
      <point x="25" y="519" type="qcurve"/>
      <point x="21" y="518"/>
      <point x="4" y="515"/>
      <point x="0" y="514" type="qcurve"/>
      <point x="-7" y="539"/>
      <point x="-8" y="603"/>
      <point x="0" y="618" type="qcurve"/>
      <point x="60" y="634"/>
      <point x="197" y="649"/>
      <point x="275" y="649" type="qcurve" smooth="yes"/>
      <point x="346" y="649"/>
      <point x="488" y="632"/>
      <point x="530" y="618" type="qcurve"/>
      <point x="537" y="600"/>
      <point x="536" y="536"/>
      <point x="530" y="514" type="qcurve"/>
      <point x="517" y="517"/>
      <point x="485" y="523"/>
      <point x="461" y="527" type="qcurve"/>
      <point x="455" y="463"/>
      <point x="450" y="355"/>
    </contour>
    <contour>
      <point x="338" y="97" type="qcurve"/>
      <point x="338" y="108"/>
      <point x="338" y="130"/>
      <point x="338" y="141" type="qcurve" smooth="yes"/>
      <point x="338" y="194"/>
      <point x="340" y="277"/>
      <point x="342" y="313" type="qcurve"/>
      <point x="276" y="344" type="line"/>
      <point x="187" y="234" type="line"/>
      <point x="234" y="208"/>
      <point x="311" y="139"/>
    </contour>
    <contour>
      <point x="385" y="-6" type="move" name="blwm"/>
    </contour>
    <contour>
      <point x="153" y="0" type="move" name="nukt"/>
    </contour>
    <contour>
      <point x="429" y="690" type="move" name="reph"/>
    </contour>
    <contour>
      <point x="429" y="690" type="move" name="chandrabindu"/>
    </contour>
    <contour>
      <point x="303" y="0" type="move" name="haln"/>
    </contour>
  </outline>
</glyph>
<glyph name="bn_nukta" format="1">
  <advance width="0"/>
  <unicode hex="09BC"/>
  <outline>
    <contour>
      <point x="-76" y="-51" type="qcurve" smooth="yes"/>
      <point x="-76" y="-21"/>
      <point x="-34" y="21"/>
      <point x="-4" y="21" type="qcurve" smooth="yes"/>
      <point x="31" y="21"/>
      <point x="78" y="-28"/>
      <point x="78" y="-64" type="qcurve" smooth="yes"/>
      <point x="78" y="-94"/>
      <point x="36" y="-136"/>
      <point x="6" y="-136" type="qcurve" smooth="yes"/>
      <point x="-29" y="-136"/>
      <point x="-76" y="-87"/>
    </contour>
    <contour>
      <point x="0" y="-28" type="move" name="_nukt"/>
    </contour>
  </outline>
</glyph>
<glyph name="bn_aakaar" format="1">
  <advance width="265"/>
  <unicode hex="09BE"/>
  <outline>
    <contour>
      <point x="199" y="477" type="qcurve"/>
      <point x="198" y="347"/>
      <point x="188" y="72"/>
      <point x="178" y="-64" type="qcurve"/>
      <point x="143" y="-64"/>
      <point x="64" y="-56"/>
      <point x="43" y="-50" type="qcurve"/>
      <point x="63" y="46"/>
      <point x="84" y="266"/>
      <point x="87" y="405" type="qcurve"/>
      <point x="85" y="452"/>
      <point x="41" y="507"/>
      <point x="0" y="514" type="qcurve"/>
      <point x="-7" y="534"/>
      <point x="-8" y="605"/>
      <point x="0" y="618" type="qcurve"/>
      <point x="36" y="610"/>
      <point x="107" y="576"/>
      <point x="132" y="555" type="qcurve"/>
      <point x="156" y="577"/>
      <point x="225" y="610"/>
      <point x="265" y="618" type="qcurve"/>
      <point x="274" y="605"/>
      <point x="273" y="540"/>
      <point x="265" y="514" type="qcurve"/>
      <point x="243" y="509"/>
      <point x="210" y="490"/>
    </contour>
  </outline>
</glyph>
<glyph name="bn_ukaar" format="1">
  <advance width="0"/>
  <unicode hex="09C1"/>
  <outline>
    <contour>
      <point x="144" y="-324" type="qcurve"/>
      <point x="25" y="-235" type="line"/>
      <point x="2" y="-272"/>
      <point x="-66" y="-313"/>
      <point x="-107" y="-313" type="qcurve" smooth="yes"/>
      <point x="-167" y="-313"/>
      <point x="-239" y="-243"/>
      <point x="-239" y="-184" type="qcurve" smooth="yes"/>
      <point x="-239" y="-131"/>
      <point x="-171" y="-62"/>
      <point x="-120" y="-62" type="qcurve" smooth="yes"/>
      <point x="-96" y="-62"/>
      <point x="-50" y="-79"/>
      <point x="-28" y="-97" type="qcurve"/>
      <point x="-29" y="-75"/>
      <point x="-38" y="-29"/>
      <point x="-46" y="-9" type="qcurve"/>
      <point x="30" y="2" type="line"/>
      <point x="45" y="-26"/>
      <point x="59" y="-89"/>
      <point x="59" y="-124" type="qcurve" smooth="yes"/>
      <point x="59" y="-132"/>
      <point x="57" y="-148"/>
      <point x="56" y="-156" type="qcurve"/>
      <point x="195" y="-254" type="line"/>
      <point x="186" y="-273"/>
      <point x="160" y="-310"/>
    </contour>
    <contour>
      <point x="-173" y="-187" type="qcurve" smooth="yes"/>
      <point x="-173" y="-205"/>
      <point x="-146" y="-227"/>
      <point x="-125" y="-227" type="qcurve" smooth="yes"/>
      <point x="-103" y="-227"/>
      <point x="-66" y="-205"/>
      <point x="-52" y="-184" type="qcurve"/>
      <point x="-70" y="-167"/>
      <point x="-107" y="-149"/>
      <point x="-125" y="-149" type="qcurve" smooth="yes"/>
      <point x="-147" y="-149"/>
      <point x="-173" y="-170"/>
    </contour>
    <contour>
      <point x="0" y="-20" type="move" name="_blwm"/>
    </contour>
  </outline>
</glyph>
<glyph name="bn_rrikaar" format="1">
  <advance width="0"/>
  <unicode hex="09C4"/>
  <outline>
    <contour>
      <point x="-83" y="-289" type="line"/>
      <point x="7" y="-353" type="line"/>
      <point x="1" y="-369"/>
      <point x="-21" y="-401"/>
      <point x="-36" y="-414" type="qcurve"/>
      <point x="-183" y="-299" type="line"/>
      <point x="-183" y="-278" type="line"/>
      <point x="-114" y="-211" type="line"/>
      <point x="-171" y="-167" type="line"/>
      <point x="-171" y="-143" type="line"/>
      <point x="-43" y="-7" type="line"/>
      <point x="-43" y="22" type="line"/>
      <point x="43" y="18" type="line"/>
      <point x="62" y="-25" type="line"/>
      <point x="-57" y="-151" type="line"/>
      <point x="82" y="-251" type="line"/>
      <point x="74" y="-269"/>
      <point x="46" y="-306"/>
      <point x="30" y="-322" type="qcurve"/>
      <point x="-51" y="-260" type="line"/>
    </contour>
    <contour>
      <point x="0" y="-20" type="move" name="_blwm"/>
    </contour>
  </outline>
</glyph>
<glyph name="bn_ekaar" format="1">
  <advance width="316"/>
  <unicode hex="09C7"/>
  <outline>
    <contour>
      <point x="379" y="-4" type="qcurve"/>
      <point x="351" y="-42"/>
      <point x="288" y="-79"/>
      <point x="250" y="-79" type="qcurve" smooth="yes"/>
      <point x="162" y="-79"/>
      <point x="57" y="88"/>
      <point x="57" y="229" type="qcurve" smooth="yes"/>
      <point x="57" y="303"/>
      <point x="77" y="425"/>
      <point x="98" y="474" type="qcurve"/>
      <point x="83" y="487"/>
      <point x="31" y="508"/>
      <point x="0" y="514" type="qcurve"/>
      <point x="-3" y="524"/>
      <point x="-7" y="554"/>
      <point x="-7" y="569" type="qcurve" smooth="yes"/>
      <point x="-7" y="585"/>
      <point x="-4" y="610"/>
      <point x="0" y="618" type="qcurve"/>
      <point x="52" y="608"/>
      <point x="133" y="577"/>
      <point x="160" y="557" type="qcurve"/>
      <point x="185" y="578"/>
      <point x="262" y="608"/>
      <point x="316" y="618" type="qcurve"/>
      <point x="320" y="609"/>
      <point x="324" y="586"/>
      <point x="324" y="572" type="qcurve" smooth="yes"/>
      <point x="324" y="555"/>
      <point x="320" y="524"/>
      <point x="316" y="514" type="qcurve"/>
      <point x="238" y="502"/>
      <point x="174" y="367"/>
      <point x="174" y="214" type="qcurve" smooth="yes"/>
      <point x="174" y="103"/>
      <point x="198" y="3"/>
      <point x="225" y="3" type="qcurve" smooth="yes"/>
      <point x="243" y="3"/>
      <point x="275" y="44"/>
      <point x="304" y="105" type="qcurve"/>
      <point x="331" y="90"/>
      <point x="379" y="20"/>
    </contour>
  </outline>
</glyph>
<glyph name="bn_aikaar" format="1">
  <advance width="316"/>
  <unicode hex="09C8"/>
  <outline>
    <contour>
      <point x="379" y="-4" type="qcurve"/>
      <point x="351" y="-42"/>
      <point x="288" y="-79"/>
      <point x="250" y="-79" type="qcurve" smooth="yes"/>
      <point x="162" y="-79"/>
      <point x="57" y="88"/>
      <point x="57" y="229" type="qcurve" smooth="yes"/>
      <point x="57" y="303"/>
      <point x="77" y="425"/>
      <point x="98" y="474" type="qcurve"/>
      <point x="83" y="487"/>
      <point x="31" y="508"/>
      <point x="0" y="514" type="qcurve"/>
      <point x="-3" y="524"/>
      <point x="-7" y="554"/>
      <point x="-7" y="569" type="qcurve" smooth="yes"/>
      <point x="-7" y="585"/>
      <point x="-4" y="610"/>
      <point x="0" y="618" type="qcurve"/>
      <point x="52" y="608"/>
      <point x="133" y="577"/>
      <point x="160" y="557" type="qcurve"/>
      <point x="177" y="571"/>
      <point x="222" y="594"/>
      <point x="252" y="603" type="qcurve"/>
      <point x="240" y="660"/>
      <point x="200" y="703"/>
      <point x="166" y="703" type="qcurve" smooth="yes"/>
      <point x="156" y="703"/>
      <point x="132" y="700"/>
      <point x="107" y="694" type="qcurve" smooth="yes"/>
      <point x="80" y="688"/>
      <point x="52" y="684"/>
      <point x="40" y="684" type="qcurve" smooth="yes"/>
      <point x="-5" y="684"/>
      <point x="-79" y="735"/>
      <point x="-112" y="790" type="qcurve"/>
      <point x="-100" y="805"/>
      <point x="-65" y="835"/>
      <point x="-41" y="849" type="qcurve"/>
      <point x="-19" y="813"/>
      <point x="24" y="783"/>
      <point x="51" y="783" type="qcurve" smooth="yes"/>
      <point x="59" y="783"/>
      <point x="80" y="786"/>
      <point x="103" y="792" type="qcurve" smooth="yes"/>
      <point x="130" y="798"/>
      <point x="158" y="802"/>
      <point x="169" y="802" type="qcurve" smooth="yes"/>
      <point x="225" y="802"/>
      <point x="302" y="705"/>
      <point x="316" y="618" type="qcurve"/>
      <point x="320" y="609"/>
      <point x="324" y="586"/>
      <point x="324" y="572" type="qcurve" smooth="yes"/>
      <point x="324" y="555"/>
      <point x="320" y="524"/>
      <point x="316" y="514" type="qcurve"/>
      <point x="238" y="502"/>
      <point x="174" y="367"/>
      <point x="174" y="214" type="qcurve" smooth="yes"/>
      <point x="174" y="103"/>
      <point x="198" y="3"/>
      <point x="225" y="3" type="qcurve" smooth="yes"/>
      <point x="243" y="3"/>
      <point x="275" y="44"/>
      <point x="304" y="105" type="qcurve"/>
      <point x="331" y="90"/>
      <point x="379" y="20"/>
    </contour>
  </outline>
</glyph>
<glyph name="bn_lli" format="1">
  <advance width="712"/>
  <unicode hex="09E1"/>
  <outline>
    <contour>
      <point x="681" y="93" type="qcurve" smooth="yes"/>
      <point x="681" y="13"/>
      <point x="641" y="-159"/>
      <point x="606" y="-230" type="qcurve"/>
      <point x="574" y="-228"/>
      <point x="521" y="-215"/>
      <point x="501" y="-204" type="qcurve"/>
      <point x="502" y="-100"/>
      <point x="439" y="13"/>
      <point x="385" y="13" type="qcurve" smooth="yes"/>
      <point x="356" y="13"/>
      <point x="323" y="-20"/>
      <point x="323" y="-48" type="qcurve" smooth="yes"/>
      <point x="323" y="-70"/>
      <point x="344" y="-94"/>
      <point x="361" y="-94" type="qcurve" smooth="yes"/>
      <point x="376" y="-94"/>
      <point x="401" y="-74"/>
      <point x="414" y="-51" type="qcurve"/>
      <point x="429" y="-78"/>
      <point x="451" y="-151"/>
      <point x="453" y="-180" type="qcurve"/>
      <point x="442" y="-199"/>
      <point x="406" y="-219"/>
      <point x="384" y="-219" type="qcurve" smooth="yes"/>
      <point x="329" y="-219"/>
      <point x="254" y="-113"/>
      <point x="254" y="-34" type="qcurve" smooth="yes"/>
      <point x="254" y="-4"/>
      <point x="268" y="51"/>
      <point x="282" y="74" type="qcurve"/>
      <point x="271" y="147"/>
      <point x="206" y="226"/>
      <point x="160" y="226" type="qcurve" smooth="yes"/>
      <point x="127" y="226"/>
      <point x="89" y="185"/>
      <point x="89" y="151" type="qcurve" smooth="yes"/>
      <point x="89" y="125"/>
      <point x="113" y="96"/>
      <point x="133" y="96" type="qcurve" smooth="yes"/>
      <point x="150" y="96"/>
      <point x="180" y="122"/>
      <point x="193" y="148" type="qcurve"/>
      <point x="207" y="120"/>
      <point x="230" y="46"/>
      <point x="233" y="18" type="qcurve"/>
      <point x="220" y="-4"/>
      <point x="178" y="-29"/>
      <point x="154" y="-29" type="qcurve" smooth="yes"/>
      <point x="96" y="-29"/>
      <point x="17" y="84"/>
      <point x="17" y="168" type="qcurve" smooth="yes"/>
      <point x="17" y="254"/>
      <point x="101" y="362"/>
      <point x="170" y="362" type="qcurve" smooth="yes"/>
      <point x="241" y="362"/>
      <point x="333" y="244"/>
      <point x="344" y="140" type="qcurve"/>
      <point x="370" y="194"/>
      <point x="400" y="304"/>
      <point x="400" y="343" type="qcurve" smooth="yes"/>
      <point x="400" y="384"/>
      <point x="344" y="429"/>
      <point x="247" y="450" type="qcurve" smooth="yes"/>
      <point x="133" y="477"/>
      <point x="48" y="566"/>
      <point x="33" y="659" type="qcurve"/>
      <point x="51" y="672"/>
      <point x="96" y="692"/>
      <point x="119" y="698" type="qcurve"/>
      <point x="129" y="639"/>
      <point x="175" y="586"/>
      <point x="240" y="571" type="qcurve"/>
      <point x="305" y="555" type="line" smooth="yes"/>
      <point x="388" y="536"/>
      <point x="470" y="431"/>
      <point x="474" y="339" type="qcurve"/>
      <point x="525" y="322" type="line" smooth="yes"/>
      <point x="605" y="296"/>
      <point x="681" y="185"/>
    </contour>
    <contour>
      <point x="563" y="189" type="qcurve" smooth="yes"/>
      <point x="546" y="198"/>
      <point x="477" y="220"/>
      <point x="473" y="221" type="qcurve"/>
      <point x="466" y="223" type="line"/>
      <point x="463" y="204"/>
      <point x="454" y="161"/>
      <point x="447" y="134" type="qcurve"/>
      <point x="491" y="116"/>
      <point x="547" y="18"/>
      <point x="555" y="-55" type="qcurve"/>
      <point x="581" y="-8"/>
      <point x="611" y="83"/>
      <point x="611" y="115" type="qcurve" smooth="yes"/>
      <point x="611" y="141"/>
      <point x="588" y="177"/>
    </contour>
    <contour>
      <point x="546" y="-211" type="move" name="blwm"/>
    </contour>
  </outline>
</glyph>
<glyph name="bn_llikaar" format="1">
  <advance width="500"/>
  <unicode hex="09E3"/>
  <outline>
    <contour>
      <point x="457" y="-309" type="qcurve" smooth="yes"/>
      <point x="457" y="-349"/>
      <point x="432" y="-441"/>
      <point x="409" y="-485" type="qcurve"/>
      <point x="393" y="-485"/>
      <point x="362" y="-480"/>
      <point x="350" y="-475" type="qcurve"/>
      <point x="350" y="-418"/>
      <point x="313" y="-358"/>
      <point x="281" y="-358" type="qcurve" smooth="yes"/>
      <point x="265" y="-358"/>
      <point x="247" y="-374"/>
      <point x="247" y="-388" type="qcurve" smooth="yes"/>
      <point x="247" y="-398"/>
      <point x="258" y="-409"/>
      <point x="268" y="-409" type="qcurve" smooth="yes"/>
      <point x="276" y="-409"/>
      <point x="290" y="-400"/>
      <point x="299" y="-387" type="qcurve"/>
      <point x="308" y="-406"/>
      <point x="322" y="-449"/>
      <point x="323" y="-465" type="qcurve"/>
      <point x="315" y="-474"/>
      <point x="292" y="-484"/>
      <point x="279" y="-484" type="qcurve" smooth="yes"/>
      <point x="243" y="-484"/>
      <point x="196" y="-425"/>
      <point x="196" y="-380" type="qcurve" smooth="yes"/>
      <point x="196" y="-363"/>
      <point x="203" y="-332"/>
      <point x="210" y="-320" type="qcurve"/>
      <point x="203" y="-278"/>
      <point x="165" y="-234"/>
      <point x="137" y="-234" type="qcurve" smooth="yes"/>
      <point x="119" y="-234"/>
      <point x="98" y="-252"/>
      <point x="98" y="-268" type="qcurve" smooth="yes"/>
      <point x="98" y="-280"/>
      <point x="111" y="-293"/>
      <point x="122" y="-293" type="qcurve" smooth="yes"/>
      <point x="132" y="-293"/>
      <point x="148" y="-281"/>
      <point x="156" y="-267" type="qcurve"/>
      <point x="166" y="-287"/>
      <point x="182" y="-336"/>
      <point x="183" y="-354" type="qcurve"/>
      <point x="174" y="-365"/>
      <point x="148" y="-377"/>
      <point x="134" y="-377" type="qcurve" smooth="yes"/>
      <point x="94" y="-377"/>
      <point x="42" y="-310"/>
      <point x="42" y="-259" type="qcurve" smooth="yes"/>
      <point x="42" y="-206"/>
      <point x="94" y="-142"/>
      <point x="138" y="-142" type="qcurve" smooth="yes"/>
      <point x="185" y="-142"/>
      <point x="247" y="-214"/>
      <point x="253" y="-276" type="qcurve"/>
      <point x="261" y="-251"/>
      <point x="271" y="-201"/>
      <point x="271" y="-182" type="qcurve" smooth="yes"/>
      <point x="271" y="-156"/>
      <point x="240" y="-127"/>
      <point x="190" y="-115" type="qcurve" smooth="yes"/>
      <point x="123" y="-99"/>
      <point x="72" y="-44"/>
      <point x="64" y="12" type="qcurve"/>
      <point x="75" y="20"/>
      <point x="104" y="33"/>
      <point x="119" y="37" type="qcurve"/>
      <point x="125" y="4"/>
      <point x="152" y="-26"/>
      <point x="192" y="-35" type="qcurve"/>
      <point x="230" y="-44" type="line" smooth="yes"/>
      <point x="277" y="-55"/>
      <point x="326" y="-116"/>
      <point x="329" y="-167" type="qcurve"/>
      <point x="368" y="-179" type="line" smooth="yes"/>
      <point x="414" y="-193"/>
      <point x="457" y="-256"/>
    </contour>
    <contour>
      <point x="405" y="-308" type="qcurve" smooth="yes"/>
      <point x="405" y="-287"/>
      <point x="381" y="-261"/>
      <point x="331" y="-244" type="qcurve"/>
      <point x="324" y="-241" type="line"/>
      <point x="323" y="-245"/>
      <point x="321" y="-253"/>
      <point x="320" y="-262" type="qcurve" smooth="yes"/>
      <point x="318" y="-270"/>
      <point x="316" y="-278"/>
      <point x="315" y="-282" type="qcurve"/>
      <point x="344" y="-292"/>
      <point x="381" y="-352"/>
      <point x="386" y="-396" type="qcurve"/>
      <point x="395" y="-370"/>
      <point x="405" y="-325"/>
    </contour>
  </outline>
</glyph>
<glyph name="bn_one" format="1">
  <advance width="550"/>
  <unicode hex="09E7"/>
  <outline>
    <contour>
      <point x="439" y="356" type="qcurve" smooth="yes"/>
      <point x="465" y="325"/>
      <point x="490" y="254"/>
      <point x="490" y="211" type="qcurve" smooth="yes"/>
      <point x="490" y="109"/>
      <point x="367" y="-33"/>
      <point x="277" y="-33" type="qcurve" smooth="yes"/>
      <point x="205" y="-33"/>
      <point x="110" y="61"/>
      <point x="110" y="132" type="qcurve" smooth="yes"/>
      <point x="110" y="196"/>
      <point x="186" y="286"/>
      <point x="243" y="286" type="qcurve" smooth="yes"/>
      <point x="281" y="286"/>
      <point x="341" y="242"/>
      <point x="359" y="200" type="qcurve"/>
      <point x="347" y="180"/>
      <point x="306" y="142"/>
      <point x="285" y="131" type="qcurve"/>
      <point x="279" y="157"/>
      <point x="252" y="185"/>
      <point x="233" y="185" type="qcurve" smooth="yes"/>
      <point x="213" y="185"/>
      <point x="188" y="157"/>
      <point x="188" y="135" type="qcurve" smooth="yes"/>
      <point x="188" y="107"/>
      <point x="232" y="73"/>
      <point x="270" y="73" type="qcurve" smooth="yes"/>
      <point x="328" y="73"/>
      <point x="406" y="150"/>
      <point x="406" y="207" type="qcurve" smooth="yes"/>
      <point x="406" y="237"/>
      <point x="381" y="284"/>
      <point x="356" y="302" type="qcurve" smooth="yes"/>
      <point x="341" y="313"/>
      <point x="299" y="333"/>
      <point x="253" y="350" type="qcurve" smooth="yes"/>
      <point x="200" y="370"/>
      <point x="150" y="394"/>
      <point x="132" y="408" type="qcurve" smooth="yes"/>
      <point x="103" y="429"/>
      <point x="69" y="485"/>
      <point x="64" y="520" type="qcurve"/>
      <point x="93" y="544"/>
      <point x="150" y="582"/>
      <point x="179" y="596" type="qcurve"/>
      <point x="185" y="559"/>
      <point x="238" y="498"/>
      <point x="316" y="450" type="qcurve" smooth="yes"/>
      <point x="371" y="416"/>
      <point x="421" y="376"/>
    </contour>
  </outline>
</glyph>
<glyph name="bn_three" format="1">
  <advance width="550"/>
  <unicode hex="09E9"/>
  <outline>
    <contour>
      <point x="331" y="591" type="qcurve" smooth="yes"/>
      <point x="408" y="591"/>
      <point x="519" y="386"/>
      <point x="519" y="239" type="qcurve" smooth="yes"/>
      <point x="519" y="113"/>
      <point x="428" y="-33"/>
      <point x="349" y="-33" type="qcurve" smooth="yes"/>
      <point x="233" y="-33"/>
      <point x="69" y="235"/>
      <point x="19" y="512" type="qcurve"/>
      <point x="37" y="521"/>
      <point x="78" y="533"/>
      <point x="103" y="535" type="qcurve"/>
      <point x="136" y="344"/>
      <point x="269" y="102"/>
      <point x="343" y="102" type="qcurve" smooth="yes"/>
      <point x="387" y="102"/>
      <point x="431" y="189"/>
      <point x="431" y="276" type="qcurve" smooth="yes"/>
      <point x="431" y="367"/>
      <point x="389" y="484"/>
      <point x="360" y="484" type="qcurve" smooth="yes"/>
      <point x="344" y="484"/>
      <point x="326" y="448"/>
      <point x="326" y="416" type="qcurve" smooth="yes"/>
      <point x="326" y="375"/>
      <point x="349" y="300"/>
      <point x="370" y="273" type="qcurve"/>
      <point x="353" y="264"/>
      <point x="288" y="255"/>
      <point x="255" y="257" type="qcurve"/>
      <point x="235" y="290"/>
      <point x="213" y="376"/>
      <point x="213" y="420" type="qcurve" smooth="yes"/>
      <point x="213" y="496"/>
      <point x="278" y="591"/>
    </contour>
  </outline>
</glyph>
<glyph name="bn_five" format="1">
  <advance width="550"/>
  <unicode hex="09EB"/>
  <outline>
    <contour>
      <point x="418" y="181" type="qcurve" smooth="yes"/>
      <point x="418" y="133"/>
      <point x="443" y="49"/>
      <point x="466" y="23" type="qcurve"/>
      <point x="431" y="-2"/>
      <point x="329" y="-32"/>
      <point x="277" y="-32" type="qcurve" smooth="yes"/>
      <point x="169" y="-32"/>
      <point x="49" y="103"/>
      <point x="49" y="222" type="qcurve" smooth="yes"/>
      <point x="49" y="334"/>
      <point x="158" y="536"/>
      <point x="248" y="597" type="qcurve"/>
      <point x="262" y="536"/>
      <point x="356" y="453"/>
      <point x="412" y="453" type="qcurve" smooth="yes"/>
      <point x="430" y="453"/>
      <point x="468" y="462"/>
      <point x="478" y="468" type="qcurve"/>
      <point x="528" y="393" type="line"/>
      <point x="479" y="345"/>
      <point x="456" y="316"/>
      <point x="447" y="300" type="qcurve" smooth="yes"/>
      <point x="433" y="274"/>
      <point x="418" y="215"/>
    </contour>
    <contour>
      <point x="158" y="190" type="qcurve" smooth="yes"/>
      <point x="158" y="120"/>
      <point x="225" y="42"/>
      <point x="283" y="42" type="qcurve" smooth="yes"/>
      <point x="306" y="42"/>
      <point x="350" y="58"/>
      <point x="367" y="72" type="qcurve"/>
      <point x="341" y="103"/>
      <point x="312" y="187"/>
      <point x="312" y="231" type="qcurve" smooth="yes"/>
      <point x="312" y="270"/>
      <point x="335" y="348"/>
      <point x="356" y="383" type="qcurve"/>
      <point x="331" y="390"/>
      <point x="284" y="417"/>
      <point x="264" y="437" type="qcurve"/>
      <point x="214" y="385"/>
      <point x="158" y="253"/>
    </contour>
  </outline>
</glyph>
<glyph name="asa_ba" format="1">
  <advance width="500"/>
  <unicode hex="09F1"/>
  <outline>
    <contour>
      <point x="423" y="298" type="qcurve" smooth="yes"/>
      <point x="423" y="198"/>
      <point x="437" y="46"/>
      <point x="451" y="-4" type="qcurve"/>
      <point x="429" y="-16"/>
      <point x="360" y="-29"/>
      <point x="324" y="-29" type="qcurve"/>
      <point x="278" y="53"/>
      <point x="155" y="150"/>
      <point x="76" y="167" type="qcurve"/>
      <point x="52" y="200"/>
      <point x="27" y="266"/>
      <point x="24" y="304" type="qcurve"/>
      <point x="80" y="365"/>
      <point x="245" y="471"/>
      <point x="343" y="510" type="qcurve"/>
      <point x="345" y="517"/>
      <point x="348" y="530"/>
      <point x="349" y="537" type="qcurve"/>
      <point x="313" y="539"/>
      <point x="278" y="541"/>
      <point x="264" y="541" type="qcurve" smooth="yes"/>
      <point x="202" y="541"/>
      <point x="65" y="527"/>
      <point x="0" y="514" type="qcurve"/>
      <point x="-4" y="529"/>
      <point x="-8" y="558"/>
      <point x="-8" y="572" type="qcurve" smooth="yes"/>
      <point x="-8" y="587"/>
      <point x="-4" y="610"/>
      <point x="0" y="618" type="qcurve"/>
      <point x="59" y="632"/>
      <point x="202" y="649"/>
      <point x="268" y="649" type="qcurve" smooth="yes"/>
      <point x="325" y="649"/>
      <point x="457" y="631"/>
      <point x="501" y="618" type="qcurve"/>
      <point x="505" y="610"/>
      <point x="509" y="585"/>
      <point x="509" y="571" type="qcurve" smooth="yes"/>
      <point x="509" y="557"/>
      <point x="505" y="527"/>
      <point x="501" y="514" type="qcurve"/>
      <point x="486" y="517"/>
      <point x="454" y="523"/>
      <point x="437" y="526" type="qcurve"/>
      <point x="430" y="463"/>
      <point x="423" y="355"/>
    </contour>
    <contour>
      <point x="313" y="92" type="qcurve"/>
      <point x="312" y="99"/>
      <point x="312" y="118"/>
      <point x="312" y="139" type="qcurve" smooth="yes"/>
      <point x="312" y="202"/>
      <point x="317" y="309"/>
      <point x="322" y="359" type="qcurve"/>
      <point x="277" y="337"/>
      <point x="186" y="277"/>
      <point x="149" y="244" type="qcurve"/>
      <point x="201" y="214"/>
      <point x="284" y="137"/>
    </contour>
    <contour>
      <point x="202" y="-42" type="qcurve"/>
      <point x="174" y="-7"/>
      <point x="72" y="49"/>
      <point x="25" y="57" type="qcurve"/>
      <point x="32" y="80"/>
      <point x="52" y="117"/>
      <point x="65" y="131" type="qcurve"/>
      <point x="117" y="115"/>
      <point x="222" y="39"/>
      <point x="241" y="0" type="qcurve"/>
      <point x="237" y="-12"/>
      <point x="216" y="-34"/>
    </contour>
    <contour>
      <point x="365" y="0" type="move" name="blwm"/>
    </contour>
    <contour>
      <point x="250" y="0" type="move" name="haln"/>
    </contour>
    <contour>
      <point x="401" y="690" type="move" name="chandrabindu"/>
    </contour>
    <contour>
      <point x="401" y="690" type="move" name="reph"/>
    </contour>
  </outline>
</glyph>
